<svg width="152" height="153" viewBox="0 0 152 153" fill="none" xmlns="http://www.w3.org/2000/svg">
<g clip-path="url(#clip0_1947_3790)">
<g clip-path="url(#clip1_1947_3790)">
<path d="M53.8097 23.6927C53.8097 23.6927 52.1849 29.2542 46.2379 30.7838C40.2909 32.3134 35.7568 30.1054 32.854 38.4573C32.854 38.4573 34.5302 35.8462 37.3881 35.859C40.2396 35.8718 53.1225 39.9357 53.8161 23.6991L53.8097 23.6927Z" fill="url(#paint0_linear_1947_3790)"/>
<path d="M79.261 8C79.261 8 86.2997 20.6335 82.9024 39.046C81.8234 44.8892 76.3068 73.9512 47.5866 77.6056C44.536 47.3211 81.3867 40.7612 79.261 8Z" fill="url(#paint1_linear_1947_3790)"/>
<path d="M52.6346 42.5532C51.9988 41.03 49.8794 38.0157 43.4636 38.4828C39.7131 38.758 36.1808 41.126 32.7771 41.9644C27.5365 43.2572 24.3704 41.1964 24.3704 41.1964C26.5668 45.4076 33.5284 46.1052 36.8423 47.8331C38.7818 48.8443 44.1701 51.2059 43.0976 56.7802C41.4727 65.2281 42.815 68.2617 42.815 68.2617C42.815 68.2617 43.6691 61.1642 48.8711 54.0283C52.8658 48.5435 53.9575 45.7084 52.6346 42.5468V42.5532ZM44.3948 43.0972C44.0673 43.1996 43.4765 43.4172 42.8407 43.334C42.1856 43.2508 41.8645 42.8028 41.8645 42.3484C41.8645 41.67 42.2884 41.3052 42.8599 41.1964C43.9068 41.0044 45.1206 41.478 45.8527 42.8092C45.8527 42.8092 45.2105 42.8412 44.3948 43.0972Z" fill="url(#paint2_linear_1947_3790)"/>
<path d="M60.7523 73.1C60.7523 73.1 66.057 88.6455 86.6788 93.0166C99.3627 95.7046 127.768 106.738 122.65 127.269C122.65 127.269 118.687 122.719 110.28 118.284C101.874 113.848 100.043 110.572 100.223 106.316C100.223 106.316 106.01 113.24 109.792 113.663C109.792 113.663 111.501 102.853 87.7962 96.1142C87.7962 96.1142 91.4505 99.3333 92.0606 100.729C92.0606 100.729 85.2338 95.9926 79.3253 96.6582C79.3253 96.6582 108.309 105.24 106.279 134.392C106.279 134.392 103.839 127.915 99.7801 126.136C99.7801 126.136 100.063 132.555 95.0277 138.322C89.9926 144.088 83.9557 144.21 81.7658 143.909C81.7658 143.909 100.352 130.674 87.1861 110.629C87.1861 110.629 93.9038 128.159 84.2447 133.343C84.2447 133.343 83.975 130.354 81.9841 126.296C79.9932 122.239 79.0492 119.557 81.0272 116.856C81.0272 116.856 81.3034 121.925 82.9153 123.416C82.9153 123.416 90.9174 110.309 77.084 103.429C70.9893 100.396 47.8693 96.959 47.394 74.8088C47.394 74.8088 47.2592 68.5177 51.5043 63.3914C57.4127 67.5705 60.7458 73.1064 60.7458 73.1064L60.7523 73.1Z" fill="url(#paint3_linear_1947_3790)"/>
<path d="M107.089 14.9631C109.311 45.862 66.2946 44.0764 51.8896 62.8666C47.7408 68.2809 47.5867 72.4793 47.5867 72.4793C47.5867 72.4793 53.6814 74.8537 62.1394 76.0696C73.4746 77.6952 89.0485 77.2408 99.8443 66.169C104.931 60.953 108.964 53.3819 110.987 42.5596C113.838 27.3342 107.089 14.9695 107.089 14.9695V14.9631Z" fill="url(#paint4_linear_1947_3790)"/>
<path d="M99.8442 66.169C95.8496 66.3674 91.6944 65.6058 86.9677 64.8442C71.6892 62.3739 62.1201 76.0441 62.1201 76.0441C62.1201 76.0441 62.1265 76.0569 62.133 76.0697C73.4682 77.6953 89.0421 77.2409 99.8378 66.169H99.8442Z" fill="url(#paint5_linear_1947_3790)"/>
<path d="M99.8445 66.1689C89.0423 77.2408 73.4749 77.7015 62.1396 76.0696C62.4608 76.6072 68.7224 86.7062 82.6073 86.9238C111.995 87.3846 117.217 56.8058 117.217 56.8058C110.916 63.6793 105.535 65.8873 99.8445 66.1689Z" fill="url(#paint6_linear_1947_3790)"/>
<path d="M115.444 82.673C116.276 82.0234 116.422 80.8246 115.77 79.9955C115.118 79.1664 113.915 79.0209 113.083 79.6705C112.251 80.3202 112.105 81.5189 112.757 82.348C113.409 83.1771 114.612 83.3226 115.444 82.673Z" fill="#E74664"/>
<path d="M127.139 56.9018C127.139 58.1754 126.105 59.2058 124.827 59.2058C123.549 59.2058 122.515 58.1754 122.515 56.9018C122.515 55.6282 123.549 54.5978 124.827 54.5978C126.105 54.5978 127.139 55.6282 127.139 56.9018Z" fill="#E74664"/>
<path d="M122.72 75.6537C122.72 77.004 121.622 78.092 120.273 78.092C118.925 78.092 117.827 76.9976 117.827 75.6537C117.827 74.3097 118.925 73.2153 120.273 73.2153C121.622 73.2153 122.72 74.3097 122.72 75.6537Z" fill="#E74664"/>
<path d="M127.158 66.4889C127.158 68.2105 125.758 69.5993 124.037 69.5993C122.315 69.5993 120.915 68.2041 120.915 66.4889C120.915 64.7737 122.315 63.3785 124.037 63.3785C125.758 63.3785 127.158 64.7737 127.158 66.4889Z" fill="#E74664"/>
</g>
</g>
<defs>
<linearGradient id="paint0_linear_1947_3790" x1="32.8476" y1="31.0782" x2="68.9405" y2="31.0782" gradientUnits="userSpaceOnUse">
<stop stop-color="#E8563F"/>
<stop offset="0.08" stop-color="#E74E49"/>
<stop offset="0.37" stop-color="#E53669"/>
<stop offset="0.53" stop-color="#E22E76"/>
<stop offset="0.63" stop-color="#BA3E86"/>
<stop offset="0.73" stop-color="#9B4A92"/>
<stop offset="0.83" stop-color="#85539B"/>
<stop offset="0.92" stop-color="#7759A1"/>
<stop offset="1" stop-color="#735BA3"/>
</linearGradient>
<linearGradient id="paint1_linear_1947_3790" x1="73.9498" y1="72.8889" x2="51.669" y2="7.71564" gradientUnits="userSpaceOnUse">
<stop offset="0.37" stop-color="#735BA3"/>
<stop offset="0.46" stop-color="#7576AD"/>
<stop offset="0.64" stop-color="#7ABCC9"/>
<stop offset="0.68" stop-color="#7CC9CF"/>
</linearGradient>
<linearGradient id="paint2_linear_1947_3790" x1="36.1038" y1="34.3869" x2="45.9446" y2="65.1201" gradientUnits="userSpaceOnUse">
<stop stop-color="#E8563F"/>
<stop offset="0.08" stop-color="#E74E49"/>
<stop offset="0.37" stop-color="#E53669"/>
<stop offset="0.53" stop-color="#E22E76"/>
<stop offset="0.63" stop-color="#BA3E86"/>
<stop offset="0.73" stop-color="#9B4A92"/>
<stop offset="0.83" stop-color="#85539B"/>
<stop offset="0.92" stop-color="#7759A1"/>
<stop offset="1" stop-color="#735BA3"/>
</linearGradient>
<linearGradient id="paint3_linear_1947_3790" x1="64.6634" y1="73.9128" x2="112.976" y2="146.509" gradientUnits="userSpaceOnUse">
<stop offset="0.26" stop-color="#E52D75"/>
<stop offset="0.43" stop-color="#CF357D"/>
<stop offset="0.77" stop-color="#994B93"/>
<stop offset="1" stop-color="#735BA3"/>
</linearGradient>
<linearGradient id="paint4_linear_1947_3790" x1="71.959" y1="75.7496" x2="96.8585" y2="16.936" gradientUnits="userSpaceOnUse">
<stop stop-color="#E52D75"/>
<stop offset="0.11" stop-color="#D0357D"/>
<stop offset="0.34" stop-color="#A8458D"/>
<stop offset="0.56" stop-color="#8A5199"/>
<stop offset="0.75" stop-color="#7958A0"/>
<stop offset="0.88" stop-color="#735BA3"/>
</linearGradient>
<linearGradient id="paint5_linear_1947_3790" x1="64.6119" y1="64.4538" x2="101.362" y2="79.5127" gradientUnits="userSpaceOnUse">
<stop offset="0.28" stop-color="#E52D75" stop-opacity="0"/>
<stop offset="0.55" stop-color="#E84B6E" stop-opacity="0.36"/>
<stop offset="1" stop-color="#EE8363"/>
</linearGradient>
<linearGradient id="paint6_linear_1947_3790" x1="122.586" y1="65.6505" x2="62.7115" y2="84.8816" gradientUnits="userSpaceOnUse">
<stop stop-color="#F4A300"/>
<stop offset="0.03" stop-color="#F39C06"/>
<stop offset="0.24" stop-color="#EE742E"/>
<stop offset="0.44" stop-color="#EA554D"/>
<stop offset="0.64" stop-color="#E73F63"/>
<stop offset="0.83" stop-color="#E53170"/>
<stop offset="1" stop-color="#E52D75"/>
</linearGradient>
<clipPath id="clip0_1947_3790">
<rect y="0.00830078" width="152" height="152.008" rx="76" fill="white"/>
</clipPath>
<clipPath id="clip1_1947_3790">
<rect width="152" height="152.008" fill="white" transform="translate(0 0.00830078)"/>
</clipPath>
</defs>
</svg>
