<svg width="22" height="22" viewBox="0 0 22 22" fill="none" xmlns="http://www.w3.org/2000/svg">
<path d="M17.7863 8.12891C17.707 8.17674 15.8194 9.18622 15.8194 11.4245C15.9084 13.977 18.2015 14.8722 18.2408 14.8722C18.2015 14.92 17.8946 16.0916 16.9856 17.3198C16.2643 18.3777 15.4636 19.4443 14.2477 19.4443C13.0912 19.4443 12.676 18.7392 11.3415 18.7392C9.90844 18.7392 9.50294 19.4443 8.40571 19.4443C7.18986 19.4443 6.32987 18.3205 5.56916 17.2726C4.58087 15.9009 3.74087 13.7484 3.71121 11.6816C3.69123 10.5864 3.90913 9.50987 4.46226 8.59544C5.24295 7.31885 6.63673 6.45225 8.1588 6.42368C9.32501 6.38578 10.3629 7.19523 11.0747 7.19523C11.7567 7.19523 13.0319 6.42368 14.4747 6.42368C15.0974 6.4243 16.7581 6.60507 17.7863 8.12891ZM10.976 6.20501C10.7684 5.20486 11.3415 4.2047 11.8753 3.56672C12.5574 2.79517 13.6346 2.27148 14.5636 2.27148C14.6229 3.27164 14.2471 4.25254 13.5753 4.96693C12.9726 5.73848 11.9346 6.31931 10.976 6.20501Z" fill="white"/>
</svg>
