<svg width="24" height="24" viewBox="0 0 24 24" fill="none" xmlns="http://www.w3.org/2000/svg">
<path fill-rule="evenodd" clip-rule="evenodd" d="M16.7787 16.7787C16.862 16.6954 16.9082 16.5818 16.9072 16.463C16.9061 16.3441 16.8579 16.2297 16.7731 16.1449L9.23296 8.60481L13.2211 8.64089C13.28 8.64141 13.3383 8.63032 13.3925 8.60826C13.4467 8.58619 13.4959 8.55358 13.5372 8.51229C13.5785 8.47099 13.6111 8.42183 13.6332 8.36759C13.6552 8.31335 13.6663 8.25511 13.6658 8.19619C13.6653 8.13726 13.6531 8.07882 13.6301 8.02418C13.6071 7.96954 13.5736 7.91978 13.5316 7.87775C13.4895 7.83571 13.4398 7.80222 13.3851 7.77919C13.3305 7.75616 13.272 7.74403 13.2131 7.74351L8.1432 7.69845C8.08425 7.69785 8.02598 7.70889 7.9717 7.73093C7.91743 7.75296 7.86823 7.78557 7.82693 7.82688C7.78562 7.86819 7.75301 7.91739 7.73097 7.97166C7.70893 8.02593 7.6979 8.08421 7.6985 8.14315L7.74356 13.2131C7.74408 13.272 7.7562 13.3304 7.77924 13.3851C7.80227 13.4397 7.83576 13.4895 7.87779 13.5315C7.91983 13.5735 7.96959 13.607 8.02422 13.6301C8.07886 13.6531 8.13731 13.6652 8.19623 13.6657C8.25515 13.6663 8.3134 13.6552 8.36763 13.6331C8.42187 13.6111 8.47104 13.5784 8.51233 13.5372C8.55363 13.4959 8.58624 13.4467 8.6083 13.3925C8.63037 13.3382 8.64146 13.28 8.64093 13.221L8.60485 9.23292L16.145 16.773C16.2298 16.8578 16.3442 16.9061 16.463 16.9071C16.5819 16.9082 16.6954 16.862 16.7787 16.7787Z" fill="currentColor"/>
</svg>
