<svg width="24" height="24" viewBox="0 0 24 24" fill="none" xmlns="http://www.w3.org/2000/svg">
<path d="M15.6 8.39993V12.8999C15.6 13.616 15.8845 14.3028 16.3908 14.8091C16.8972 15.3155 17.5839 15.5999 18.3 15.5999C19.0161 15.5999 19.7028 15.3155 20.2092 14.8091C20.7155 14.3028 21 13.616 21 12.8999V11.9999C20.9999 9.96866 20.3126 7.99716 19.05 6.40601C17.7873 4.81486 16.0235 3.69763 14.0454 3.236C12.0673 2.77436 9.99115 2.99547 8.15462 3.86336C6.31809 4.73125 4.82917 6.19489 3.92994 8.01628C3.03071 9.83767 2.77408 11.9097 3.20176 13.8954C3.62944 15.8812 4.71629 17.6638 6.28558 18.9536C7.85486 20.2433 9.8143 20.9642 11.8453 20.9992C13.8762 21.0341 15.8593 20.3809 17.472 19.1459M15.6004 11.9999C15.6004 13.9881 13.9886 15.5999 12.0004 15.5999C10.0122 15.5999 8.40039 13.9881 8.40039 11.9999C8.40039 10.0117 10.0122 8.3999 12.0004 8.3999C13.9886 8.3999 15.6004 10.0117 15.6004 11.9999Z" stroke="currentColor" stroke-width="1.5" stroke-linecap="round" stroke-linejoin="round"/>
</svg>
