<svg width="46" height="32" viewBox="0 0 46 32" fill="none" xmlns="http://www.w3.org/2000/svg">
<rect x="0.5" y="0.5" width="45" height="31" rx="3.5" fill="white"/>
<rect x="0.5" y="0.5" width="45" height="31" rx="3.5" stroke="#F5F5F5"/>
<rect x="9.4375" y="2.4375" width="27.125" height="27.125" rx="13.5625" stroke="#404040" stroke-width="0.875"/>
<path d="M19.0975 6.57715C19.0975 6.57715 18.8058 7.57904 17.7382 7.85459C16.6706 8.13014 15.8566 7.73238 15.3355 9.23695C15.3355 9.23695 15.6364 8.76656 16.1495 8.76886C16.6614 8.77117 18.9742 9.50328 19.0987 6.5783L19.0975 6.57715Z" fill="url(#paint0_linear_25616_14947)"/>
<path d="M23.6666 3.75C23.6666 3.75 24.9302 6.02588 24.3203 9.34285C24.1266 10.3955 23.1362 15.6309 17.9803 16.2892C17.4327 10.8336 24.0482 9.65184 23.6666 3.75Z" fill="url(#paint1_linear_25616_14947)"/>
<path d="M18.8865 9.97445C18.7724 9.70005 18.3919 9.15702 17.2402 9.24118C16.5668 9.29076 15.9327 9.71734 15.3217 9.86838C14.3809 10.1013 13.8125 9.73003 13.8125 9.73003C14.2068 10.4887 15.4566 10.6143 16.0515 10.9256C16.3997 11.1078 17.367 11.5332 17.1744 12.5374C16.8827 14.0593 17.1237 14.6058 17.1237 14.6058C17.1237 14.6058 17.277 13.3272 18.2109 12.0416C18.928 11.0536 19.124 10.5428 18.8865 9.97329V9.97445ZM17.4073 10.0724C17.3485 10.0909 17.2425 10.1301 17.1283 10.1151C17.0107 10.1001 16.9531 10.0194 16.9531 9.93755C16.9531 9.81534 17.0292 9.74963 17.1318 9.73003C17.3197 9.69544 17.5376 9.78076 17.669 10.0206C17.669 10.0206 17.5538 10.0263 17.4073 10.0724Z" fill="url(#paint2_linear_25616_14947)"/>
<path d="M20.3439 15.4775C20.3439 15.4775 21.2962 18.278 24.9982 19.0654C27.2753 19.5496 32.3747 21.5373 31.4558 25.2359C31.4558 25.2359 30.7444 24.4162 29.2352 23.6172C27.7261 22.8182 27.3975 22.2279 27.4298 21.4612C27.4298 21.4612 28.4685 22.7087 29.1476 22.7848C29.1476 22.7848 29.4543 20.8375 25.1988 19.6234C25.1988 19.6234 25.8549 20.2034 25.9644 20.4547C25.9644 20.4547 24.7388 19.6015 23.6781 19.7214C23.6781 19.7214 28.8813 21.2675 28.517 26.5191C28.517 26.5191 28.0789 25.3523 27.3502 25.0318C27.3502 25.0318 27.4009 26.1882 26.497 27.227C25.5931 28.2658 24.5094 28.2877 24.1162 28.2335C24.1162 28.2335 27.4528 25.8492 25.0893 22.2383C25.0893 22.2383 26.2953 25.3961 24.5613 26.33C24.5613 26.33 24.5128 25.7916 24.1554 25.0606C23.798 24.3297 23.6285 23.8466 23.9836 23.3601C23.9836 23.3601 24.0332 24.2732 24.3226 24.5418C24.3226 24.5418 25.7592 22.1806 23.2758 20.9412C22.1816 20.3947 18.0311 19.7756 17.9458 15.7853C17.9458 15.7853 17.9216 14.652 18.6836 13.7285C19.7443 14.4814 20.3427 15.4787 20.3427 15.4787L20.3439 15.4775Z" fill="url(#paint3_linear_25616_14947)"/>
<path d="M28.6622 5.00439C29.0611 10.5707 21.3388 10.2491 18.7528 13.6341C18.008 14.6094 17.9803 15.3658 17.9803 15.3658C17.9803 15.3658 19.0745 15.7935 20.5929 16.0126C22.6278 16.3054 25.4237 16.2235 27.3617 14.229C28.2748 13.2893 28.9989 11.9254 29.3621 9.97582C29.874 7.233 28.6622 5.00555 28.6622 5.00555V5.00439Z" fill="url(#paint4_linear_25616_14947)"/>
<path d="M27.3617 14.229C26.6446 14.2647 25.8986 14.1275 25.0501 13.9903C22.3073 13.5453 20.5894 16.0079 20.5894 16.0079C20.5894 16.0079 20.5906 16.0102 20.5917 16.0125C22.6266 16.3054 25.4225 16.2235 27.3606 14.229H27.3617Z" fill="url(#paint5_linear_25616_14947)"/>
<path d="M27.3617 14.2292C25.4225 16.2238 22.6278 16.3068 20.5929 16.0128C20.6505 16.1096 21.7746 17.929 24.2673 17.9682C29.5431 18.0512 30.4804 12.5425 30.4804 12.5425C29.3494 13.7807 28.3832 14.1785 27.3617 14.2292Z" fill="url(#paint6_linear_25616_14947)"/>
<path d="M30.1621 17.202C30.3115 17.085 30.3377 16.869 30.2207 16.7197C30.1037 16.5703 29.8877 16.5441 29.7383 16.6611C29.589 16.7782 29.5628 16.9941 29.6798 17.1435C29.7968 17.2929 30.0128 17.3191 30.1621 17.202Z" fill="#E74664"/>
<path d="M32.2617 12.5596C32.2617 12.789 32.0761 12.9746 31.8466 12.9746C31.6172 12.9746 31.4316 12.789 31.4316 12.5596C31.4316 12.3302 31.6172 12.1445 31.8466 12.1445C32.0761 12.1445 32.2617 12.3302 32.2617 12.5596Z" fill="#E74664"/>
<path d="M31.4684 15.9378C31.4684 16.1811 31.2713 16.3771 31.0292 16.3771C30.7871 16.3771 30.5899 16.1799 30.5899 15.9378C30.5899 15.6957 30.7871 15.4985 31.0292 15.4985C31.2713 15.4985 31.4684 15.6957 31.4684 15.9378Z" fill="#E74664"/>
<path d="M32.2651 14.2869C32.2651 14.597 32.0138 14.8472 31.7048 14.8472C31.3958 14.8472 31.1445 14.5959 31.1445 14.2869C31.1445 13.9779 31.3958 13.7266 31.7048 13.7266C32.0138 13.7266 32.2651 13.9779 32.2651 14.2869Z" fill="#E74664"/>
<defs>
<linearGradient id="paint0_linear_25616_14947" x1="15.3344" y1="7.90763" x2="21.8138" y2="7.90763" gradientUnits="userSpaceOnUse">
<stop stop-color="#E8563F"/>
<stop offset="0.08" stop-color="#E74E49"/>
<stop offset="0.37" stop-color="#E53669"/>
<stop offset="0.53" stop-color="#E22E76"/>
<stop offset="0.63" stop-color="#BA3E86"/>
<stop offset="0.73" stop-color="#9B4A92"/>
<stop offset="0.83" stop-color="#85539B"/>
<stop offset="0.92" stop-color="#7759A1"/>
<stop offset="1" stop-color="#735BA3"/>
</linearGradient>
<linearGradient id="paint1_linear_25616_14947" x1="22.7131" y1="15.4395" x2="18.6882" y2="3.70734" gradientUnits="userSpaceOnUse">
<stop offset="0.37" stop-color="#735BA3"/>
<stop offset="0.46" stop-color="#7576AD"/>
<stop offset="0.64" stop-color="#7ABCC9"/>
<stop offset="0.68" stop-color="#7CC9CF"/>
</linearGradient>
<linearGradient id="paint2_linear_25616_14947" x1="15.9189" y1="8.50331" x2="17.6967" y2="14.0362" gradientUnits="userSpaceOnUse">
<stop stop-color="#E8563F"/>
<stop offset="0.08" stop-color="#E74E49"/>
<stop offset="0.37" stop-color="#E53669"/>
<stop offset="0.53" stop-color="#E22E76"/>
<stop offset="0.63" stop-color="#BA3E86"/>
<stop offset="0.73" stop-color="#9B4A92"/>
<stop offset="0.83" stop-color="#85539B"/>
<stop offset="0.92" stop-color="#7759A1"/>
<stop offset="1" stop-color="#735BA3"/>
</linearGradient>
<linearGradient id="paint3_linear_25616_14947" x1="21.046" y1="15.6239" x2="29.761" y2="28.6739" gradientUnits="userSpaceOnUse">
<stop offset="0.26" stop-color="#E52D75"/>
<stop offset="0.43" stop-color="#CF357D"/>
<stop offset="0.77" stop-color="#994B93"/>
<stop offset="1" stop-color="#735BA3"/>
</linearGradient>
<linearGradient id="paint4_linear_25616_14947" x1="22.3557" y1="15.9549" x2="26.8521" y2="5.37103" gradientUnits="userSpaceOnUse">
<stop stop-color="#E52D75"/>
<stop offset="0.11" stop-color="#D0357D"/>
<stop offset="0.34" stop-color="#A8458D"/>
<stop offset="0.56" stop-color="#8A5199"/>
<stop offset="0.75" stop-color="#7958A0"/>
<stop offset="0.88" stop-color="#735BA3"/>
</linearGradient>
<linearGradient id="paint5_linear_25616_14947" x1="21.0368" y1="13.92" x2="27.6407" y2="16.6167" gradientUnits="userSpaceOnUse">
<stop offset="0.28" stop-color="#E52D75" stop-opacity="0"/>
<stop offset="0.55" stop-color="#E84B6E" stop-opacity="0.36"/>
<stop offset="1" stop-color="#EE8363"/>
</linearGradient>
<linearGradient id="paint6_linear_25616_14947" x1="31.4443" y1="14.1358" x2="20.6886" y2="17.5785" gradientUnits="userSpaceOnUse">
<stop stop-color="#F4A300"/>
<stop offset="0.03" stop-color="#F39C06"/>
<stop offset="0.24" stop-color="#EE742E"/>
<stop offset="0.44" stop-color="#EA554D"/>
<stop offset="0.64" stop-color="#E73F63"/>
<stop offset="0.83" stop-color="#E53170"/>
<stop offset="1" stop-color="#E52D75"/>
</linearGradient>
</defs>
</svg>
