<svg width="24" height="24" viewBox="0 0 24 24" fill="none" xmlns="http://www.w3.org/2000/svg">
<path d="M12.3158 13.1003H8.17175L8.14958 10.5536H11.6288C12.2419 10.5536 12.7442 10.467 13.1357 10.294C13.5272 10.1126 13.819 9.85302 14.0111 9.51511C14.2105 9.16896 14.3102 8.74863 14.3102 8.25412C14.3102 7.69368 14.2142 7.24038 14.0222 6.89423C13.8375 6.54808 13.5457 6.2967 13.1468 6.14011C12.7553 5.98352 12.2493 5.90522 11.6288 5.90522H9.3241V21H6V3H11.6288C12.5669 3 13.4054 3.0989 14.144 3.2967C14.8901 3.49451 15.5217 3.79533 16.0388 4.19918C16.5559 4.60302 16.9511 5.11401 17.2244 5.73214C17.4977 6.34203 17.6343 7.06731 17.6343 7.90797C17.6343 8.64973 17.4829 9.33379 17.1801 9.96017C16.8846 10.5865 16.4155 11.0975 15.7729 11.4931C15.1376 11.8887 14.3066 12.1071 13.2798 12.1484L12.3158 13.1003ZM12.1717 21H7.26316L8.55956 18.1071H12.1717C12.7553 18.1071 13.2318 18.0041 13.6011 17.7981C13.9705 17.5838 14.2438 17.2953 14.4211 16.9327C14.5983 16.5701 14.687 16.1538 14.687 15.6841C14.687 15.1566 14.6057 14.6992 14.4432 14.3118C14.2881 13.9245 14.0369 13.6277 13.6898 13.4217C13.3426 13.2074 12.8846 13.1003 12.3158 13.1003H9.11357L9.13573 10.5536H13.1247L13.8892 11.5549C14.8717 11.5385 15.662 11.7321 16.2604 12.136C16.8661 12.5316 17.3056 13.0467 17.5789 13.6813C17.8596 14.3159 18 14.9959 18 15.7212C18 16.875 17.7747 17.8475 17.3241 18.6387C16.8735 19.4217 16.2124 20.011 15.3407 20.4066C14.4765 20.8022 13.4201 21 12.1717 21Z" fill="currentColor"/>
</svg>
