<svg width="20" height="20" viewBox="0 0 20 20" fill="none" xmlns="http://www.w3.org/2000/svg">
<path d="M1 6.25V15C1 17.2091 2.79086 19 5 19H15C17.2091 19 19 17.2091 19 15V6.25M1 6.25L2.84832 3.01544C3.56049 1.76914 4.88586 1 6.32129 1H13.6787C15.1141 1 16.4395 1.76914 17.1517 3.01544L19 6.25M1 6.25H7.75M19 6.25H12.25M7.75 6.25V8.5C7.75 9.74264 8.75736 10.75 10 10.75V10.75C11.2426 10.75 12.25 9.74264 12.25 8.5V6.25M7.75 6.25H12.25" stroke="currentColor" stroke-width="1.5" stroke-miterlimit="1.55572"/>
</svg>
