<svg width="24" height="24" viewBox="0 0 24 24" fill="none" xmlns="http://www.w3.org/2000/svg">
<path fill-rule="evenodd" clip-rule="evenodd" d="M1.89847 1.88916C1.95968 1.47949 2.34139 1.19701 2.75106 1.25821L2.64024 1.99998C2.75106 1.25821 2.75106 1.25821 2.75106 1.25821L2.75248 1.25843L2.75413 1.25868L2.75809 1.25929L2.76863 1.26099L2.79983 1.26638C2.82497 1.27091 2.8587 1.2774 2.8998 1.28626C2.98181 1.30394 3.09429 1.33129 3.22713 1.37169C3.48998 1.45165 3.8475 1.58724 4.20963 1.81087C4.94899 2.26745 5.72788 3.11583 5.69791 4.53196C5.701 4.66415 5.70231 4.79812 5.70206 4.93359C9.94806 3.73933 14.5978 3.46056 16.7678 3.50795C17.9948 3.53474 18.9551 3.76803 19.7217 4.24713C20.4937 4.72962 20.989 5.41133 21.3734 6.18015C22.0278 7.48891 22.2421 9.62344 22.0658 11.5989C21.9762 12.6039 21.7822 13.6115 21.468 14.5007C21.1572 15.3802 20.7087 16.2008 20.0736 16.7685C19.4174 17.3554 18.356 17.737 17.2194 17.9821C16.0509 18.2341 14.6809 18.3666 13.2997 18.3776C11.9179 18.3887 10.5019 18.2784 9.24093 18.0335C7.99646 17.7918 6.83226 17.4059 6.00986 16.8205C4.20962 15.5384 3.87749 13.2243 3.88198 11.0457C3.88416 9.98543 3.96834 8.87731 4.04838 7.8236C4.05282 7.76516 4.05725 7.70688 4.06165 7.64879C4.10667 7.05434 4.14872 6.48021 4.17487 5.93337C4.17515 5.92165 4.1757 5.90996 4.17652 5.89832C4.19851 5.42712 4.20842 4.97637 4.19793 4.55057C4.19761 4.53781 4.19762 4.52504 4.19796 4.51228C4.2178 3.76163 3.84679 3.34977 3.42149 3.08713C3.19956 2.95008 2.96941 2.86116 2.79062 2.80677C2.70264 2.78001 2.6308 2.76273 2.58369 2.75257C2.56024 2.74752 2.54322 2.74429 2.53374 2.74258L2.52555 2.74116C2.11797 2.67814 1.83746 2.29753 1.89847 1.88916ZM5.64539 6.51213C5.62009 6.92671 5.58891 7.34553 5.55736 7.76207C5.55338 7.81463 5.5494 7.86716 5.54541 7.91967C5.46428 8.98863 5.38404 10.0458 5.38197 11.0488C5.37751 13.2131 5.74607 14.791 6.8797 15.5985C7.44584 16.0014 8.36472 16.3353 9.52688 16.561C10.6726 16.7835 11.9868 16.8881 13.2877 16.8777C14.5893 16.8673 15.8546 16.742 16.9032 16.5158C17.9835 16.2829 18.7207 15.9661 19.0737 15.6504C19.4483 15.3156 19.7871 14.7554 20.0537 14.0009C20.3169 13.256 20.4905 12.3763 20.5718 11.4656C20.7373 9.60989 20.5063 7.8 20.0317 6.85097C19.7198 6.22707 19.3839 5.80487 18.9267 5.51915C18.4641 5.23002 17.797 5.03078 16.7351 5.00759C14.585 4.96064 9.82251 5.2564 5.64539 6.51213Z" fill="white"/>
<path fill-rule="evenodd" clip-rule="evenodd" d="M4.92477 5.95112C9.31673 4.53307 14.4624 4.2078 16.7513 4.25778C19.0403 4.30776 20.0061 5.12285 20.7025 6.51557C21.8314 8.77336 21.5932 14.4044 19.5736 16.2095C17.5551 18.0146 9.22177 18.1862 6.44468 16.2095C3.51069 14.1199 5.04356 8.42566 4.9476 4.5321C5.00518 2.35334 5 4.00002 5 4.00002M12.6143 9.90224C12.6143 9.48803 12.95 9.15224 13.3643 9.15224H16.4947C16.9089 9.15224 17.2447 9.48803 17.2447 9.90224C17.2447 10.3165 16.9089 10.6522 16.4947 10.6522H13.3643C12.95 10.6522 12.6143 10.3165 12.6143 9.90224Z" fill="white"/>
<path fill-rule="evenodd" clip-rule="evenodd" d="M6.88917 20.7706C7.22784 20.7706 7.50329 21.0461 7.50329 21.3847C7.50329 21.7245 7.22784 22 6.88917 22C6.54938 22 6.27393 21.7245 6.27393 21.3847C6.27393 21.0461 6.54938 20.7706 6.88917 20.7706Z" fill="white" stroke="white" stroke-width="1.5" stroke-linecap="round" stroke-linejoin="round"/>
<path fill-rule="evenodd" clip-rule="evenodd" d="M18.5511 20.7706C18.8909 20.7706 19.1664 21.0461 19.1664 21.3847C19.1664 21.7245 18.8909 22 18.5511 22C18.2125 22 17.937 21.7245 17.937 21.3847C17.937 21.0461 18.2125 20.7706 18.5511 20.7706Z" fill="white" stroke="white" stroke-width="1.5" stroke-linecap="round" stroke-linejoin="round"/>
</svg>
