<svg width="24" height="24" viewBox="0 0 24 24" fill="none" xmlns="http://www.w3.org/2000/svg">
<path d="M4.91791 5.95179C9.30939 4.53389 14.4545 4.20866 16.7432 4.25864C19.0318 4.30861 19.9976 5.12361 20.6938 6.51617C21.8226 8.77371 21.5844 14.4041 19.5651 16.209C17.5468 18.0139 9.21443 18.1855 6.43766 16.209C3.50399 14.1197 5.03669 8.42605 4.94075 4.53293C4.99831 2.3544 2.63354 2.0011 2.63354 2.0011" stroke="currentColor" stroke-width="1.5" stroke-linecap="round" stroke-linejoin="round"/>
<path d="M8.27734 11.5957C9.78237 13.2889 13.3568 16.6752 17.3075 11.5957" stroke="currentColor" stroke-width="1.5" stroke-linecap="round"/>
<path fill-rule="evenodd" clip-rule="evenodd" d="M6.88178 20.7697C7.22041 20.7697 7.49583 21.0451 7.49583 21.3837C7.49583 21.7235 7.22041 21.9989 6.88178 21.9989C6.54202 21.9989 6.2666 21.7235 6.2666 21.3837C6.2666 21.0451 6.54202 20.7697 6.88178 20.7697Z" fill="currentColor" stroke="currentColor" stroke-width="1.5" stroke-linecap="round" stroke-linejoin="round"/>
<path fill-rule="evenodd" clip-rule="evenodd" d="M18.5432 20.7697C18.883 20.7697 19.1584 21.0451 19.1584 21.3837C19.1584 21.7235 18.883 21.9989 18.5432 21.9989C18.2046 21.9989 17.9292 21.7235 17.9292 21.3837C17.9292 21.0451 18.2046 20.7697 18.5432 20.7697Z" fill="currentColor" stroke="currentColor" stroke-width="1.5" stroke-linecap="round" stroke-linejoin="round"/>
</svg>
