<svg width="18" height="20" viewBox="0 0 18 20" fill="none" xmlns="http://www.w3.org/2000/svg">
<path d="M1 1.02344C1 1.02344 3.095 1.33644 3.044 3.26644C3.129 6.71544 1.77115 11.7595 4.37015 13.6105C6.83015 15.3615 14.212 15.2095 16 13.6105C16.5181 13.1475 16.9039 12.4001 17.1662 11.5234" stroke="currentColor" stroke-width="1.5" stroke-linecap="round" stroke-linejoin="round"/>
<path fill-rule="evenodd" clip-rule="evenodd" d="M4.76375 17.6484C5.06375 17.6484 5.30775 17.8924 5.30775 18.1924C5.30775 18.4934 5.06375 18.7374 4.76375 18.7374C4.46275 18.7374 4.21875 18.4934 4.21875 18.1924C4.21875 17.8924 4.46275 17.6484 4.76375 17.6484Z" fill="currentColor" stroke="currentColor" stroke-width="1.5" stroke-linecap="round" stroke-linejoin="round"/>
<path fill-rule="evenodd" clip-rule="evenodd" d="M15.0948 17.6484C15.3958 17.6484 15.6398 17.8924 15.6398 18.1924C15.6398 18.4934 15.3958 18.7374 15.0948 18.7374C14.7948 18.7374 14.5508 18.4934 14.5508 18.1924C14.5508 17.8924 14.7948 17.6484 15.0948 17.6484Z" fill="currentColor" stroke="currentColor" stroke-width="1.5" stroke-linecap="round" stroke-linejoin="round"/>
<path d="M10.4995 4.02344L10.4995 11.0234" stroke="currentColor" stroke-width="1.5" stroke-linecap="round"/>
<path d="M14 7.52344L7 7.52344" stroke="currentColor" stroke-width="1.5" stroke-linecap="round"/>
</svg>
