<svg width="24" height="24" viewBox="0 0 24 24" fill="none" xmlns="http://www.w3.org/2000/svg">
<path fill-rule="evenodd" clip-rule="evenodd" d="M4.92006 5.96041C9.31017 4.54243 14.4539 4.21051 16.7419 4.26049C19.0299 4.31046 19.9953 5.12551 20.6914 6.51816C21.8198 8.77584 21.5817 14.4066 19.563 16.2116C17.5454 18.0166 9.21555 18.1882 6.43965 16.2116C3.84859 14.3656 4.74269 9.70603 4.92006 5.96041C4.94345 5.46646 4.95438 4.98841 4.9432 4.53479C5.00075 2.35613 2.63672 2.00281 2.63672 2.00281" fill="black"/>
<path d="M4.92006 5.96041C9.31017 4.54243 14.4539 4.21051 16.7419 4.26049C19.0299 4.31046 19.9953 5.12551 20.6914 6.51816C21.8198 8.77584 21.5817 14.4066 19.563 16.2116C17.5454 18.0166 9.21555 18.1882 6.43965 16.2116C3.84859 14.3656 4.74269 9.70603 4.92006 5.96041ZM4.92006 5.96041L4.9432 4.53479M4.92006 5.96041C4.94345 5.46646 4.95438 4.98841 4.9432 4.53479M4.9432 4.53479C5.00075 2.35613 2.63672 2.00281 2.63672 2.00281" stroke="black" stroke-width="1.5" stroke-linecap="round" stroke-linejoin="round"/>
<path d="M8.27856 11.5979C9.78312 13.2907 13.3564 16.6763 17.3059 11.5979" stroke="white" stroke-width="1.5" stroke-linecap="round"/>
<path fill-rule="evenodd" clip-rule="evenodd" d="M6.88353 20.7725C7.22204 20.7725 7.49737 21.048 7.49737 21.3869C7.49737 21.7268 7.22204 22.0024 6.88353 22.0024C6.54388 22.0024 6.26855 21.7268 6.26855 21.3869C6.26855 21.048 6.54388 20.7725 6.88353 20.7725Z" fill="black" stroke="black" stroke-width="1.5" stroke-linecap="round" stroke-linejoin="round"/>
<path fill-rule="evenodd" clip-rule="evenodd" d="M18.5418 20.7725C18.8815 20.7725 19.1568 21.048 19.1568 21.3869C19.1568 21.7268 18.8815 22.0024 18.5418 22.0024C18.2033 22.0024 17.928 21.7268 17.928 21.3869C17.928 21.048 18.2033 20.7725 18.5418 20.7725Z" fill="black" stroke="black" stroke-width="1.5" stroke-linecap="round" stroke-linejoin="round"/>
</svg>
