<svg width="24" height="24" viewBox="0 0 24 24" fill="none" xmlns="http://www.w3.org/2000/svg">
<path d="M7.75 7V10M21 17.3846L20.4413 13.9083C20.0798 11.6592 18.0727 10 15.7134 10H8.24031C5.85806 10 3.83874 11.6907 3.50354 13.966L3 17.3846M21 17.3846H3M21 17.3846V19C21 20.6569 19.6569 22 18 22H6C4.34315 22 3 20.6569 3 19V17.3846M6 7H11C12.1046 7 13 6.10457 13 5C13 3.89543 12.1046 3 11 3H6C4.89543 3 4 3.89543 4 5C4 6.10457 4.89543 7 6 7Z" stroke="currentColor" stroke-width="1.5"/>
<path d="M13.4955 12.5H13.5045" stroke="currentColor" stroke-width="1.5" stroke-linecap="round" stroke-linejoin="round"/>
<path d="M16.4955 12.5H16.5045" stroke="currentColor" stroke-width="1.5" stroke-linecap="round" stroke-linejoin="round"/>
<path d="M10.4955 12.5H10.5045" stroke="currentColor" stroke-width="1.5" stroke-linecap="round" stroke-linejoin="round"/>
<path d="M12 15H12.009" stroke="currentColor" stroke-width="1.5" stroke-linecap="round" stroke-linejoin="round"/>
<path d="M9 15H9.009" stroke="currentColor" stroke-width="1.5" stroke-linecap="round" stroke-linejoin="round"/>
<path d="M15 15H15.009" stroke="currentColor" stroke-width="1.5" stroke-linecap="round" stroke-linejoin="round"/>
<path d="M7.4955 12.5H7.5045" stroke="currentColor" stroke-width="1.5" stroke-linecap="round" stroke-linejoin="round"/>
</svg>
