<svg width="24" height="24" viewBox="0 0 24 24" fill="none" xmlns="http://www.w3.org/2000/svg">
<path d="M17.3834 7.21969C17.155 6.91374 16.9018 6.6204 16.6238 6.34238C13.5034 3.22168 8.43383 3.22168 5.31346 6.34319C2.8691 8.78702 2.34019 12.4077 3.71068 15.3693C3.88671 15.8074 4.02336 16.1595 4.02336 16.5004C4.02336 17.4554 3.1022 18.6379 3.71631 19.2521C4.33041 19.8655 5.512 18.945 6.46129 18.9394C6.80211 18.9394 7.1606 19.0817 7.59787 19.2577C8.46114 19.6569 9.38026 19.895 10.3099 19.9713" stroke="currentColor" stroke-width="1.5" stroke-linecap="round" stroke-linejoin="round"/>
<path fill-rule="evenodd" clip-rule="evenodd" d="M12.6616 18.5622C14.1598 20.0605 16.3782 20.3842 18.1936 19.5446C18.4616 19.4367 18.6814 19.3495 18.8903 19.3495C19.4721 19.353 20.1963 19.9171 20.5727 19.5412C20.9491 19.1648 20.3845 18.44 20.3845 17.8547C20.3845 17.6457 20.4682 17.4299 20.5761 17.1614C21.4161 15.3463 21.0919 13.1271 19.5938 11.6293C17.6813 9.7161 14.5741 9.7161 12.6616 11.6288C10.7457 13.5449 10.7492 16.6495 12.6616 18.5622Z" stroke="currentColor" stroke-width="1.5" stroke-linecap="round" stroke-linejoin="round"/>
</svg>
