<svg width="24" height="24" viewBox="0 0 24 24" fill="none" xmlns="http://www.w3.org/2000/svg">
<path d="M14.755 20.0708L15.4604 12.662" stroke="currentColor" stroke-width="1.5" stroke-linecap="round"/>
<line x1="9.76586" y1="4.07162" x2="8.24248" y2="20.0708" stroke="currentColor" stroke-width="1.5" stroke-linecap="round"/>
<path d="M5.16406 8.3877H11.9093" stroke="currentColor" stroke-width="1.5" stroke-linecap="round"/>
<line x1="4.64453" y1="15.0986" x2="18.8363" y2="15.0986" stroke="currentColor" stroke-width="1.5" stroke-linecap="round"/>
<path fill-rule="evenodd" clip-rule="evenodd" d="M13.7886 7.06376C13.7886 5.05987 15.39 3.25409 17.6001 3.25409C19.7608 3.25409 21.3965 5.02559 21.3965 7.05233C21.3965 9.4029 19.4793 10.862 17.5925 10.862C16.9687 10.862 16.2764 10.6944 15.721 10.3667C15.527 10.2486 15.3634 10.161 15.1542 10.2296L14.3858 10.4582C14.1918 10.5191 14.0168 10.3667 14.0739 10.161L14.3287 9.30765C14.3706 9.18955 14.363 9.06384 14.3021 8.96478C13.975 8.36286 13.7886 7.70378 13.7886 7.06376ZM16.5301 7.55452C16.2638 7.55452 16.0432 7.33356 16.0432 7.06689C16.0432 6.7964 16.26 6.57925 16.5301 6.57925C16.8002 6.57925 17.017 6.7964 17.017 7.06689C17.017 7.33356 16.8002 7.55071 16.5301 7.55452ZM18.6549 7.55457C18.3848 7.55076 18.168 7.33361 18.168 7.06312C18.168 6.79645 18.3886 6.57549 18.6549 6.5793C18.925 6.5793 19.1418 6.79645 19.1418 7.06693C19.1418 7.33361 18.925 7.55457 18.6549 7.55457Z" fill="currentColor"/>
</svg>
