<svg width="24" height="24" viewBox="0 0 24 24" fill="none" xmlns="http://www.w3.org/2000/svg">
<path d="M5.33388 7.85401C5.00535 7.85486 4.67991 7.79103 4.37639 7.66621C4.07287 7.54139 3.79729 7.35805 3.5656 7.1268L2.27898 5.99008C2.11389 5.84395 2.01403 5.63869 2.00137 5.41946C1.98871 5.20023 2.06429 4.98499 2.21148 4.82109C2.35867 4.65719 2.56541 4.55804 2.78623 4.54548C3.00705 4.53291 3.22385 4.60795 3.38894 4.75408L4.70973 5.92389C4.78534 6.00819 4.87753 6.07624 4.98062 6.12385C5.08371 6.17145 5.19552 6.19761 5.30918 6.20071C5.42283 6.20381 5.53592 6.18378 5.64149 6.14187C5.74705 6.09996 5.84287 6.03704 5.92303 5.95699L8.92626 3.11848C9.08775 2.97575 9.2988 2.90092 9.51483 2.9098C9.73086 2.91868 9.93495 3.01057 10.084 3.16607C10.2331 3.32157 10.3154 3.52849 10.3136 3.74315C10.3119 3.9578 10.2261 4.16337 10.0746 4.31643L7.08382 7.14087C6.85364 7.36806 6.58061 7.54798 6.28034 7.67035C5.98007 7.79272 5.65846 7.85512 5.33388 7.85401ZM22 6.19939C22 5.97997 21.9122 5.76954 21.7559 5.61439C21.5997 5.45924 21.3877 5.37208 21.1667 5.37208H12.8336C12.6126 5.37208 12.4007 5.45924 12.2444 5.61439C12.0881 5.76954 12.0003 5.97997 12.0003 6.19939C12.0003 6.4188 12.0881 6.62923 12.2444 6.78438C12.4007 6.93953 12.6126 7.0267 12.8336 7.0267H21.1667C21.3877 7.0267 21.5997 6.93953 21.7559 6.78438C21.9122 6.62923 22 6.4188 22 6.19939ZM7.08382 13.7593L10.0746 10.9349C10.158 10.8611 10.2257 10.7714 10.2735 10.6712C10.3214 10.5709 10.3484 10.4621 10.353 10.3512C10.3577 10.2404 10.3398 10.1297 10.3005 10.0258C10.2611 9.92198 10.2011 9.82704 10.1241 9.74667C10.0471 9.66629 9.95451 9.60212 9.85198 9.55798C9.74944 9.51383 9.63901 9.49062 9.52725 9.48971C9.4155 9.48881 9.3047 9.51023 9.20145 9.55271C9.0982 9.59518 9.00462 9.65785 8.92626 9.73697L5.92636 12.5755C5.76772 12.7261 5.5567 12.8101 5.33721 12.8101C5.11773 12.8101 4.9067 12.7261 4.74806 12.5755L3.42311 11.2642C3.26594 11.1135 3.05545 11.0301 2.83696 11.032C2.61847 11.0339 2.40946 11.1209 2.25496 11.2743C2.10046 11.4276 2.01282 11.6351 2.01092 11.8521C2.00903 12.069 2.09302 12.278 2.24481 12.434L3.5656 13.7453C4.03198 14.2084 4.66383 14.4698 5.32346 14.4724C5.98309 14.475 6.61704 14.2187 7.08715 13.7593H7.08382ZM22 12.8179C22 12.5985 21.9122 12.388 21.7559 12.2329C21.5997 12.0777 21.3877 11.9906 21.1667 11.9906H12.8336C12.6126 11.9906 12.4007 12.0777 12.2444 12.2329C12.0881 12.388 12.0003 12.5985 12.0003 12.8179C12.0003 13.0373 12.0881 13.2477 12.2444 13.4029C12.4007 13.558 12.6126 13.6452 12.8336 13.6452H21.1667C21.3877 13.6452 21.5997 13.558 21.7559 13.4029C21.9122 13.2477 22 13.0373 22 12.8179ZM7.08382 20.3778L10.0712 17.5534C10.1547 17.4796 10.2224 17.3899 10.2702 17.2896C10.3181 17.1894 10.3451 17.0806 10.3497 16.9697C10.3543 16.8588 10.3365 16.7482 10.2971 16.6443C10.2578 16.5405 10.1978 16.4455 10.1208 16.3651C10.0437 16.2848 9.95118 16.2206 9.84864 16.1765C9.74611 16.1323 9.63568 16.1091 9.52392 16.1082C9.41216 16.1073 9.30136 16.1287 9.19812 16.1712C9.09487 16.2137 9.00128 16.2763 8.92293 16.3554L5.92303 19.1939C5.84287 19.274 5.74705 19.3369 5.64149 19.3788C5.53592 19.4207 5.42283 19.4408 5.30918 19.4377C5.19552 19.4346 5.08371 19.4084 4.98062 19.3608C4.87753 19.3132 4.78534 19.2452 4.70973 19.1609L3.38894 17.991C3.22385 17.8449 3.00705 17.7699 2.78623 17.7824C2.56541 17.795 2.35867 17.8941 2.21148 18.0581C2.06429 18.222 1.98871 18.4372 2.00137 18.6564C2.01403 18.8757 2.11389 19.0809 2.27898 19.227L3.5656 20.3638C4.03198 20.8269 4.66383 21.0883 5.32346 21.0909C5.98309 21.0935 6.61704 20.8372 7.08715 20.3778H7.08382ZM22 19.4363C22 19.2169 21.9122 19.0065 21.7559 18.8514C21.5997 18.6962 21.3877 18.609 21.1667 18.609H12.8336C12.6126 18.609 12.4007 18.6962 12.2444 18.8514C12.0881 19.0065 12.0003 19.2169 12.0003 19.4363C12.0003 19.6558 12.0881 19.8662 12.2444 20.0213C12.4007 20.1765 12.6126 20.2637 12.8336 20.2637H21.1667C21.3877 20.2637 21.5997 20.1765 21.7559 20.0213C21.9122 19.8662 22 19.6558 22 19.4363Z" fill="currentColor"/>
</svg>
