<svg width="33" height="32" viewBox="0 0 33 32" fill="none" xmlns="http://www.w3.org/2000/svg">
<path d="M16.5007 2.00248C16.5007 2.00248 24.7529 1.63348 29.128 9.89855H15.7985C15.7985 9.89855 13.283 9.81777 11.1342 12.8586C10.5169 14.1349 9.85338 15.4496 10.598 18.0407C9.52535 16.23 4.9035 8.211 4.9035 8.211C4.9035 8.211 8.1635 2.32923 16.5006 2.00248H16.5007Z" fill="#EF3F36"/>
<path d="M28.6996 22.9806C28.6996 22.9806 24.8917 30.2884 15.5246 29.9271C16.682 27.9319 22.1911 18.4252 22.1911 18.4252C22.1911 18.4252 23.5222 16.2955 21.952 12.9203C21.1533 11.7478 20.3392 10.5215 17.7159 9.86787C19.8263 9.84876 29.1047 9.86787 29.1047 9.86787C29.1047 9.86787 32.5807 15.6228 28.6996 22.9806Z" fill="#FCD900"/>
<path d="M4.35937 23.0458C4.35937 23.0458 -0.0889311 16.1069 4.91101 8.20312C6.06459 10.1983 11.5738 19.7051 11.5738 19.7051C11.5738 19.7051 12.7621 21.9194 16.4773 22.2499C17.8933 22.1462 19.367 22.0578 21.2498 20.1241C20.2118 21.954 15.5551 29.95 15.5551 29.95C15.5551 29.95 8.8114 30.0731 4.35926 23.0458H4.35937Z" fill="#61BC5B"/>
<path d="M15.5208 30.0013L17.3957 22.2053C17.3957 22.2053 19.4559 22.0437 21.1844 20.1562C20.1118 22.0362 15.5208 30.0013 15.5208 30.0013Z" fill="#5AB055"/>
<path d="M10.2198 16.0909C10.2198 12.6543 13.017 9.86719 16.4659 9.86719C19.9149 9.86719 22.712 12.6543 22.712 16.0909C22.712 19.5277 19.9149 22.3147 16.4659 22.3147C13.017 22.3108 10.2198 19.5277 10.2198 16.0909Z" fill="white"/>
<path d="M11.2653 16.0883C11.2653 13.2282 13.5918 10.9062 16.466 10.9062C19.3363 10.9062 21.6666 13.2244 21.6666 16.0883C21.6666 18.9484 19.3403 21.2704 16.466 21.2704C13.5956 21.2704 11.2653 18.9484 11.2653 16.0883Z" fill="url(#paint0_linear_3379_122521)"/>
<path d="M29.1008 9.87233L21.381 12.1289C21.381 12.1289 20.2159 10.4258 17.7121 9.87233C19.8841 9.86076 29.1008 9.87233 29.1008 9.87233Z" fill="#EACA05"/>
<path d="M10.4475 17.7563C9.36331 15.8841 4.9035 8.21094 4.9035 8.21094L10.6211 13.8466C10.6211 13.8466 10.0346 15.0499 10.2546 16.7721L10.4474 17.7563H10.4475Z" fill="#DF3A32"/>
<defs>
<linearGradient id="paint0_linear_3379_122521" x1="16.4657" y1="10.9794" x2="16.4657" y2="20.9584" gradientUnits="userSpaceOnUse">
<stop stop-color="#86BBE5"/>
<stop offset="1" stop-color="#1072BA"/>
</linearGradient>
</defs>
</svg>
