<svg width="24" height="24" viewBox="0 0 24 24" fill="none" xmlns="http://www.w3.org/2000/svg">
<path d="M14.3496 20.0707L15.1113 12.071" stroke="currentColor" stroke-width="1.5" stroke-linecap="round"/>
<line x1="9.36108" y1="4.07138" x2="7.83769" y2="20.0706" stroke="currentColor" stroke-width="1.5" stroke-linecap="round"/>
<path d="M4.75879 8.38745H11.2543" stroke="currentColor" stroke-width="1.5" stroke-linecap="round"/>
<line x1="4.23926" y1="15.0984" x2="18.431" y2="15.0984" stroke="currentColor" stroke-width="1.5" stroke-linecap="round"/>
<path d="M15.5465 7.98761C17.0877 7.98761 18.4036 8.23194 18.4036 9.20965C18.4036 10.187 17.0961 10.4402 15.5465 10.4402C14.0054 10.4402 12.6895 10.1959 12.6895 9.21855C12.6895 8.24084 13.9969 7.98761 15.5465 7.98761ZM18.0106 7.39888C18.5998 7.38796 19.2332 7.46886 19.4673 7.52631C19.9632 7.62379 20.2894 7.82281 20.4245 8.11204C20.5387 8.34949 20.5387 8.62497 20.4245 8.86201C20.2178 9.31062 19.5514 9.45463 19.2924 9.49184C19.2389 9.49993 19.1958 9.45341 19.2015 9.39961C19.3338 8.15654 18.2813 7.56716 18.009 7.43165C17.9973 7.42558 17.9949 7.41628 17.9961 7.41061C17.9969 7.40657 18.0018 7.4001 18.0106 7.39888ZM15.5465 3.25366C16.5958 3.25366 17.4372 4.0991 17.4372 5.15488C17.4372 6.21026 16.5958 7.0565 15.5465 7.0565C14.4972 7.0565 13.6559 6.21026 13.6559 5.15488C13.6559 4.0991 14.4972 3.25366 15.5465 3.25366ZM18.1132 3.57072C19.1267 3.57072 19.9226 4.52982 19.6515 5.59815C19.4685 6.31737 18.8061 6.79511 18.0681 6.77569C17.9941 6.77367 17.9213 6.76679 17.851 6.75465C17.7999 6.74575 17.7741 6.68791 17.8031 6.64503C18.0846 6.22838 18.2451 5.72719 18.2451 5.18918C18.2451 4.62772 18.0697 4.10428 17.7653 3.67509C17.7556 3.66174 17.7484 3.64111 17.758 3.62573C17.7661 3.61319 17.781 3.60672 17.7951 3.60349C17.8976 3.58245 18.003 3.57072 18.1132 3.57072Z" fill="currentColor"/>
</svg>
