<svg width="24" height="24" viewBox="0 0 24 24" fill="none" xmlns="http://www.w3.org/2000/svg">
<path d="M19.2597 9.86228C18.8611 5.01855 16.6207 3.34766 11.0377 3.34766C4.82238 3.34766 2.75 5.41915 2.75 11.6354C2.75 17.169 4.3922 19.4182 9.13721 19.8455" stroke="currentColor" stroke-width="1.34048" stroke-linecap="round" stroke-linejoin="round"/>
<path d="M2.99512 8.55083H19.088" stroke="currentColor" stroke-width="1.34048" stroke-linecap="round" stroke-linejoin="round"/>
<path d="M7.10296 12.0689H7.111" stroke="currentColor" stroke-width="1.34048" stroke-linecap="round" stroke-linejoin="round"/>
<path d="M7.10296 15.5118H7.111" stroke="currentColor" stroke-width="1.34048" stroke-linecap="round" stroke-linejoin="round"/>
<path d="M14.6202 2.05029V4.96539" stroke="currentColor" stroke-width="1.34048" stroke-linecap="round" stroke-linejoin="round"/>
<path d="M7.46343 2.05029V4.96539" stroke="currentColor" stroke-width="1.34048" stroke-linecap="round" stroke-linejoin="round"/>
<path fill-rule="evenodd" clip-rule="evenodd" d="M21.6529 16.7654C21.6529 19.6561 19.3095 22.0001 16.4182 22.0001C13.5276 22.0001 11.1836 19.6561 11.1836 16.7654C11.1836 13.8742 13.5276 11.5308 16.4182 11.5308C19.3095 11.5308 21.6529 13.8742 21.6529 16.7654Z" stroke="currentColor" stroke-width="1.5" stroke-linecap="round" stroke-linejoin="round"/>
<path d="M18.7887 17.1994L16.2251 17.1575V14.4146" stroke="currentColor" stroke-width="1.5" stroke-linecap="round" stroke-linejoin="round"/>
</svg>
