<svg width="24" height="24" viewBox="0 0 24 24" fill="none" xmlns="http://www.w3.org/2000/svg">
<path d="M18.25 8.68279L18.2644 11.1309C18.2844 14.511 15.5023 17.2353 12.0505 17.2158M18.25 8.68279L19.5 8.68986M18.25 8.68279H15.5M5.75 8.6121L5.76444 11.0602C5.77051 12.0902 6.03604 13.0622 6.5 13.9164M5.75 8.6121L4.5 8.60503M5.75 8.6121L12.0505 8.64773M12.0505 17.2158L12.0758 21.5M12.0505 17.2158C10.632 17.2078 9.32105 16.7376 8.26751 15.9519M8.50916 6.17216L8.48751 2.5M15.7353 2.56976L15.751 5.22854" stroke="currentColor" stroke-width="1.5" stroke-linecap="round"/>
<path d="M2.75 21.25L21.25 2.75" stroke="currentColor" stroke-width="1.5" stroke-linecap="round" stroke-linejoin="round"/>
</svg>
