<svg width="32" height="32" viewBox="0 0 32 32" fill="none" xmlns="http://www.w3.org/2000/svg">
<rect x="1" y="1" width="30" height="30" rx="15" fill="#303030"/>
<path d="M9.33268 17.6663C10.2532 17.6663 10.9993 16.9201 10.9993 15.9997C10.9993 15.0792 10.2532 14.333 9.33268 14.333C8.41221 14.333 7.66602 15.0792 7.66602 15.9997C7.66602 16.9201 8.41221 17.6663 9.33268 17.6663Z" fill="white"/>
<path d="M16.0007 17.6663C16.9211 17.6663 17.6673 16.9201 17.6673 15.9997C17.6673 15.0792 16.9211 14.333 16.0007 14.333C15.0802 14.333 14.334 15.0792 14.334 15.9997C14.334 16.9201 15.0802 17.6663 16.0007 17.6663Z" fill="white"/>
<path d="M22.6667 17.6663C23.5872 17.6663 24.3334 16.9201 24.3334 15.9997C24.3334 15.0792 23.5872 14.333 22.6667 14.333C21.7462 14.333 21 15.0792 21 15.9997C21 16.9201 21.7462 17.6663 22.6667 17.6663Z" fill="white"/>
<rect x="1" y="1" width="30" height="30" rx="15" stroke="#171717" stroke-width="2"/>
</svg>
