<svg width="32" height="32" viewBox="0 0 32 32" fill="none" xmlns="http://www.w3.org/2000/svg">
<rect x="1" y="1" width="30" height="30" rx="15" fill="#F5F5F5"/>
<path d="M9.33366 17.6663C10.2541 17.6663 11.0003 16.9201 11.0003 15.9997C11.0003 15.0792 10.2541 14.333 9.33366 14.333C8.41318 14.333 7.66699 15.0792 7.66699 15.9997C7.66699 16.9201 8.41318 17.6663 9.33366 17.6663Z" fill="black"/>
<path d="M15.9997 17.6663C16.9201 17.6663 17.6663 16.9201 17.6663 15.9997C17.6663 15.0792 16.9201 14.333 15.9997 14.333C15.0792 14.333 14.333 15.0792 14.333 15.9997C14.333 16.9201 15.0792 17.6663 15.9997 17.6663Z" fill="black"/>
<path d="M22.6667 17.6663C23.5872 17.6663 24.3334 16.9201 24.3334 15.9997C24.3334 15.0792 23.5872 14.333 22.6667 14.333C21.7462 14.333 21 15.0792 21 15.9997C21 16.9201 21.7462 17.6663 22.6667 17.6663Z" fill="black"/>
<rect x="1" y="1" width="30" height="30" rx="15" stroke="white" stroke-width="2"/>
</svg>
