<svg width="24" height="24" viewBox="0 0 24 24" fill="none" xmlns="http://www.w3.org/2000/svg">
<path fill-rule="evenodd" clip-rule="evenodd" d="M2.45215 11.9688C2.45215 5.13075 4.8331 2.85205 11.976 2.85205C19.1188 2.85205 21.4998 5.13075 21.4998 11.9688C21.4998 18.8059 19.1188 21.0856 11.976 21.0856C4.8331 21.0856 2.45215 18.8059 2.45215 11.9688ZM16.9696 8.53881C17.2347 8.22073 17.7075 8.17775 18.0257 8.44286C18.344 8.70801 18.387 9.18093 18.1218 9.49916L17.5456 9.01906C18.1218 9.49916 18.1218 9.49916 18.1218 9.49916L18.1181 9.50359L18.1098 9.51353L18.0795 9.54923C18.0534 9.57982 18.0156 9.62373 17.9671 9.67904C17.8701 9.7896 17.7302 9.94607 17.5553 10.1332C17.2063 10.5065 16.7138 11.0064 16.1422 11.5087C15.5733 12.0087 14.9099 12.5253 14.2192 12.9207C13.5404 13.3091 12.7646 13.6217 11.9877 13.6217C11.2116 13.6217 10.434 13.3094 9.75265 12.9215C9.0591 12.5266 8.39155 12.0104 7.81834 11.5107C7.24246 11.0087 6.74552 10.509 6.39327 10.1359C6.2167 9.94887 6.07538 9.79249 5.97748 9.682C5.9285 9.62672 5.89032 9.58286 5.86395 9.5523L5.83336 9.51664L5.82493 9.50673L5.82247 9.50382L5.82169 9.5029C5.82169 9.5029 5.8212 9.50232 6.39475 9.01906L5.82169 9.5029C5.55479 9.18613 5.59473 8.71241 5.91149 8.44551C6.2282 8.17867 6.70122 8.21902 6.96815 8.53562L6.9693 8.53698L6.97492 8.54358L6.99961 8.57236C7.02194 8.59823 7.05579 8.63714 7.10016 8.68721C7.18894 8.78741 7.31956 8.93201 7.48398 9.10617C7.81372 9.45543 8.27499 9.91888 8.804 10.38C9.33568 10.8435 9.91969 11.2905 10.4948 11.618C11.0822 11.9524 11.5905 12.1217 11.9877 12.1217C12.3848 12.1217 12.8907 11.9527 13.4741 11.6188C14.0456 11.2917 14.625 10.8452 15.152 10.382C15.6765 9.92115 16.1332 9.45796 16.4595 9.10888C16.6222 8.93481 16.7514 8.7903 16.8392 8.69017C16.883 8.64014 16.9165 8.60127 16.9385 8.57543L16.9629 8.5467L16.9685 8.54012L16.9696 8.53881Z" fill="white"/>
</svg>
