<svg width="24" height="24" viewBox="0 0 24 24" fill="none" xmlns="http://www.w3.org/2000/svg">
<path d="M12 1.5C6.20096 1.5 1.5 6.20096 1.5 12C1.5 17.799 6.20096 22.5 12 22.5C17.799 22.5 22.5 17.799 22.5 12C22.5 6.20096 17.799 1.5 12 1.5Z" fill="#95A8C5"/>
<path d="M18.226 8.87501L13.8417 12.7928C13.3528 13.2285 12.6905 13.4732 12 13.4732C11.3095 13.4732 10.6472 13.2285 10.1583 12.7928L5.77396 8.87501C5.76667 8.94855 5.75 9.0151 5.75 9.08817V14.673C5.75083 15.2899 6.02546 15.8814 6.51366 16.3176C7.00185 16.7539 7.66375 16.9993 8.35417 17H15.6458C16.3362 16.9993 16.9981 16.7539 17.4863 16.3176C17.9745 15.8814 18.2492 15.2899 18.25 14.673V9.08817C18.25 9.0151 18.2333 8.94855 18.226 8.87501Z" fill="white"/>
<path d="M13.0604 12.2281L17.625 8.09173C17.4039 7.75952 17.092 7.48453 16.7195 7.29331C16.3469 7.10208 15.9263 7.00107 15.4981 7.00001H8.50187C8.0737 7.00107 7.65307 7.10208 7.28053 7.29331C6.90799 7.48453 6.59612 7.75952 6.375 8.09173L10.9396 12.2281C11.2212 12.4823 11.6025 12.625 12 12.625C12.3975 12.625 12.7788 12.4823 13.0604 12.2281V12.2281Z" fill="white"/>
</svg>
