<svg width="24" height="24" viewBox="0 0 24 24" fill="none" xmlns="http://www.w3.org/2000/svg">
<path d="M9.89453 18.7891C9.89453 18.2368 10.3422 17.7891 10.8945 17.7891H13.1051C13.6573 17.7891 14.1051 18.2368 14.1051 18.7891V21.4733H9.89453V18.7891Z" stroke="currentColor" stroke-width="1.5"/>
<path d="M6.21402 8.8418H4.5791C4.02682 8.8418 3.5791 9.28951 3.5791 9.8418V21.4734H20.4212V9.8418C20.4212 9.28951 19.9735 8.8418 19.4212 8.8418H17.7915" stroke="currentColor" stroke-width="1.5"/>
<path d="M6.21094 3.52637C6.21094 2.97408 6.65865 2.52637 7.21094 2.52637H16.7899C17.3422 2.52637 17.7899 2.97408 17.7899 3.52637V21.4737H6.21094V3.52637Z" stroke="currentColor" stroke-width="1.5"/>
<path d="M10.1227 6.96755H10.1268" stroke="currentColor" stroke-width="1.5" stroke-linecap="round" stroke-linejoin="round"/>
<path d="M13.8073 6.96755H13.8114" stroke="currentColor" stroke-width="1.5" stroke-linecap="round" stroke-linejoin="round"/>
<path d="M13.8073 10.6511H13.8114" stroke="currentColor" stroke-width="1.5" stroke-linecap="round" stroke-linejoin="round"/>
<path d="M10.1227 10.6511H10.1268" stroke="currentColor" stroke-width="1.5" stroke-linecap="round" stroke-linejoin="round"/>
<path d="M13.8073 13.8093H13.8114" stroke="currentColor" stroke-width="1.5" stroke-linecap="round" stroke-linejoin="round"/>
<path d="M10.1227 13.8093H10.1268" stroke="currentColor" stroke-width="1.5" stroke-linecap="round" stroke-linejoin="round"/>
<path d="M2 21.4727L22 21.4727" stroke="currentColor" stroke-width="1.5" stroke-linecap="round"/>
</svg>
