<svg width="24" height="24" viewBox="0 0 24 24" fill="none" xmlns="http://www.w3.org/2000/svg">
<path d="M21.8585 9.92857C20.5018 7.90128 17.416 4.5 12 4.5C6.58401 4.5 3.49815 7.90128 2.14153 9.92857C1.72214 10.551 1.5 11.2683 1.5 12C1.5 12.7317 1.72214 13.449 2.14153 14.0714C3.49815 16.0987 6.58401 19.5 12 19.5C17.416 19.5 20.5018 16.0987 21.8585 14.0714C22.2779 13.449 22.5 12.7317 22.5 12C22.5 11.2683 22.2779 10.551 21.8585 9.92857V9.92857ZM20.3671 13.2311C19.2021 14.9695 16.5649 17.8949 12 17.8949C7.43507 17.8949 4.79792 14.9695 3.63285 13.2311C3.38369 12.8612 3.25171 12.4349 3.25171 12C3.25171 11.5651 3.38369 11.1388 3.63285 10.7689C4.79792 9.0305 7.43507 6.10514 12 6.10514C16.5649 6.10514 19.2021 9.02729 20.3671 10.7689C20.6163 11.1388 20.7483 11.5651 20.7483 12C20.7483 12.4349 20.6163 12.8612 20.3671 13.2311V13.2311Z" fill="currentColor"/>
<path d="M12 8.25C11.1693 8.25 10.3573 8.46993 9.66661 8.88199C8.97592 9.29404 8.4376 9.87971 8.11971 10.5649C7.80182 11.2502 7.71865 12.0042 7.88071 12.7316C8.04276 13.459 8.44278 14.1272 9.03016 14.6516C9.61754 15.1761 10.3659 15.5332 11.1806 15.6779C11.9953 15.8226 12.8398 15.7484 13.6073 15.4645C14.3747 15.1807 15.0307 14.7001 15.4922 14.0834C15.9537 13.4667 16.2 12.7417 16.2 12C16.1987 11.0058 15.7557 10.0527 14.9684 9.34966C14.181 8.64666 13.1135 8.25119 12 8.25V8.25ZM12 14.25C11.5016 14.25 11.0144 14.118 10.6 13.8708C10.1856 13.6236 9.86256 13.2722 9.67183 12.861C9.48109 12.4499 9.43119 11.9975 9.52843 11.561C9.62566 11.1246 9.86567 10.7237 10.2181 10.409C10.5705 10.0943 11.0195 9.88005 11.5084 9.79323C11.9972 9.70642 12.5039 9.75097 12.9644 9.92127C13.4248 10.0916 13.8184 10.38 14.0953 10.75C14.3722 11.12 14.52 11.555 14.52 12C14.52 12.5967 14.2545 13.169 13.7819 13.591C13.3093 14.0129 12.6683 14.25 12 14.25Z" fill="currentColor"/>
</svg>
