<svg width="27" height="32" viewBox="0 0 27 32" fill="none" xmlns="http://www.w3.org/2000/svg">
<path fill-rule="evenodd" clip-rule="evenodd" d="M17.8583 1.01567H7.16427C3.82087 1.0026 1.08025 3.71112 1.00149 7.10737V24.6082C0.927547 28.06 3.61995 30.9204 7.01639 30.9972C7.06622 30.9972 7.11444 30.9988 7.16427 30.9972H20.0058C23.3717 30.8583 26.0239 28.0322 25.9998 24.6082V9.63456L17.8583 1.01567Z" stroke="#0075FF" stroke-width="1.68439" stroke-linecap="round" stroke-linejoin="round"/>
<path d="M17.436 1V5.75215C17.436 8.07186 19.2813 9.95214 21.5638 9.95867H25.9922" stroke="#0075FF" stroke-width="1.68439" stroke-linecap="round" stroke-linejoin="round"/>
<path d="M11.6228 23.7661L13.2186 18.3916C13.2876 18.1593 13.501 18 13.7433 18C14.0816 18 14.3389 18.3037 14.2833 18.6374L14.1019 19.7257L12.5915 24.7002C12.4636 25.1216 12.0751 25.4097 11.6347 25.4097H11.4311L11.6228 23.7661ZM9.82044 18C10.2862 18 10.6903 18.3215 10.7949 18.7754L11.9516 23.7935L12.0611 25.4097H11.7717C11.3201 25.4097 10.9245 25.107 10.8065 24.6711L9 18H9.82044ZM15.992 23.725L17.11 18.7795C17.2131 18.3237 17.6181 18 18.0854 18H18.8956L17.0955 24.6702C16.9777 25.1066 16.5819 25.4097 16.13 25.4097H15.8413L15.992 23.725ZM14.1513 18C14.3982 18 14.6157 18.1623 14.686 18.3991L16.259 23.6977L16.4713 25.4097H16.2654C15.8262 25.4097 15.4383 25.123 15.3094 24.7031L13.78 19.7189L13.6011 18.6499C13.5442 18.3098 13.8064 18 14.1513 18Z" fill="#0075FF"/>
</svg>
