<svg width="27" height="32" viewBox="0 0 27 32" fill="none" xmlns="http://www.w3.org/2000/svg">
<path d="M12.233 14.4266L12.2323 14.4278C12.0134 14.8199 11.958 15.389 12.0312 16.0361C12.1035 16.6759 12.3033 17.4074 12.6149 18.1522C12.2711 19.2252 11.7096 20.7941 11.0459 22.0234C10.5784 22.2088 9.85874 22.5354 9.22687 22.9501C8.90221 23.1632 8.59719 23.4018 8.36113 23.6592C8.12628 23.9152 7.9526 24.1976 7.9041 24.4986C7.84091 24.8323 7.96383 25.2342 8.22774 25.4458C8.48753 25.7134 8.80968 25.7764 9.11167 25.7764C9.76593 25.7764 10.3992 25.3071 10.9646 24.6719C11.5257 24.0414 12.0424 23.2218 12.4728 22.4461C13.1542 22.2095 14.191 21.8685 15.2382 21.69C16.5088 22.8838 17.6738 23.062 18.2698 23.062C18.6907 23.062 18.9887 22.9677 19.1985 22.8237C19.4057 22.6815 19.5172 22.4974 19.5781 22.3315C19.666 22.1602 19.6747 21.9576 19.6344 21.7706C19.5936 21.5812 19.5001 21.3967 19.3698 21.2599C19.1337 20.9976 18.8018 20.8351 18.4384 20.7368C18.0739 20.6382 17.6695 20.602 17.2795 20.5981C16.6536 20.592 16.049 20.6699 15.6924 20.7158C15.6323 20.7236 15.5792 20.7304 15.5342 20.7358C14.8361 19.9965 14.3222 19.1786 14.0581 18.7584C14.0391 18.7281 14.0213 18.6998 14.0049 18.6738C14.2879 17.7761 14.5139 16.7655 14.5139 15.802C14.5139 15.338 14.4255 14.8652 14.2103 14.5042C13.9916 14.1374 13.6416 13.8877 13.1387 13.8877C12.7488 13.8877 12.4245 14.0931 12.233 14.4266ZM14.4099 20.9454C14.3093 20.9659 14.1777 20.9962 14.0276 21.0342C13.7456 21.1056 13.3948 21.2051 13.0578 21.3192C13.2677 20.862 13.485 20.253 13.6143 19.8684C13.8559 20.2604 14.1768 20.6572 14.3955 20.9276C14.4003 20.9336 14.4051 20.9395 14.4099 20.9454ZM8.67892 24.6947L8.68692 24.678L8.68912 24.6596C8.69991 24.5694 8.75358 24.4574 8.86248 24.3259C8.97021 24.1957 9.12488 24.0549 9.32223 23.9078C9.64615 23.6663 10.0771 23.4134 10.5841 23.1669C10.2575 23.6777 9.94478 24.0988 9.66316 24.4053C9.49377 24.5897 9.33827 24.7297 9.20029 24.8228C9.06049 24.9172 8.94937 24.9562 8.8663 24.9562C8.83676 24.9562 8.80258 24.9559 8.77009 24.9503C8.7481 24.9464 8.73415 24.9413 8.72581 24.9369C8.70107 24.8847 8.68217 24.8418 8.6724 24.801C8.66215 24.7582 8.66411 24.7256 8.67892 24.6947ZM18.2753 21.6024C18.3458 21.676 18.3903 21.7757 18.3689 21.9173C18.3265 22.0834 18.1104 22.3005 17.6411 22.1926C17.1058 22.0397 16.62 21.7997 16.2096 21.4737C16.6802 21.4145 17.434 21.3498 17.9933 21.446C18.0944 21.4731 18.2013 21.525 18.2753 21.6024ZM12.9946 14.7723C13.0318 14.6944 13.1054 14.6552 13.182 14.6552C13.2284 14.6552 13.2604 14.6689 13.2856 14.6901C13.3129 14.713 13.338 14.7497 13.3589 14.8027C13.4011 14.9097 13.4158 15.0564 13.4161 15.2019C13.3681 15.8006 13.2807 16.4308 13.1222 16.9998C12.9703 16.49 12.9002 16.0452 12.8828 15.6826C12.8615 15.2392 12.9196 14.929 12.9946 14.7723Z" fill="#FC5555" stroke="#FC5555" stroke-width="0.224585"/>
<path fill-rule="evenodd" clip-rule="evenodd" d="M17.8583 1.01567H7.16427C3.82087 1.0026 1.08025 3.71112 1.00149 7.10737V24.6082C0.927547 28.06 3.61995 30.9204 7.01639 30.9972C7.06622 30.9972 7.11444 30.9988 7.16427 30.9972H20.0058C23.3717 30.8583 26.0239 28.0322 25.9998 24.6082V9.63456L17.8583 1.01567Z" stroke="#FC5555" stroke-width="1.68439" stroke-linecap="round" stroke-linejoin="round"/>
<path d="M17.436 1V5.75215C17.436 8.07186 19.2813 9.95214 21.5638 9.95867H25.9922" stroke="#FC5555" stroke-width="1.68439" stroke-linecap="round" stroke-linejoin="round"/>
</svg>
