<svg width="27" height="32" viewBox="0 0 27 32" fill="none" xmlns="http://www.w3.org/2000/svg">
<path fill-rule="evenodd" clip-rule="evenodd" d="M17.8583 1.01567H7.16427C3.82087 1.0026 1.08025 3.71112 1.00149 7.10737V24.6082C0.927547 28.06 3.61995 30.9204 7.01639 30.9972C7.06622 30.9972 7.11444 30.9988 7.16427 30.9972H20.0058C23.3717 30.8583 26.0239 28.0322 25.9998 24.6082V9.63456L17.8583 1.01567Z" stroke="#FC7D55" stroke-width="1.68439" stroke-linecap="round" stroke-linejoin="round"/>
<path d="M17.436 1V5.75215C17.436 8.07186 19.2813 9.95214 21.5638 9.95867H25.9922" stroke="#FC7D55" stroke-width="1.68439" stroke-linecap="round" stroke-linejoin="round"/>
<path d="M14.2671 21.6983H11.9601V20.4869H14.2671C14.6689 20.4869 14.9935 20.422 15.2411 20.2921C15.4886 20.1623 15.6692 19.9837 15.7828 19.7564C15.9005 19.5251 15.9594 19.2613 15.9594 18.9651C15.9594 18.6851 15.9005 18.4233 15.7828 18.1799C15.6692 17.9323 15.4886 17.7335 15.2411 17.5833C14.9935 17.4331 14.6689 17.3581 14.2671 17.3581H12.4288V25.0036H10.9009V16.1406H14.2671C14.953 16.1406 15.5353 16.2624 16.0142 16.5059C16.4971 16.7453 16.8643 17.0781 17.116 17.5042C17.3676 17.9262 17.4934 18.4091 17.4934 18.9529C17.4934 19.5251 17.3676 20.0162 17.116 20.426C16.8643 20.8359 16.4971 21.1504 16.0142 21.3696C15.5353 21.5887 14.953 21.6983 14.2671 21.6983Z" fill="#FC7D55"/>
</svg>
