<svg width="24" height="24" viewBox="0 0 24 24" fill="none" xmlns="http://www.w3.org/2000/svg">
<path d="M12.0631 3V10.4064M12.0631 10.4064L15.0814 7.62893M12.0631 10.4064L9.05784 7.62893M15.3271 3.57965C15.3271 3.57965 16.7782 3.58001 18.3659 3.57965C19.9536 3.57929 21 5.22213 21 6.98653V13.4453M8.18226 3.57965C8.18226 3.57965 7.49377 3.57915 5.36114 3.57965C3.22851 3.58015 2.99974 5.39562 3 6.98653C3.00026 8.57744 3 13.4453 3 13.4453M3 13.4453C3 13.4453 3.0013 15.7626 3 17.5633C2.99871 19.364 5.01218 21 6.92502 21H17.1056C18.7123 21 21 19.1295 21 17.5633V13.4453M3 13.4453C3 13.4453 7.24657 13.4525 7.85538 13.4453C8.4642 13.438 10.5291 16.7666 11.7728 16.7666C13.0165 16.7666 14.8592 13.4453 16.0366 13.4453H21" stroke="currentColor" stroke-width="1.5" stroke-linecap="round" stroke-linejoin="round"/>
</svg>
