<svg width="27" height="32" viewBox="0 0 27 32" fill="none" xmlns="http://www.w3.org/2000/svg">
<path fill-rule="evenodd" clip-rule="evenodd" d="M17.8583 1.01567H7.16427C3.82087 1.0026 1.08025 3.71112 1.00149 7.10737V24.6082C0.927547 28.06 3.61995 30.9204 7.01639 30.9972C7.06622 30.9972 7.11444 30.9988 7.16427 30.9972H20.0058C23.3717 30.8583 26.0239 28.0322 25.9998 24.6082V9.63456L17.8583 1.01567Z" stroke="#5B6793" stroke-width="1.68439" stroke-linecap="round" stroke-linejoin="round"/>
<path d="M17.436 1V5.75215C17.436 8.07186 19.2813 9.95214 21.5638 9.95867H25.9922" stroke="#5B6793" stroke-width="1.68439" stroke-linecap="round" stroke-linejoin="round"/>
<path d="M8.25 19.375V18.2462C8.25 15.3538 10.6038 13 13.5038 13C16.4038 13 18.75 15.3538 18.75 18.2462V19.375" stroke="#5B6793" stroke-width="1.5"/>
<path d="M20.1023 21.8556C19.9394 23.336 18.5751 24.4277 17.0246 24.2596L17.0242 24.2595L17.0238 24.2595L17.0234 24.2594L17.023 24.2594L17.0226 24.2594L17.0222 24.2593L17.0218 24.2593L17.0213 24.2592L17.0209 24.2592L17.0205 24.2591L17.0201 24.2591L17.0197 24.259L17.0193 24.259L17.0189 24.259L17.0185 24.2589L17.0181 24.2589L17.0177 24.2588L17.0173 24.2588L17.0169 24.2587L17.0165 24.2587L17.0161 24.2586L17.0156 24.2586L17.0152 24.2586L17.0148 24.2585L17.0144 24.2585L17.014 24.2584L17.0136 24.2584L17.0132 24.2583L17.0128 24.2583L17.0124 24.2583L17.012 24.2582L17.0116 24.2582L17.0112 24.2581L17.0108 24.2581L17.0104 24.258L17.01 24.258L17.0096 24.2579L17.0092 24.2579L17.0088 24.2579L17.0084 24.2578L17.008 24.2578L17.0076 24.2577L17.0072 24.2577L17.0068 24.2576L17.0064 24.2576L17.006 24.2576L17.0056 24.2575L17.0052 24.2575L17.0048 24.2574L17.0044 24.2574L17.004 24.2573L17.0036 24.2573L17.0032 24.2573L17.0028 24.2572L17.0024 24.2572L17.002 24.2571L17.0016 24.2571L17.0012 24.257L17.0008 24.257L17.0004 24.2569L17 24.2569L16.9996 24.2569L16.9992 24.2568L16.9988 24.2568L16.9984 24.2567L16.998 24.2567L16.9976 24.2566L16.9972 24.2566L16.9968 24.2566L16.9964 24.2565L16.996 24.2565L16.9956 24.2564L16.9952 24.2564L16.9948 24.2563L16.9944 24.2563L16.994 24.2563L16.9936 24.2562L16.9932 24.2562L16.9928 24.2561L16.9924 24.2561L16.992 24.256L16.9916 24.256L16.9912 24.256L16.9908 24.2559L16.9904 24.2559L16.99 24.2558L16.9897 24.2558L16.9893 24.2557L16.9889 24.2557L16.9885 24.2557L16.9881 24.2556L16.9877 24.2556L16.9873 24.2555L16.9869 24.2555L16.9865 24.2554L16.9861 24.2554L16.9857 24.2554L16.9853 24.2553L16.9849 24.2553L16.9845 24.2552L16.9841 24.2552L16.9837 24.2551L16.9833 24.2551L16.983 24.2551L16.9826 24.255L16.9822 24.255L16.9818 24.2549L16.9814 24.2549L16.981 24.2548L16.9806 24.2548L16.9802 24.2548L16.9798 24.2547L16.9794 24.2547L16.979 24.2546L16.9786 24.2546L16.9782 24.2545L16.9779 24.2545L16.9775 24.2545L16.9771 24.2544L16.9767 24.2544L16.9763 24.2543L16.9759 24.2543L16.9755 24.2543L16.9751 24.2542L16.9747 24.2542L16.9743 24.2541L16.9739 24.2541L16.9736 24.254L16.9732 24.254L16.9728 24.254L16.9724 24.2539L16.972 24.2539L16.9716 24.2538L16.9712 24.2538L16.9708 24.2537L16.9704 24.2537L16.97 24.2537L16.9697 24.2536L16.9693 24.2536L16.9689 24.2535L16.9685 24.2535L16.9681 24.2534L16.9677 24.2534L16.9673 24.2534L16.9669 24.2533L16.9665 24.2533L16.9662 24.2532L16.9658 24.2532L16.9654 24.2532L16.965 24.2531L16.9646 24.2531L16.9642 24.253L16.9638 24.253L16.9634 24.2529L16.963 24.2529L16.9627 24.2529L16.9623 24.2528L16.9619 24.2528L16.9615 24.2527L16.9611 24.2527L16.9607 24.2526L16.9603 24.2526L16.9599 24.2526L16.9596 24.2525L16.9592 24.2525L16.9588 24.2524L16.9584 24.2524L16.958 24.2524L16.9576 24.2523L16.9572 24.2523L16.9568 24.2522L16.9565 24.2522L16.9561 24.2521L16.9557 24.2521L16.9553 24.2521L16.9549 24.252L16.9545 24.252L16.9541 24.2519L16.9538 24.2519L16.9534 24.2519L16.953 24.2518L16.9526 24.2518L16.9522 24.2517L16.9518 24.2517L16.9514 24.2516L16.9511 24.2516L16.9507 24.2516L16.9503 24.2515L16.9499 24.2515L16.9495 24.2514L16.9491 24.2514L16.9487 24.2514L16.9484 24.2513L16.948 24.2513L16.9476 24.2512L16.9472 24.2512L16.9468 24.2511L16.9464 24.2511L16.946 24.2511L16.9457 24.251L16.9453 24.251L16.9449 24.2509L16.9445 24.2509L16.9441 24.2508L16.9437 24.2508L16.9433 24.2508L16.943 24.2507L16.9426 24.2507L16.9422 24.2506L16.9418 24.2506L16.9414 24.2506L16.941 24.2505L16.9407 24.2505L16.9403 24.2504L16.9399 24.2504L16.9395 24.2503L16.9391 24.2503L16.9387 24.2503L16.9383 24.2502L16.938 24.2502L16.9376 24.2501L16.9372 24.2501L16.9368 24.2501L16.9364 24.25L16.936 24.25L16.9357 24.2499L16.9353 24.2499L16.9349 24.2498L16.9345 24.2498L16.9341 24.2498L16.9337 24.2497L16.9333 24.2497L16.933 24.2496L16.9326 24.2496L16.9322 24.2496L16.9318 24.2495L16.9314 24.2495L16.931 24.2494L16.9307 24.2494L16.9303 24.2493L16.9299 24.2493L16.9295 24.2493L16.9291 24.2492L16.9287 24.2492L16.9284 24.2491L16.928 24.2491L16.9276 24.2491L16.9272 24.249L16.9268 24.249L16.9264 24.2489L16.9261 24.2489L16.9257 24.2488L16.9253 24.2488L16.9249 24.2488L16.9245 24.2487L16.9241 24.2487L16.9237 24.2486L16.9234 24.2486L16.923 24.2486L16.9226 24.2485L16.9222 24.2485L16.9218 24.2484L16.9214 24.2484L16.9211 24.2483L16.9207 24.2483L16.9203 24.2483L16.9199 24.2482L16.9195 24.2482L16.9191 24.2481L16.9188 24.2481L16.9184 24.2481L16.918 24.248L16.9176 24.248L16.9172 24.2479L16.9168 24.2479L16.9165 24.2479L16.9161 24.2478L16.9157 24.2478L16.9153 24.2477L16.9149 24.2477L16.9145 24.2476L16.9141 24.2476L16.9138 24.2476L16.9134 24.2475L16.913 24.2475L16.9126 24.2474L16.9122 24.2474L16.9118 24.2474L16.9115 24.2473L16.9111 24.2473L16.9107 24.2472L16.9103 24.2472L16.9099 24.2471L16.9095 24.2471L16.9091 24.2471L16.9088 24.247L16.9084 24.247L16.908 24.2469L16.9076 24.2469L16.9072 24.2468L16.9068 24.2468L16.9065 24.2468L16.9061 24.2467L16.9057 24.2467L16.9053 24.2466L16.9049 24.2466L16.9045 24.2466L16.9041 24.2465L16.9038 24.2465L16.9034 24.2464L16.903 24.2464L16.9026 24.2463L16.9022 24.2463L16.9018 24.2463L16.9014 24.2462L16.9011 24.2462L16.9007 24.2461L16.9003 24.2461L16.8999 24.2461L16.8995 24.246L16.8991 24.246L16.8988 24.2459L16.8984 24.2459L16.898 24.2458L16.8976 24.2458L16.8972 24.2458L16.8968 24.2457L16.8964 24.2457L16.896 24.2456L16.8957 24.2456L16.8953 24.2456L16.8949 24.2455L16.8945 24.2455L16.8941 24.2454L16.8937 24.2454L16.8933 24.2453L16.893 24.2453L16.8926 24.2453L16.8922 24.2452L16.8918 24.2452L16.8914 24.2451L16.891 24.2451L16.8906 24.2451L16.8903 24.245L16.8899 24.245L16.8895 24.2449L16.8891 24.2449L16.8887 24.2448L16.8883 24.2448L16.8879 24.2448L16.8875 24.2447L16.8872 24.2447L16.8868 24.2446L16.8864 24.2446L16.886 24.2445L16.8856 24.2445L16.8852 24.2445L16.8848 24.2444L16.8844 24.2444L16.8841 24.2443L16.8837 24.2443L16.8833 24.2443L16.8829 24.2442L16.8825 24.2442L16.8821 24.2441L16.8817 24.2441L16.8813 24.244L16.8809 24.244L16.8806 24.244L16.8802 24.2439L16.8798 24.2439L16.8794 24.2438L16.879 24.2438L16.8786 24.2437L16.8782 24.2437L16.8778 24.2437L16.8774 24.2436L16.877 24.2436L16.8767 24.2435L16.8763 24.2435L16.8759 24.2435L16.8755 24.2434L16.8751 24.2434L16.8747 24.2433L16.8743 24.2433L16.8739 24.2432L16.8735 24.2432L16.8731 24.2432L16.8728 24.2431L16.8724 24.2431L16.872 24.243L16.8716 24.243L16.8712 24.2429L16.8708 24.2429L16.8704 24.2429L16.87 24.2428L16.8696 24.2428L16.8692 24.2427L16.8688 24.2427L16.8684 24.2426L16.8681 24.2426L16.8677 24.2426L16.8673 24.2425L16.8669 24.2425L16.8665 24.2424L16.8661 24.2424L16.8657 24.2423L16.8653 24.2423L16.8649 24.2423L16.8645 24.2422L16.8641 24.2422L16.8637 24.2421L16.8633 24.2421L16.8629 24.242L16.8626 24.242L16.8622 24.242L16.8618 24.2419L16.8614 24.2419L16.861 24.2418L16.8606 24.2418L16.8605 24.2418C16.8594 24.2407 16.8578 24.2388 16.8559 24.2359C16.8455 24.2205 16.8323 24.1859 16.8374 24.1388L17.4026 18.9257C17.405 18.9033 17.4112 18.8825 17.4197 18.8649C17.4283 18.8471 17.4375 18.8359 17.4436 18.83C17.4437 18.8299 17.4438 18.8298 17.4438 18.8298L17.4441 18.8298L17.4445 18.8299L17.4449 18.8299L17.4453 18.8299L17.4457 18.83L17.446 18.83L17.4464 18.8301L17.4468 18.8301L17.4472 18.8301L17.4475 18.8302L17.4479 18.8302L17.4483 18.8303L17.4487 18.8303L17.449 18.8303L17.4494 18.8304L17.4498 18.8304L17.4502 18.8305L17.4505 18.8305L17.4509 18.8305L17.4513 18.8306L17.4517 18.8306L17.4521 18.8307L17.4524 18.8307L17.4528 18.8308L17.4532 18.8308L17.4536 18.8308L17.454 18.8309L17.4543 18.8309L17.4547 18.831L17.4551 18.831L17.4555 18.831L17.4559 18.8311L17.4562 18.8311L17.4566 18.8312L17.457 18.8312L17.4574 18.8312L17.4578 18.8313L17.4581 18.8313L17.4585 18.8314L17.4589 18.8314L17.4593 18.8315L17.4597 18.8315L17.46 18.8315L17.4604 18.8316L17.4608 18.8316L17.4612 18.8317L17.4616 18.8317L17.462 18.8317L17.4623 18.8318L17.4627 18.8318L17.4631 18.8319L17.4635 18.8319L17.4639 18.832L17.4643 18.832L17.4646 18.832L17.465 18.8321L17.4654 18.8321L17.4658 18.8322L17.4662 18.8322L17.4666 18.8322L17.4669 18.8323L17.4673 18.8323L17.4677 18.8324L17.4681 18.8324L17.4685 18.8325L17.4689 18.8325L17.4692 18.8325L17.4696 18.8326L17.47 18.8326L17.4704 18.8327L17.4708 18.8327L17.4712 18.8327L17.4716 18.8328L17.4719 18.8328L17.4723 18.8329L17.4727 18.8329L17.4731 18.833L17.4735 18.833L17.4739 18.833L17.4743 18.8331L17.4747 18.8331L17.475 18.8332L17.4754 18.8332L17.4758 18.8332L17.4762 18.8333L17.4766 18.8333L17.477 18.8334L17.4774 18.8334L17.4778 18.8335L17.4781 18.8335L17.4785 18.8335L17.4789 18.8336L17.4793 18.8336L17.4797 18.8337L17.4801 18.8337L17.4805 18.8338L17.4809 18.8338L17.4812 18.8338L17.4816 18.8339L17.482 18.8339L17.4824 18.834L17.4828 18.834L17.4832 18.834L17.4836 18.8341L17.484 18.8341L17.4844 18.8342L17.4848 18.8342L17.4851 18.8343L17.4855 18.8343L17.4859 18.8343L17.4863 18.8344L17.4867 18.8344L17.4871 18.8345L17.4875 18.8345L17.4879 18.8346L17.4883 18.8346L17.4887 18.8346L17.4891 18.8347L17.4894 18.8347L17.4898 18.8348L17.4902 18.8348L17.4906 18.8349L17.491 18.8349L17.4914 18.8349L17.4918 18.835L17.4922 18.835L17.4926 18.8351L17.493 18.8351L17.4934 18.8352L17.4938 18.8352L17.4942 18.8352L17.4946 18.8353L17.4949 18.8353L17.4953 18.8354L17.4957 18.8354L17.4961 18.8354L17.4965 18.8355L17.4969 18.8355L17.4973 18.8356L17.4977 18.8356L17.4981 18.8357L17.4985 18.8357L17.4989 18.8357L17.4993 18.8358L17.4997 18.8358L17.5001 18.8359L17.5005 18.8359L17.5009 18.836L17.5013 18.836L17.5016 18.836L17.502 18.8361L17.5024 18.8361L17.5028 18.8362L17.5032 18.8362L17.5036 18.8363L17.504 18.8363L17.5044 18.8363L17.5048 18.8364L17.5052 18.8364L17.5056 18.8365L17.506 18.8365L17.5064 18.8366L17.5068 18.8366L17.5072 18.8366L17.5076 18.8367L17.508 18.8367L17.5084 18.8368L17.5088 18.8368L17.5092 18.8369L17.5096 18.8369L17.51 18.837L17.5104 18.837L17.5108 18.837L17.5112 18.8371L17.5116 18.8371L17.512 18.8372L17.5124 18.8372L17.5128 18.8373L17.5132 18.8373L17.5136 18.8373L17.5139 18.8374L17.5143 18.8374L17.5147 18.8375L17.5151 18.8375L17.5155 18.8376L17.5159 18.8376L17.5163 18.8376L17.5167 18.8377L17.5171 18.8377L17.5175 18.8378L17.5179 18.8378L17.5183 18.8379L17.5187 18.8379L17.5191 18.8379L17.5195 18.838L17.5199 18.838L17.5203 18.8381L17.5207 18.8381L17.5211 18.8382L17.5215 18.8382L17.5219 18.8382L17.5223 18.8383L17.5227 18.8383L17.5231 18.8384L17.5235 18.8384L17.5239 18.8385L17.5243 18.8385L17.5247 18.8386L17.5251 18.8386L17.5255 18.8386L17.5259 18.8387L17.5263 18.8387L17.5267 18.8388L17.5271 18.8388L17.5275 18.8389L17.5279 18.8389L17.5283 18.8389L17.5287 18.839L17.5291 18.839L17.5296 18.8391L17.53 18.8391L17.5304 18.8392L17.5308 18.8392L17.5312 18.8392L17.5316 18.8393L17.532 18.8393L17.5324 18.8394L17.5328 18.8394L17.5332 18.8395L17.5336 18.8395L17.534 18.8396L17.5344 18.8396L17.5348 18.8396L17.5352 18.8397L17.5356 18.8397L17.536 18.8398L17.5364 18.8398L17.5368 18.8399L17.5372 18.8399L17.5376 18.8399L17.538 18.84L17.5384 18.84L17.5388 18.8401L17.5392 18.8401L17.5396 18.8402L17.54 18.8402L17.5404 18.8403L17.5408 18.8403L17.5412 18.8403L17.5416 18.8404L17.542 18.8404L17.5424 18.8405L17.5428 18.8405L17.5433 18.8406L17.5437 18.8406L17.5441 18.8406L17.5445 18.8407L17.5449 18.8407L17.5453 18.8408L17.5457 18.8408L17.5461 18.8409L17.5465 18.8409L17.5469 18.841L17.5473 18.841L17.5477 18.841L17.5481 18.8411L17.5485 18.8411L17.5489 18.8412L17.5493 18.8412L17.5497 18.8413L17.5501 18.8413L17.5505 18.8413L17.5509 18.8414L17.5513 18.8414L17.5518 18.8415L17.5522 18.8415L17.5526 18.8416L17.553 18.8416L17.5534 18.8417L17.5538 18.8417L17.5542 18.8417L17.5546 18.8418L17.555 18.8418L17.5554 18.8419L17.5558 18.8419L17.5562 18.842L17.5566 18.842L17.557 18.8421L17.5574 18.8421L17.5578 18.8421L17.5582 18.8422L17.5587 18.8422L17.5591 18.8423L17.5595 18.8423L17.5599 18.8424L17.5603 18.8424L17.5607 18.8424L17.5611 18.8425L17.5615 18.8425L17.5619 18.8426L17.5623 18.8426L17.5627 18.8427L17.5631 18.8427L17.5635 18.8428L17.5639 18.8428L17.5643 18.8428L17.5648 18.8429L17.5652 18.8429L17.5656 18.843L17.566 18.843L17.5664 18.8431L17.5668 18.8431L17.5672 18.8432L17.5676 18.8432L17.568 18.8432L17.5684 18.8433L17.5688 18.8433L17.5692 18.8434L17.5696 18.8434L17.57 18.8435L17.5705 18.8435L17.5709 18.8436L17.5713 18.8436L17.5717 18.8436L17.5721 18.8437L17.5725 18.8437L17.5729 18.8438L17.5733 18.8438L17.5737 18.8439L17.5741 18.8439L17.5745 18.844L17.5749 18.844L17.5753 18.844L17.5758 18.8441L17.5762 18.8441L17.5766 18.8442L17.577 18.8442L17.5774 18.8443L17.5778 18.8443L17.5782 18.8443L17.5786 18.8444L17.579 18.8444L17.5794 18.8445L17.5798 18.8445L17.5802 18.8446L17.5807 18.8446L17.5811 18.8447L17.5815 18.8447L17.5819 18.8447L17.5823 18.8448L17.5827 18.8448L17.5831 18.8449L17.5835 18.8449L17.5839 18.845L17.5843 18.845L17.5847 18.8451L17.5852 18.8451L17.5856 18.8451L17.586 18.8452L17.5864 18.8452L17.5868 18.8453L17.5872 18.8453L17.5876 18.8454L17.588 18.8454L17.5884 18.8455L17.5888 18.8455L17.5892 18.8455L17.5896 18.8456L17.5901 18.8456L17.5905 18.8457L17.5909 18.8457L17.5913 18.8458L17.5917 18.8458L17.5921 18.8459L17.5925 18.8459L17.5929 18.8459L17.5933 18.846L17.5937 18.846L17.5941 18.8461L17.5946 18.8461L17.595 18.8462L17.5954 18.8462L17.5958 18.8463L17.5962 18.8463L17.5966 18.8463L17.597 18.8464L17.5974 18.8464L17.5978 18.8465L17.5982 18.8465L17.5987 18.8466L17.5991 18.8466L17.5995 18.8467L17.5999 18.8467L17.6003 18.8467L17.6007 18.8468L17.6011 18.8468L17.6015 18.8469L17.6019 18.8469L17.6023 18.847L17.6027 18.847L17.6032 18.8471L17.6036 18.8471L17.604 18.8471L17.6044 18.8472L17.6048 18.8472L17.6052 18.8473L17.6056 18.8473L17.606 18.8474L17.6064 18.8474L17.6068 18.8475L17.6073 18.8475L17.6077 18.8475L17.6081 18.8476L17.6085 18.8476L17.6089 18.8477L17.6093 18.8477L17.6097 18.8478L17.6101 18.8478L17.6105 18.8479L17.6109 18.8479L17.6113 18.8479C19.1619 19.0161 20.2605 20.3747 20.1023 21.8556Z" stroke="#5B6793" stroke-width="1.5"/>
<path d="M7.11986 21.8556C7.28273 23.336 8.64704 24.4277 10.1976 24.2596L10.198 24.2595L10.1984 24.2595L10.1988 24.2594L10.1992 24.2594L10.1996 24.2594L10.2 24.2593L10.2004 24.2593L10.2008 24.2592L10.2012 24.2592L10.2016 24.2591L10.202 24.2591L10.2025 24.259L10.2029 24.259L10.2033 24.259L10.2037 24.2589L10.2041 24.2589L10.2045 24.2588L10.2049 24.2588L10.2053 24.2587L10.2057 24.2587L10.2061 24.2586L10.2065 24.2586L10.2069 24.2586L10.2073 24.2585L10.2077 24.2585L10.2081 24.2584L10.2085 24.2584L10.2089 24.2583L10.2094 24.2583L10.2098 24.2583L10.2102 24.2582L10.2106 24.2582L10.211 24.2581L10.2114 24.2581L10.2118 24.258L10.2122 24.258L10.2126 24.2579L10.213 24.2579L10.2134 24.2579L10.2138 24.2578L10.2142 24.2578L10.2146 24.2577L10.215 24.2577L10.2154 24.2576L10.2158 24.2576L10.2162 24.2576L10.2166 24.2575L10.217 24.2575L10.2174 24.2574L10.2178 24.2574L10.2182 24.2573L10.2186 24.2573L10.219 24.2573L10.2194 24.2572L10.2198 24.2572L10.2202 24.2571L10.2206 24.2571L10.221 24.257L10.2214 24.257L10.2218 24.2569L10.2222 24.2569L10.2226 24.2569L10.223 24.2568L10.2234 24.2568L10.2238 24.2567L10.2242 24.2567L10.2246 24.2566L10.225 24.2566L10.2254 24.2566L10.2258 24.2565L10.2262 24.2565L10.2266 24.2564L10.227 24.2564L10.2274 24.2563L10.2278 24.2563L10.2282 24.2563L10.2286 24.2562L10.229 24.2562L10.2294 24.2561L10.2297 24.2561L10.2301 24.256L10.2305 24.256L10.2309 24.256L10.2313 24.2559L10.2317 24.2559L10.2321 24.2558L10.2325 24.2558L10.2329 24.2557L10.2333 24.2557L10.2337 24.2557L10.2341 24.2556L10.2345 24.2556L10.2349 24.2555L10.2353 24.2555L10.2357 24.2554L10.2361 24.2554L10.2365 24.2554L10.2369 24.2553L10.2372 24.2553L10.2376 24.2552L10.238 24.2552L10.2384 24.2551L10.2388 24.2551L10.2392 24.2551L10.2396 24.255L10.24 24.255L10.2404 24.2549L10.2408 24.2549L10.2412 24.2548L10.2416 24.2548L10.242 24.2548L10.2424 24.2547L10.2427 24.2547L10.2431 24.2546L10.2435 24.2546L10.2439 24.2545L10.2443 24.2545L10.2447 24.2545L10.2451 24.2544L10.2455 24.2544L10.2459 24.2543L10.2463 24.2543L10.2467 24.2543L10.2471 24.2542L10.2474 24.2542L10.2478 24.2541L10.2482 24.2541L10.2486 24.254L10.249 24.254L10.2494 24.254L10.2498 24.2539L10.2502 24.2539L10.2506 24.2538L10.251 24.2538L10.2513 24.2537L10.2517 24.2537L10.2521 24.2537L10.2525 24.2536L10.2529 24.2536L10.2533 24.2535L10.2537 24.2535L10.2541 24.2534L10.2545 24.2534L10.2548 24.2534L10.2552 24.2533L10.2556 24.2533L10.256 24.2532L10.2564 24.2532L10.2568 24.2532L10.2572 24.2531L10.2576 24.2531L10.258 24.253L10.2583 24.253L10.2587 24.2529L10.2591 24.2529L10.2595 24.2529L10.2599 24.2528L10.2603 24.2528L10.2607 24.2527L10.2611 24.2527L10.2614 24.2526L10.2618 24.2526L10.2622 24.2526L10.2626 24.2525L10.263 24.2525L10.2634 24.2524L10.2638 24.2524L10.2642 24.2524L10.2645 24.2523L10.2649 24.2523L10.2653 24.2522L10.2657 24.2522L10.2661 24.2521L10.2665 24.2521L10.2669 24.2521L10.2673 24.252L10.2676 24.252L10.268 24.2519L10.2684 24.2519L10.2688 24.2519L10.2692 24.2518L10.2696 24.2518L10.27 24.2517L10.2703 24.2517L10.2707 24.2516L10.2711 24.2516L10.2715 24.2516L10.2719 24.2515L10.2723 24.2515L10.2727 24.2514L10.273 24.2514L10.2734 24.2514L10.2738 24.2513L10.2742 24.2513L10.2746 24.2512L10.275 24.2512L10.2754 24.2511L10.2757 24.2511L10.2761 24.2511L10.2765 24.251L10.2769 24.251L10.2773 24.2509L10.2777 24.2509L10.2781 24.2508L10.2784 24.2508L10.2788 24.2508L10.2792 24.2507L10.2796 24.2507L10.28 24.2506L10.2804 24.2506L10.2807 24.2506L10.2811 24.2505L10.2815 24.2505L10.2819 24.2504L10.2823 24.2504L10.2827 24.2503L10.2831 24.2503L10.2834 24.2503L10.2838 24.2502L10.2842 24.2502L10.2846 24.2501L10.285 24.2501L10.2854 24.2501L10.2857 24.25L10.2861 24.25L10.2865 24.2499L10.2869 24.2499L10.2873 24.2498L10.2877 24.2498L10.2881 24.2498L10.2884 24.2497L10.2888 24.2497L10.2892 24.2496L10.2896 24.2496L10.29 24.2496L10.2904 24.2495L10.2907 24.2495L10.2911 24.2494L10.2915 24.2494L10.2919 24.2493L10.2923 24.2493L10.2927 24.2493L10.293 24.2492L10.2934 24.2492L10.2938 24.2491L10.2942 24.2491L10.2946 24.2491L10.295 24.249L10.2953 24.249L10.2957 24.2489L10.2961 24.2489L10.2965 24.2488L10.2969 24.2488L10.2973 24.2488L10.2977 24.2487L10.298 24.2487L10.2984 24.2486L10.2988 24.2486L10.2992 24.2486L10.2996 24.2485L10.3 24.2485L10.3003 24.2484L10.3007 24.2484L10.3011 24.2483L10.3015 24.2483L10.3019 24.2483L10.3023 24.2482L10.3026 24.2482L10.303 24.2481L10.3034 24.2481L10.3038 24.2481L10.3042 24.248L10.3046 24.248L10.3049 24.2479L10.3053 24.2479L10.3057 24.2479L10.3061 24.2478L10.3065 24.2478L10.3069 24.2477L10.3073 24.2477L10.3076 24.2476L10.308 24.2476L10.3084 24.2476L10.3088 24.2475L10.3092 24.2475L10.3096 24.2474L10.3099 24.2474L10.3103 24.2474L10.3107 24.2473L10.3111 24.2473L10.3115 24.2472L10.3119 24.2472L10.3123 24.2471L10.3126 24.2471L10.313 24.2471L10.3134 24.247L10.3138 24.247L10.3142 24.2469L10.3146 24.2469L10.3149 24.2468L10.3153 24.2468L10.3157 24.2468L10.3161 24.2467L10.3165 24.2467L10.3169 24.2466L10.3173 24.2466L10.3176 24.2466L10.318 24.2465L10.3184 24.2465L10.3188 24.2464L10.3192 24.2464L10.3196 24.2463L10.3199 24.2463L10.3203 24.2463L10.3207 24.2462L10.3211 24.2462L10.3215 24.2461L10.3219 24.2461L10.3223 24.2461L10.3226 24.246L10.323 24.246L10.3234 24.2459L10.3238 24.2459L10.3242 24.2458L10.3246 24.2458L10.325 24.2458L10.3253 24.2457L10.3257 24.2457L10.3261 24.2456L10.3265 24.2456L10.3269 24.2456L10.3273 24.2455L10.3277 24.2455L10.328 24.2454L10.3284 24.2454L10.3288 24.2453L10.3292 24.2453L10.3296 24.2453L10.33 24.2452L10.3304 24.2452L10.3308 24.2451L10.3311 24.2451L10.3315 24.2451L10.3319 24.245L10.3323 24.245L10.3327 24.2449L10.3331 24.2449L10.3335 24.2448L10.3339 24.2448L10.3342 24.2448L10.3346 24.2447L10.335 24.2447L10.3354 24.2446L10.3358 24.2446L10.3362 24.2445L10.3366 24.2445L10.337 24.2445L10.3373 24.2444L10.3377 24.2444L10.3381 24.2443L10.3385 24.2443L10.3389 24.2443L10.3393 24.2442L10.3397 24.2442L10.3401 24.2441L10.3404 24.2441L10.3408 24.244L10.3412 24.244L10.3416 24.244L10.342 24.2439L10.3424 24.2439L10.3428 24.2438L10.3432 24.2438L10.3436 24.2437L10.3439 24.2437L10.3443 24.2437L10.3447 24.2436L10.3451 24.2436L10.3455 24.2435L10.3459 24.2435L10.3463 24.2435L10.3467 24.2434L10.3471 24.2434L10.3475 24.2433L10.3478 24.2433L10.3482 24.2432L10.3486 24.2432L10.349 24.2432L10.3494 24.2431L10.3498 24.2431L10.3502 24.243L10.3506 24.243L10.351 24.2429L10.3514 24.2429L10.3518 24.2429L10.3522 24.2428L10.3525 24.2428L10.3529 24.2427L10.3533 24.2427L10.3537 24.2426L10.3541 24.2426L10.3545 24.2426L10.3549 24.2425L10.3553 24.2425L10.3557 24.2424L10.3561 24.2424L10.3565 24.2423L10.3569 24.2423L10.3573 24.2423L10.3576 24.2422L10.358 24.2422L10.3584 24.2421L10.3588 24.2421L10.3592 24.242L10.3596 24.242L10.36 24.242L10.3604 24.2419L10.3608 24.2419L10.3612 24.2418L10.3616 24.2418L10.3617 24.2418C10.3628 24.2407 10.3643 24.2388 10.3663 24.2359C10.3766 24.2205 10.3899 24.1859 10.3848 24.1388L9.81961 18.9257C9.81718 18.9033 9.81093 18.8825 9.80245 18.8649C9.79391 18.8471 9.78465 18.8359 9.77853 18.83C9.77846 18.8299 9.7784 18.8298 9.77833 18.8298L9.77802 18.8298L9.77764 18.8299L9.77727 18.8299L9.77689 18.8299L9.77652 18.83L9.77614 18.83L9.77577 18.8301L9.77539 18.8301L9.77501 18.8301L9.77464 18.8302L9.77426 18.8302L9.77388 18.8303L9.77351 18.8303L9.77313 18.8303L9.77275 18.8304L9.77237 18.8304L9.772 18.8305L9.77162 18.8305L9.77124 18.8305L9.77086 18.8306L9.77048 18.8306L9.77011 18.8307L9.76973 18.8307L9.76935 18.8308L9.76897 18.8308L9.76859 18.8308L9.76821 18.8309L9.76783 18.8309L9.76745 18.831L9.76707 18.831L9.76669 18.831L9.76631 18.8311L9.76593 18.8311L9.76555 18.8312L9.76517 18.8312L9.76479 18.8312L9.76441 18.8313L9.76403 18.8313L9.76365 18.8314L9.76327 18.8314L9.76289 18.8315L9.76251 18.8315L9.76212 18.8315L9.76174 18.8316L9.76136 18.8316L9.76098 18.8317L9.7606 18.8317L9.76021 18.8317L9.75983 18.8318L9.75945 18.8318L9.75907 18.8319L9.75868 18.8319L9.7583 18.832L9.75792 18.832L9.75753 18.832L9.75715 18.8321L9.75677 18.8321L9.75638 18.8322L9.756 18.8322L9.75561 18.8322L9.75523 18.8323L9.75485 18.8323L9.75446 18.8324L9.75408 18.8324L9.75369 18.8325L9.75331 18.8325L9.75292 18.8325L9.75254 18.8326L9.75215 18.8326L9.75177 18.8327L9.75138 18.8327L9.75099 18.8327L9.75061 18.8328L9.75022 18.8328L9.74984 18.8329L9.74945 18.8329L9.74906 18.833L9.74868 18.833L9.74829 18.833L9.7479 18.8331L9.74752 18.8331L9.74713 18.8332L9.74674 18.8332L9.74636 18.8332L9.74597 18.8333L9.74558 18.8333L9.74519 18.8334L9.74481 18.8334L9.74442 18.8335L9.74403 18.8335L9.74364 18.8335L9.74325 18.8336L9.74286 18.8336L9.74248 18.8337L9.74209 18.8337L9.7417 18.8338L9.74131 18.8338L9.74092 18.8338L9.74053 18.8339L9.74014 18.8339L9.73975 18.834L9.73936 18.834L9.73897 18.834L9.73858 18.8341L9.73819 18.8341L9.7378 18.8342L9.73741 18.8342L9.73702 18.8343L9.73663 18.8343L9.73624 18.8343L9.73585 18.8344L9.73546 18.8344L9.73507 18.8345L9.73468 18.8345L9.73429 18.8346L9.73389 18.8346L9.7335 18.8346L9.73311 18.8347L9.73272 18.8347L9.73233 18.8348L9.73194 18.8348L9.73154 18.8349L9.73115 18.8349L9.73076 18.8349L9.73037 18.835L9.72997 18.835L9.72958 18.8351L9.72919 18.8351L9.7288 18.8352L9.7284 18.8352L9.72801 18.8352L9.72762 18.8353L9.72722 18.8353L9.72683 18.8354L9.72644 18.8354L9.72604 18.8354L9.72565 18.8355L9.72525 18.8355L9.72486 18.8356L9.72447 18.8356L9.72407 18.8357L9.72368 18.8357L9.72328 18.8357L9.72289 18.8358L9.72249 18.8358L9.7221 18.8359L9.72171 18.8359L9.72131 18.836L9.72092 18.836L9.72052 18.836L9.72012 18.8361L9.71973 18.8361L9.71933 18.8362L9.71894 18.8362L9.71854 18.8363L9.71815 18.8363L9.71775 18.8363L9.71735 18.8364L9.71696 18.8364L9.71656 18.8365L9.71617 18.8365L9.71577 18.8366L9.71537 18.8366L9.71498 18.8366L9.71458 18.8367L9.71418 18.8367L9.71379 18.8368L9.71339 18.8368L9.71299 18.8369L9.71259 18.8369L9.7122 18.837L9.7118 18.837L9.7114 18.837L9.711 18.8371L9.71061 18.8371L9.71021 18.8372L9.70981 18.8372L9.70941 18.8373L9.70902 18.8373L9.70862 18.8373L9.70822 18.8374L9.70782 18.8374L9.70742 18.8375L9.70702 18.8375L9.70662 18.8376L9.70623 18.8376L9.70583 18.8376L9.70543 18.8377L9.70503 18.8377L9.70463 18.8378L9.70423 18.8378L9.70383 18.8379L9.70343 18.8379L9.70303 18.8379L9.70263 18.838L9.70223 18.838L9.70183 18.8381L9.70143 18.8381L9.70103 18.8382L9.70063 18.8382L9.70023 18.8382L9.69983 18.8383L9.69943 18.8383L9.69903 18.8384L9.69863 18.8384L9.69823 18.8385L9.69783 18.8385L9.69743 18.8386L9.69703 18.8386L9.69663 18.8386L9.69623 18.8387L9.69583 18.8387L9.69543 18.8388L9.69503 18.8388L9.69462 18.8389L9.69422 18.8389L9.69382 18.8389L9.69342 18.839L9.69302 18.839L9.69262 18.8391L9.69221 18.8391L9.69181 18.8392L9.69141 18.8392L9.69101 18.8392L9.69061 18.8393L9.69021 18.8393L9.6898 18.8394L9.6894 18.8394L9.689 18.8395L9.6886 18.8395L9.68819 18.8396L9.68779 18.8396L9.68739 18.8396L9.68699 18.8397L9.68658 18.8397L9.68618 18.8398L9.68578 18.8398L9.68537 18.8399L9.68497 18.8399L9.68457 18.8399L9.68416 18.84L9.68376 18.84L9.68336 18.8401L9.68295 18.8401L9.68255 18.8402L9.68215 18.8402L9.68174 18.8403L9.68134 18.8403L9.68094 18.8403L9.68053 18.8404L9.68013 18.8404L9.67972 18.8405L9.67932 18.8405L9.67892 18.8406L9.67851 18.8406L9.67811 18.8406L9.6777 18.8407L9.6773 18.8407L9.6769 18.8408L9.67649 18.8408L9.67609 18.8409L9.67568 18.8409L9.67528 18.841L9.67487 18.841L9.67447 18.841L9.67406 18.8411L9.67366 18.8411L9.67325 18.8412L9.67285 18.8412L9.67244 18.8413L9.67204 18.8413L9.67163 18.8413L9.67123 18.8414L9.67082 18.8414L9.67042 18.8415L9.67001 18.8415L9.66961 18.8416L9.6692 18.8416L9.66879 18.8417L9.66839 18.8417L9.66798 18.8417L9.66758 18.8418L9.66717 18.8418L9.66677 18.8419L9.66636 18.8419L9.66595 18.842L9.66555 18.842L9.66514 18.8421L9.66474 18.8421L9.66433 18.8421L9.66392 18.8422L9.66352 18.8422L9.66311 18.8423L9.6627 18.8423L9.6623 18.8424L9.66189 18.8424L9.66148 18.8424L9.66108 18.8425L9.66067 18.8425L9.66026 18.8426L9.65986 18.8426L9.65945 18.8427L9.65904 18.8427L9.65864 18.8428L9.65823 18.8428L9.65782 18.8428L9.65742 18.8429L9.65701 18.8429L9.6566 18.843L9.65619 18.843L9.65579 18.8431L9.65538 18.8431L9.65497 18.8432L9.65457 18.8432L9.65416 18.8432L9.65375 18.8433L9.65334 18.8433L9.65294 18.8434L9.65253 18.8434L9.65212 18.8435L9.65171 18.8435L9.65131 18.8436L9.6509 18.8436L9.65049 18.8436L9.65008 18.8437L9.64967 18.8437L9.64927 18.8438L9.64886 18.8438L9.64845 18.8439L9.64804 18.8439L9.64764 18.844L9.64723 18.844L9.64682 18.844L9.64641 18.8441L9.646 18.8441L9.64559 18.8442L9.64519 18.8442L9.64478 18.8443L9.64437 18.8443L9.64396 18.8443L9.64355 18.8444L9.64315 18.8444L9.64274 18.8445L9.64233 18.8445L9.64192 18.8446L9.64151 18.8446L9.6411 18.8447L9.64069 18.8447L9.64029 18.8447L9.63988 18.8448L9.63947 18.8448L9.63906 18.8449L9.63865 18.8449L9.63824 18.845L9.63783 18.845L9.63743 18.8451L9.63702 18.8451L9.63661 18.8451L9.6362 18.8452L9.63579 18.8452L9.63538 18.8453L9.63497 18.8453L9.63456 18.8454L9.63415 18.8454L9.63375 18.8455L9.63334 18.8455L9.63293 18.8455L9.63252 18.8456L9.63211 18.8456L9.6317 18.8457L9.63129 18.8457L9.63088 18.8458L9.63047 18.8458L9.63006 18.8459L9.62966 18.8459L9.62925 18.8459L9.62884 18.846L9.62843 18.846L9.62802 18.8461L9.62761 18.8461L9.6272 18.8462L9.62679 18.8462L9.62638 18.8463L9.62597 18.8463L9.62556 18.8463L9.62515 18.8464L9.62474 18.8464L9.62433 18.8465L9.62393 18.8465L9.62352 18.8466L9.62311 18.8466L9.6227 18.8467L9.62229 18.8467L9.62188 18.8467L9.62147 18.8468L9.62106 18.8468L9.62065 18.8469L9.62024 18.8469L9.61983 18.847L9.61942 18.847L9.61901 18.8471L9.6186 18.8471L9.61819 18.8471L9.61778 18.8472L9.61737 18.8472L9.61696 18.8473L9.61656 18.8473L9.61615 18.8474L9.61574 18.8474L9.61533 18.8475L9.61492 18.8475L9.61451 18.8475L9.6141 18.8476L9.61369 18.8476L9.61328 18.8477L9.61287 18.8477L9.61246 18.8478L9.61205 18.8478L9.61164 18.8479L9.61123 18.8479L9.61082 18.8479C8.06031 19.0161 6.96166 20.3747 7.11986 21.8556Z" stroke="#5B6793" stroke-width="1.5"/>
</svg>
