<svg width="27" height="32" viewBox="0 0 27 32" fill="none" xmlns="http://www.w3.org/2000/svg">
<path fill-rule="evenodd" clip-rule="evenodd" d="M17.8583 1.01567H7.16427C3.82087 1.0026 1.08025 3.71112 1.00149 7.10737V24.6082C0.927547 28.06 3.61995 30.9204 7.01639 30.9972C7.06622 30.9972 7.11444 30.9988 7.16427 30.9972H20.0058C23.3717 30.8583 26.0239 28.0322 25.9998 24.6082V9.63456L17.8583 1.01567Z" stroke="#33A962" stroke-width="1.68439" stroke-linecap="round" stroke-linejoin="round"/>
<path d="M17.436 1V5.75215C17.436 8.07186 19.2813 9.95214 21.5638 9.95867H25.9922" stroke="#33A962" stroke-width="1.68439" stroke-linecap="round" stroke-linejoin="round"/>
<path d="M12.0637 17.1406L13.9447 20.3729L15.8256 17.1406H17.5848L14.9064 21.5295L17.6518 26.0036H15.8743L13.9447 22.7104L12.015 26.0036H10.2314L12.9829 21.5295L10.2984 17.1406H12.0637Z" fill="#33A962"/>
</svg>
