<svg width="24" height="24" viewBox="0 0 24 24" fill="none" xmlns="http://www.w3.org/2000/svg">
<path d="M6.91699 14.8542L9.90999 10.9652L13.324 13.6452L16.253 9.86523" stroke="currentColor" stroke-width="1.5" stroke-linecap="round" stroke-linejoin="round"/>
<path fill-rule="evenodd" clip-rule="evenodd" d="M19.6671 2.3501C20.7291 2.3501 21.5891 3.2101 21.5891 4.2721C21.5891 5.3331 20.7291 6.1941 19.6671 6.1941C18.6051 6.1941 17.7451 5.3331 17.7451 4.2721C17.7451 3.2101 18.6051 2.3501 19.6671 2.3501Z" stroke="currentColor" stroke-width="1.5" stroke-linecap="round" stroke-linejoin="round"/>
<path d="M20.7552 9.26922C20.8882 10.1642 20.9492 11.1722 20.9492 12.3032C20.9492 19.2412 18.6372 21.5532 11.6992 21.5532C4.76222 21.5532 2.44922 19.2412 2.44922 12.3032C2.44922 5.36622 4.76222 3.05322 11.6992 3.05322C12.8092 3.05322 13.8002 3.11222 14.6822 3.24022" stroke="currentColor" stroke-width="1.5" stroke-linecap="round" stroke-linejoin="round"/>
</svg>
