<svg width="24" height="24" viewBox="0 0 24 24" fill="none" xmlns="http://www.w3.org/2000/svg">
<path d="M17.7763 4.96484L12.0613 9.42488L6.2157 4.96484V4.96605L6.22276 4.97208V11.2173L11.9954 15.7738L17.7763 11.3933V4.96484Z" fill="#EA4335"/>
<path d="M19.2771 3.88005L17.7762 4.96493V11.3934L22.4989 7.76752V5.58331C22.4989 5.58331 21.9256 2.46369 19.2771 3.88005Z" fill="#FBBC05"/>
<path d="M17.7762 11.3935V19.7313H21.3959C21.3959 19.7313 22.4259 19.6253 22.5001 18.4512V7.76758L17.7762 11.3935Z" fill="#34A853"/>
<path d="M6.22303 19.7385V11.2175L6.2157 11.2114L6.22303 19.7385Z" fill="#C5221F"/>
<path d="M6.21558 4.96633L4.72298 3.88749C2.07444 2.47112 1.5 5.58953 1.5 5.58953V7.77375L6.21558 11.2116V4.96633Z" fill="#C5221F"/>
<path d="M6.2157 4.96631V11.2116L6.22303 11.2176V4.97234L6.2157 4.96631Z" fill="#C5221F"/>
<path d="M1.5 7.7749V18.4585C1.57298 19.6338 2.60415 19.7387 2.60415 19.7387H6.22382L6.21558 11.2115L1.5 7.7749Z" fill="#4285F4"/>
</svg>
