<svg width="24" height="24" viewBox="0 0 24 24" fill="none" xmlns="http://www.w3.org/2000/svg">
<path fill-rule="evenodd" clip-rule="evenodd" d="M18.7498 2C18.7498 1.58579 18.414 1.25 17.9998 1.25C17.5856 1.25 17.2498 1.58579 17.2498 2V2.4227L4.4599 5.80827C2.72365 6.26786 2.72365 8.73214 4.4599 9.19173L17.2498 12.5773V22C17.2498 22.4142 17.5856 22.75 17.9998 22.75C18.414 22.75 18.7498 22.4142 18.7498 22L18.7498 2ZM17.2498 11.0256V3.97436L4.84374 7.25832C4.76409 7.27941 4.72579 7.31483 4.70336 7.34614C4.67673 7.3833 4.65772 7.43708 4.65772 7.5C4.65772 7.56292 4.67673 7.6167 4.70336 7.65386C4.72579 7.68517 4.76409 7.72059 4.84374 7.74168L17.2498 11.0256Z" fill="currentColor"/>
</svg>
