<svg width="24" height="24" viewBox="0 0 24 24" fill="none" xmlns="http://www.w3.org/2000/svg">
<path d="M11.5461 19.9282C11.1319 19.9282 10.7961 20.264 10.7961 20.6782C10.7961 21.0924 11.1319 21.4282 11.5461 21.4282V19.9282ZM5.79564 11.7912L5.72167 11.0449L5.72166 11.0449L5.79564 11.7912ZM3.49028 13.7418L2.7884 13.4775L2.77306 13.5182L2.76254 13.5604L3.49028 13.7418ZM4.53359 17.286L5.05047 16.7425L4.53359 17.286ZM6.64071 18.1989L6.52407 17.458H6.52407L6.64071 18.1989ZM8.06512 16.686L8.81499 16.672L8.81409 16.6238L8.80703 16.5762L8.06512 16.686ZM7.53092 13.0784L8.27283 12.9686L8.27025 12.9512L8.26685 12.9339L7.53092 13.0784ZM18.2043 11.7912L18.2782 11.0449L18.2782 11.0449L18.2043 11.7912ZM20.5096 13.7418L21.2374 13.5604L21.2268 13.5182L21.2115 13.4775L20.5096 13.7418ZM19.4663 17.286L18.9494 16.7425L19.4663 17.286ZM17.3592 18.1989L17.4758 17.458H17.4758L17.3592 18.1989ZM15.9348 16.686L15.1929 16.5762L15.1858 16.6238L15.1849 16.672L15.9348 16.686ZM16.469 13.0784L15.7331 12.9339L15.7297 12.9512L15.7271 12.9686L16.469 13.0784ZM14.1367 19.9282H11.5461V21.4282H14.1367V19.9282ZM14.1367 21.4282C14.614 21.4282 15.0455 21.3336 15.4278 21.1313C15.8097 20.9291 16.1005 20.6418 16.329 20.3178C16.7616 19.7044 17.0183 18.8797 17.2591 18.103L15.8263 17.6588C15.5661 18.498 15.3721 19.072 15.1032 19.4533C14.9809 19.6266 14.8582 19.7356 14.7261 19.8055C14.5946 19.8751 14.4118 19.9282 14.1367 19.9282V21.4282ZM5.72166 11.0449C4.05215 11.2104 3.14525 12.5299 2.7884 13.4775L4.19215 14.0061C4.4535 13.3122 5.01503 12.6223 5.86962 12.5376L5.72166 11.0449ZM2.76254 13.5604C2.60146 14.2067 2.51467 14.9158 2.68759 15.6617C2.86258 16.4166 3.28565 17.1341 4.01671 17.8294L5.05047 16.7425C4.49012 16.2096 4.24562 15.7404 4.14884 15.323C4.05001 14.8966 4.08727 14.4477 4.21801 13.9232L2.76254 13.5604ZM4.01671 17.8294C4.54444 18.3313 5.02748 18.6498 5.49629 18.8202C5.98088 18.9964 6.39974 18.996 6.75734 18.9397L6.52407 17.458C6.36291 17.4833 6.20812 17.483 6.0088 17.4105C5.7937 17.3323 5.48256 17.1535 5.05047 16.7425L4.01671 17.8294ZM7.31525 16.7C7.32057 16.985 7.21628 17.1277 7.08879 17.2289C6.93038 17.3546 6.70678 17.4292 6.52407 17.458L6.75734 18.9397C7.09339 18.8868 7.59208 18.7445 8.02122 18.4039C8.48128 18.0388 8.82982 17.4659 8.81499 16.672L7.31525 16.7ZM5.8696 12.5376C6.32096 12.4929 6.4839 12.5961 6.54816 12.6529C6.63461 12.7293 6.7292 12.8881 6.79498 13.223L8.26685 12.9339C8.17538 12.4682 7.98974 11.9252 7.54157 11.529C7.0712 11.1133 6.44513 10.9732 5.72167 11.0449L5.8696 12.5376ZM6.78901 13.1883L7.32321 16.7959L8.80703 16.5762L8.27283 12.9686L6.78901 13.1883ZM18.1303 12.5376C18.9849 12.6223 19.5464 13.3122 19.8078 14.0061L21.2115 13.4775C20.8547 12.5299 19.9478 11.2104 18.2782 11.0449L18.1303 12.5376ZM19.7819 13.9232C19.9126 14.4477 19.9499 14.8966 19.8511 15.323C19.7543 15.7404 19.5098 16.2096 18.9494 16.7425L19.9832 17.8294C20.7143 17.1341 21.1373 16.4166 21.3123 15.6617C21.4852 14.9158 21.3985 14.2067 21.2374 13.5604L19.7819 13.9232ZM18.9494 16.7425C18.5174 17.1535 18.2062 17.3323 17.9911 17.4105C17.7918 17.483 17.637 17.4833 17.4758 17.458L17.2426 18.9397C17.6002 18.996 18.019 18.9964 18.5036 18.8202C18.9724 18.6498 19.4555 18.3313 19.9832 17.8294L18.9494 16.7425ZM15.1849 16.672C15.1701 17.4659 15.5186 18.0388 15.9787 18.4039C16.4078 18.7445 16.9065 18.8868 17.2426 18.9397L17.4758 17.458C17.2931 17.4292 17.0695 17.3546 16.9111 17.2289C16.7836 17.1277 16.6793 16.985 16.6847 16.7L15.1849 16.672ZM18.2782 11.0449C17.5548 10.9732 16.9287 11.1133 16.4583 11.529C16.0102 11.9252 15.8245 12.4682 15.7331 12.9339L17.2049 13.223C17.2707 12.8881 17.3653 12.7293 17.4518 12.6529C17.516 12.5961 17.679 12.4929 18.1303 12.5376L18.2782 11.0449ZM15.7271 12.9686L15.1929 16.5762L16.6767 16.7959L17.2109 13.1883L15.7271 12.9686ZM5.66538 12.0485V10.1533H4.16538V12.0485H5.66538ZM18.1155 10.1533V11.954H19.6155V10.1533H18.1155ZM11.8904 3.92822C15.3284 3.92822 18.1155 6.71527 18.1155 10.1533H19.6155C19.6155 5.88684 16.1568 2.42822 11.8904 2.42822V3.92822ZM11.8904 2.42822C7.62399 2.42822 4.16538 5.88684 4.16538 10.1533H5.66538C5.66538 6.71526 8.45242 3.92822 11.8904 3.92822V2.42822Z" fill="currentColor"/>
</svg>
