<svg width="24" height="24" viewBox="0 0 24 24" fill="none" xmlns="http://www.w3.org/2000/svg">
<path d="M5 12.5V10.9949C5 7.13846 8.13846 4 12.0051 4C15.8718 4 19 7.13846 19 10.9949V12.5" stroke="currentColor" stroke-width="1.5"/>
<path d="M2.75 16.065C2.75277 14.2367 4.27234 12.73 6.17793 12.73H6.17841H6.1789H6.17938H6.17987H6.18035H6.18084H6.18132H6.18181H6.18229H6.18278H6.18326H6.18375H6.18423H6.18472H6.1852H6.18568H6.18617H6.18665H6.18714H6.18762H6.18811H6.18859H6.18908H6.18956H6.19005H6.19053H6.19102H6.1915H6.19199H6.19247H6.19295H6.19344H6.19392H6.19441H6.19489H6.19538H6.19586H6.19635H6.19683H6.19731H6.1978H6.19828H6.19877H6.19925H6.19974H6.20022H6.2007H6.20119H6.20167H6.20216H6.20264H6.20313H6.20361H6.20409H6.20458H6.20506H6.20555H6.20603H6.20651H6.207H6.20748H6.20797H6.20845H6.20893H6.20942H6.2099H6.21038H6.21087H6.21135H6.21184H6.21232H6.2128H6.21329H6.21377H6.21425H6.21474H6.21522H6.2157H6.21619H6.21667H6.21715H6.21764H6.21812H6.2186H6.21909H6.21957H6.22005H6.22053H6.22102H6.2215H6.22198H6.22247H6.22295H6.22343H6.22391H6.2244H6.22488H6.22536H6.22584H6.22633H6.22681H6.22729H6.22777H6.22826H6.22874H6.22922H6.2297H6.23019H6.23067H6.23115H6.23163H6.23211H6.23259H6.23308H6.23356H6.23404H6.23452H6.235H6.23548H6.23597H6.23645H6.23693H6.23741H6.23789H6.23837H6.23885H6.23933H6.23982H6.2403H6.24078H6.24126H6.24174H6.24222H6.2427H6.24318H6.24366H6.24414H6.24462H6.2451H6.24558H6.24606H6.24654H6.24702H6.2475H6.24798H6.24846H6.24894H6.24942H6.2499H6.25038H6.25086H6.25134H6.25182H6.2523H6.25278H6.25326H6.25374H6.25422H6.25469H6.25517H6.25565H6.25613H6.25661H6.25709H6.25757H6.25805H6.25852H6.259H6.25948H6.25996H6.26044H6.26091H6.26139H6.26187H6.26235H6.26283H6.2633H6.26378H6.26426H6.26474H6.26521H6.26569H6.26617H6.26664H6.26712H6.2676H6.26807H6.26855H6.26903H6.2695H6.26998H6.27046H6.27093H6.27141H6.27188H6.27236H6.27284H6.27331H6.27379H6.27426H6.27474H6.27521H6.27569H6.27616H6.27664H6.27711H6.27759H6.27806H6.27854H6.27901H6.27949H6.27996H6.28044H6.28091H6.28138H6.28186H6.28233H6.28281H6.28328H6.28375H6.28423H6.2847H6.28517H6.28565H6.28612H6.28659H6.28707H6.28754H6.28801H6.28848H6.28896H6.28943H6.2899H6.29037H6.29085H6.29132H6.29179H6.29226H6.29273H6.2932H6.29368H6.29415H6.29462H6.29509H6.29556H6.29603H6.2965H6.29697H6.29744H6.29791H6.29838H6.29885H6.29932H6.29979H6.30026H6.30073H6.3012H6.30167H6.30214H6.30261H6.30308H6.30355H6.30402H6.30449H6.30495H6.30542H6.30589H6.30636H6.30683H6.3073H6.30776H6.30823H6.3087H6.30917H6.30963H6.3101H6.31057H6.31104H6.3115H6.31197H6.31244H6.3129H6.31337H6.31383H6.3143H6.31477H6.31523H6.3157H6.31616H6.31663H6.31709H6.31756H6.31802H6.31849H6.31895H6.31942H6.31988H6.32035H6.32081H6.32127H6.32174H6.3222H6.32267H6.32313H6.32359H6.32406H6.32452H6.32498H6.32544H6.32591H6.32637H6.32683H6.32729H6.32776H6.32822H6.32868H6.32914H6.3296H6.33006H6.33053H6.33099H6.33145H6.33191H6.33237H6.33283H6.33329H6.33375H6.33421H6.33467H6.33513H6.33559H6.33605H6.33651H6.33697H6.33742H6.33788H6.33834H6.3388H6.33926H6.33972H6.34017H6.34063H6.34109H6.34155H6.342H6.34246H6.34292H6.34338H6.34383H6.34429H6.34475H6.3452H6.34566H6.34611H6.34657H6.34702H6.34748H6.34794H6.34839H6.34885H6.3493H6.34975H6.35021H6.35066H6.35112H6.35157H6.35203H6.35248H6.35293H6.35338H6.35384H6.35429H6.35474H6.3552H6.35565H6.3561H6.35655H6.357H6.35746H6.35791H6.35836H6.35881H6.35926H6.35971H6.36016H6.36061H6.36106H6.36151H6.36196H6.36241H6.36286H6.36331H6.36376H6.36421H6.36466H6.36511H6.36556H6.366H6.36645H6.3669H6.36735H6.36779H6.36824H6.36869H6.36914H6.36958H6.37003H6.37048H6.37092H6.37137H6.37181H6.37226H6.3727H6.37315H6.37359H6.37404H6.37448H6.37493H6.37537H6.37582H6.37626H6.3767H6.37715H6.37759H6.37803H6.37848H6.37892H6.37936H6.37981H6.38025H6.38069H6.38113H6.38157H6.38201H6.38245H6.3829H6.38334H6.38378H6.38422H6.38466H6.3851H6.38554H6.38598H6.38642H6.38685H6.38729H6.38773H6.38817H6.38861H6.38905H6.38948H6.38992H6.39036H6.3908H6.39123H6.39167H6.39211H6.39254H6.39298H6.39342H6.39385H6.39429H6.39472H6.39516H6.39559H6.39567C6.42524 12.7327 6.45045 12.7448 6.47799 12.7777C6.51379 12.8204 6.5448 12.893 6.5448 12.98V19.15C6.5448 19.2356 6.51468 19.305 6.47961 19.3466C6.45256 19.3787 6.42369 19.3951 6.38634 19.4H6.38615H6.38567H6.3852H6.38473H6.38426H6.38379H6.38332H6.38285H6.38238H6.38191H6.38144H6.38097H6.3805H6.38003H6.37956H6.37909H6.37862H6.37815H6.37768H6.37721H6.37674H6.37627H6.37581H6.37534H6.37487H6.3744H6.37393H6.37347H6.373H6.37253H6.37207H6.3716H6.37113H6.37067H6.3702H6.36973H6.36927H6.3688H6.36834H6.36787H6.3674H6.36694H6.36647H6.36601H6.36554H6.36508H6.36461H6.36415H6.36369H6.36322H6.36276H6.36229H6.36183H6.36137H6.3609H6.36044H6.35998H6.35951H6.35905H6.35859H6.35812H6.35766H6.3572H6.35674H6.35627H6.35581H6.35535H6.35489H6.35442H6.35396H6.3535H6.35304H6.35258H6.35212H6.35166H6.3512H6.35073H6.35027H6.34981H6.34935H6.34889H6.34843H6.34797H6.34751H6.34705H6.34659H6.34613H6.34567H6.34521H6.34475H6.34429H6.34383H6.34337H6.34291H6.34245H6.342H6.34154H6.34108H6.34062H6.34016H6.3397H6.33924H6.33879H6.33833H6.33787H6.33741H6.33695H6.33649H6.33604H6.33558H6.33512H6.33466H6.33421H6.33375H6.33329H6.33283H6.33238H6.33192H6.33146H6.331H6.33055H6.33009H6.32963H6.32918H6.32872H6.32826H6.32781H6.32735H6.32689H6.32644H6.32598H6.32552H6.32507H6.32461H6.32416H6.3237H6.32324H6.32279H6.32233H6.32188H6.32142H6.32096H6.32051H6.32005H6.3196H6.31914H6.31869H6.31823H6.31778H6.31732H6.31686H6.31641H6.31595H6.3155H6.31504H6.31459H6.31413H6.31368H6.31322H6.31277H6.31231H6.31186H6.3114H6.31095H6.31049H6.31004H6.30958H6.30913H6.30867H6.30822H6.30776H6.30731H6.30685H6.3064H6.30595H6.30549H6.30504H6.30458H6.30413H6.30367H6.30322H6.30276H6.30231H6.30185H6.3014H6.30095H6.30049H6.30004H6.29958H6.29913H6.29867H6.29822H6.29776H6.29731H6.29685H6.2964H6.29595H6.29549H6.29504H6.29458H6.29413H6.29367H6.29322H6.29277H6.29231H6.29186H6.2914H6.29095H6.29049H6.29004H6.28958H6.28913H6.28867H6.28822H6.28777H6.28731H6.28686H6.2864H6.28595H6.28549H6.28504H6.28458H6.28413H6.28367H6.28322H6.28276H6.28231H6.28185H6.2814H6.28094H6.28049H6.28003H6.27958H6.27912H6.27867H6.27821H6.27776H6.2773H6.27685H6.27639H6.27594H6.27548H6.27502H6.27457H6.27411H6.27366H6.2732H6.27275H6.27229H6.27183H6.27138H6.27092H6.27047H6.27001H6.26955H6.2691H6.26864H6.26819H6.26773H6.26727H6.26682H6.26636H6.2659H6.26545H6.26499H6.26453H6.26408H6.26362H6.26316H6.26271H6.26225H6.26179H6.26133H6.26088H6.26042H6.25996H6.2595H6.25905H6.25859H6.25813H6.25767H6.25722H6.25676H6.2563H6.25584H6.25538H6.25493H6.25447H6.25401H6.25355H6.25309H6.25263H6.25217H6.25171H6.25126H6.2508H6.25034H6.24988H6.24942H6.24896H6.2485H6.24804H6.24758H6.24712H6.24666H6.2462H6.24574H6.24528H6.24482H6.24436H6.2439H6.24344H6.24298H6.24252H6.24205H6.24159H6.24113H6.24067H6.24021H6.23975H6.23929H6.23882H6.23836H6.2379H6.23744H6.23697H6.23651H6.23605H6.23559H6.23512H6.23466H6.2342H6.23374H6.23327H6.23281H6.23234H6.23188H6.23142H6.23095H6.23049H6.23002H6.22956H6.2291H6.22863H6.22817H6.2277H6.22724H6.22677H6.22631H6.22584H6.22537H6.22491H6.22444H6.22398H6.22351H6.22304H6.22258H6.22211H6.22164H6.22118H6.22071H6.22024H6.21978H6.21931H6.21884H6.21837H6.2179H6.21744H6.21697H6.2165H6.21603H6.21556H6.21509H6.21462H6.21415H6.21368H6.21321H6.21275H6.21228H6.2118H6.21133H6.21086H6.21039H6.20992H6.20945H6.20898H6.20851H6.20804H6.20757H6.20709H6.20662H6.20615H6.20568H6.2052H6.20473H6.20426H6.20378H6.20331H6.20284H6.20236H6.20189H6.20142H6.20094H6.20047H6.19999H6.19952H6.19904H6.19857H6.19809H6.19762H6.19714H6.19666H6.19619H6.19571H6.19523H6.19476H6.19428H6.1938H6.19333H6.19285H6.19237H6.19189H6.19141H6.19093H6.19046H6.18998H6.1895H6.18902H6.18854H6.18806H6.18758H6.1871H6.18662H6.18614H6.18566H6.18517H6.18469H6.18421H6.18373H6.18325H6.18277H6.18228H6.1818H6.18132H6.18083H6.18035H6.17987H6.17938H6.1789H6.17841H6.17793C4.27234 19.4 2.75277 17.8933 2.75 16.065Z" stroke="currentColor" stroke-width="1.5"/>
<path d="M17.822 12.73C19.7275 12.73 21.2471 14.2367 21.2499 16.065C21.2471 17.8933 19.7275 19.4 17.822 19.4H17.8215H17.821H17.8205H17.82H17.8195H17.819H17.8186H17.8181H17.8176H17.8171H17.8166H17.8161H17.8157H17.8152H17.8147H17.8142H17.8137H17.8133H17.8128H17.8123H17.8118H17.8113H17.8109H17.8104H17.8099H17.8094H17.8089H17.8085H17.808H17.8075H17.807H17.8066H17.8061H17.8056H17.8051H17.8046H17.8042H17.8037H17.8032H17.8027H17.8023H17.8018H17.8013H17.8008H17.8004H17.7999H17.7994H17.7989H17.7985H17.798H17.7975H17.797H17.7966H17.7961H17.7956H17.7951H17.7947H17.7942H17.7937H17.7933H17.7928H17.7923H17.7918H17.7914H17.7909H17.7904H17.79H17.7895H17.789H17.7885H17.7881H17.7876H17.7871H17.7867H17.7862H17.7857H17.7853H17.7848H17.7843H17.7838H17.7834H17.7829H17.7824H17.782H17.7815H17.781H17.7806H17.7801H17.7796H17.7792H17.7787H17.7782H17.7778H17.7773H17.7768H17.7764H17.7759H17.7754H17.775H17.7745H17.774H17.7736H17.7731H17.7726H17.7722H17.7717H17.7712H17.7708H17.7703H17.7699H17.7694H17.7689H17.7685H17.768H17.7675H17.7671H17.7666H17.7661H17.7657H17.7652H17.7648H17.7643H17.7638H17.7634H17.7629H17.7624H17.762H17.7615H17.7611H17.7606H17.7601H17.7597H17.7592H17.7587H17.7583H17.7578H17.7574H17.7569H17.7564H17.756H17.7555H17.7551H17.7546H17.7541H17.7537H17.7532H17.7528H17.7523H17.7518H17.7514H17.7509H17.7505H17.75H17.7495H17.7491H17.7486H17.7482H17.7477H17.7472H17.7468H17.7463H17.7459H17.7454H17.745H17.7445H17.744H17.7436H17.7431H17.7427H17.7422H17.7417H17.7413H17.7408H17.7404H17.7399H17.7395H17.739H17.7385H17.7381H17.7376H17.7372H17.7367H17.7363H17.7358H17.7353H17.7349H17.7344H17.734H17.7335H17.7331H17.7326H17.7321H17.7317H17.7312H17.7308H17.7303H17.7299H17.7294H17.729H17.7285H17.728H17.7276H17.7271H17.7267H17.7262H17.7258H17.7253H17.7249H17.7244H17.7239H17.7235H17.723H17.7226H17.7221H17.7217H17.7212H17.7208H17.7203H17.7198H17.7194H17.7189H17.7185H17.718H17.7176H17.7171H17.7167H17.7162H17.7158H17.7153H17.7148H17.7144H17.7139H17.7135H17.713H17.7126H17.7121H17.7117H17.7112H17.7108H17.7103H17.7098H17.7094H17.7089H17.7085H17.708H17.7076H17.7071H17.7067H17.7062H17.7058H17.7053H17.7048H17.7044H17.7039H17.7035H17.703H17.7026H17.7021H17.7017H17.7012H17.7008H17.7003H17.6998H17.6994H17.6989H17.6985H17.698H17.6976H17.6971H17.6967H17.6962H17.6958H17.6953H17.6948H17.6944H17.6939H17.6935H17.693H17.6926H17.6921H17.6917H17.6912H17.6908H17.6903H17.6898H17.6894H17.6889H17.6885H17.688H17.6876H17.6871H17.6867H17.6862H17.6857H17.6853H17.6848H17.6844H17.6839H17.6835H17.683H17.6826H17.6821H17.6816H17.6812H17.6807H17.6803H17.6798H17.6794H17.6789H17.6785H17.678H17.6775H17.6771H17.6766H17.6762H17.6757H17.6753H17.6748H17.6744H17.6739H17.6734H17.673H17.6725H17.6721H17.6716H17.6712H17.6707H17.6702H17.6698H17.6693H17.6689H17.6684H17.668H17.6675H17.667H17.6666H17.6661H17.6657H17.6652H17.6648H17.6643H17.6638H17.6634H17.6629H17.6625H17.662H17.6616H17.6611H17.6606H17.6602H17.6597H17.6593H17.6588H17.6583H17.6579H17.6574H17.657H17.6565H17.656H17.6556H17.6551H17.6547H17.6542H17.6537H17.6533H17.6528H17.6524H17.6519H17.6514H17.651H17.6505H17.6501H17.6496H17.6491H17.6487H17.6482H17.6478H17.6473H17.6468H17.6464H17.6459H17.6455H17.645H17.6445H17.6441H17.6436H17.6431H17.6427H17.6422H17.6418H17.6413H17.6408H17.6404H17.6399H17.6394H17.639H17.6385H17.638H17.6376H17.6371H17.6367H17.6362H17.6357H17.6353H17.6348H17.6343H17.6339H17.6334H17.6329H17.6325H17.632H17.6315H17.6311H17.6306H17.6301H17.6297H17.6292H17.6287H17.6283H17.6278H17.6273H17.6269H17.6264H17.6259H17.6255H17.625H17.6245H17.6241H17.6236H17.6231H17.6227H17.6222H17.6217H17.6213H17.6208H17.6203H17.6199H17.6194H17.6189H17.6184H17.618H17.6175H17.617H17.6166H17.6161H17.6156H17.6151H17.6147H17.6142H17.6137H17.6135C17.5762 19.3951 17.5473 19.3787 17.5203 19.3466C17.4852 19.305 17.4551 19.2356 17.4551 19.15V12.98C17.4551 12.893 17.4861 12.8204 17.5219 12.7777C17.5494 12.7448 17.5746 12.7327 17.6042 12.73H17.6043H17.6047H17.6052H17.6056H17.606H17.6065H17.6069H17.6073H17.6078H17.6082H17.6086H17.6091H17.6095H17.61H17.6104H17.6108H17.6113H17.6117H17.6121H17.6126H17.613H17.6135H17.6139H17.6143H17.6148H17.6152H17.6157H17.6161H17.6165H17.617H17.6174H17.6179H17.6183H17.6187H17.6192H17.6196H17.6201H17.6205H17.621H17.6214H17.6218H17.6223H17.6227H17.6232H17.6236H17.6241H17.6245H17.6249H17.6254H17.6258H17.6263H17.6267H17.6272H17.6276H17.6281H17.6285H17.629H17.6294H17.6298H17.6303H17.6307H17.6312H17.6316H17.6321H17.6325H17.633H17.6334H17.6339H17.6343H17.6348H17.6352H17.6357H17.6361H17.6366H17.637H17.6375H17.6379H17.6384H17.6388H17.6393H17.6397H17.6402H17.6406H17.6411H17.6415H17.642H17.6424H17.6429H17.6433H17.6438H17.6442H17.6447H17.6451H17.6456H17.646H17.6465H17.6469H17.6474H17.6479H17.6483H17.6488H17.6492H17.6497H17.6501H17.6506H17.651H17.6515H17.6519H17.6524H17.6529H17.6533H17.6538H17.6542H17.6547H17.6551H17.6556H17.656H17.6565H17.657H17.6574H17.6579H17.6583H17.6588H17.6592H17.6597H17.6602H17.6606H17.6611H17.6615H17.662H17.6625H17.6629H17.6634H17.6638H17.6643H17.6648H17.6652H17.6657H17.6661H17.6666H17.667H17.6675H17.668H17.6684H17.6689H17.6694H17.6698H17.6703H17.6707H17.6712H17.6717H17.6721H17.6726H17.673H17.6735H17.674H17.6744H17.6749H17.6754H17.6758H17.6763H17.6767H17.6772H17.6777H17.6781H17.6786H17.6791H17.6795H17.68H17.6805H17.6809H17.6814H17.6819H17.6823H17.6828H17.6833H17.6837H17.6842H17.6846H17.6851H17.6856H17.686H17.6865H17.687H17.6874H17.6879H17.6884H17.6888H17.6893H17.6898H17.6902H17.6907H17.6912H17.6916H17.6921H17.6926H17.6931H17.6935H17.694H17.6945H17.6949H17.6954H17.6959H17.6963H17.6968H17.6973H17.6977H17.6982H17.6987H17.6991H17.6996H17.7001H17.7006H17.701H17.7015H17.702H17.7024H17.7029H17.7034H17.7038H17.7043H17.7048H17.7053H17.7057H17.7062H17.7067H17.7071H17.7076H17.7081H17.7086H17.709H17.7095H17.71H17.7104H17.7109H17.7114H17.7119H17.7123H17.7128H17.7133H17.7138H17.7142H17.7147H17.7152H17.7157H17.7161H17.7166H17.7171H17.7175H17.718H17.7185H17.719H17.7194H17.7199H17.7204H17.7209H17.7213H17.7218H17.7223H17.7228H17.7232H17.7237H17.7242H17.7247H17.7251H17.7256H17.7261H17.7266H17.727H17.7275H17.728H17.7285H17.7289H17.7294H17.7299H17.7304H17.7309H17.7313H17.7318H17.7323H17.7328H17.7332H17.7337H17.7342H17.7347H17.7351H17.7356H17.7361H17.7366H17.7371H17.7375H17.738H17.7385H17.739H17.7394H17.7399H17.7404H17.7409H17.7414H17.7418H17.7423H17.7428H17.7433H17.7437H17.7442H17.7447H17.7452H17.7457H17.7461H17.7466H17.7471H17.7476H17.7481H17.7485H17.749H17.7495H17.75H17.7505H17.7509H17.7514H17.7519H17.7524H17.7529H17.7533H17.7538H17.7543H17.7548H17.7553H17.7557H17.7562H17.7567H17.7572H17.7577H17.7581H17.7586H17.7591H17.7596H17.7601H17.7605H17.761H17.7615H17.762H17.7625H17.763H17.7634H17.7639H17.7644H17.7649H17.7654H17.7658H17.7663H17.7668H17.7673H17.7678H17.7682H17.7687H17.7692H17.7697H17.7702H17.7707H17.7711H17.7716H17.7721H17.7726H17.7731H17.7736H17.774H17.7745H17.775H17.7755H17.776H17.7764H17.7769H17.7774H17.7779H17.7784H17.7789H17.7793H17.7798H17.7803H17.7808H17.7813H17.7818H17.7822H17.7827H17.7832H17.7837H17.7842H17.7847H17.7851H17.7856H17.7861H17.7866H17.7871H17.7876H17.788H17.7885H17.789H17.7895H17.79H17.7905H17.7909H17.7914H17.7919H17.7924H17.7929H17.7934H17.7938H17.7943H17.7948H17.7953H17.7958H17.7963H17.7968H17.7972H17.7977H17.7982H17.7987H17.7992H17.7997H17.8001H17.8006H17.8011H17.8016H17.8021H17.8026H17.803H17.8035H17.804H17.8045H17.805H17.8055H17.806H17.8064H17.8069H17.8074H17.8079H17.8084H17.8089H17.8093H17.8098H17.8103H17.8108H17.8113H17.8118H17.8123H17.8127H17.8132H17.8137H17.8142H17.8147H17.8152H17.8156H17.8161H17.8166H17.8171H17.8176H17.8181H17.8186H17.819H17.8195H17.82H17.8205H17.821H17.8215H17.822Z" stroke="currentColor" stroke-width="1.5"/>
<path d="M17 19H13" stroke="currentColor" stroke-width="1.5" stroke-linecap="round"/>
</svg>
