<svg width="20" height="20" viewBox="0 0 20 20" fill="none" xmlns="http://www.w3.org/2000/svg">
<path fill-rule="evenodd" clip-rule="evenodd" d="M13.5488 0.536133H6.45115C3.18505 0.536133 0.536438 3.18474 0.536438 6.45085V13.5485C0.536438 16.8146 3.18505 19.4632 6.45115 19.4632H13.5488C16.8149 19.4632 19.4635 16.8146 19.4635 13.5485V6.45085C19.4635 3.18474 16.8149 0.536133 13.5488 0.536133ZM9.99413 4.98892C7.2273 4.98892 4.98403 7.2322 4.98403 9.99903C4.98403 12.7659 7.2273 15.0091 9.99413 15.0091C12.761 15.0091 15.0042 12.7659 15.0042 9.99903C15.0042 7.2322 12.761 4.98892 9.99413 4.98892ZM9.99413 13.1303C8.26815 13.1303 6.86282 11.725 6.86282 9.99903C6.86282 8.27179 8.26815 6.86771 9.99413 6.86771C11.7201 6.86771 13.1255 8.27179 13.1255 9.99903C13.1255 11.725 11.7201 13.1303 9.99413 13.1303ZM15.8391 4.71139C15.8391 5.32628 15.3406 5.82475 14.7257 5.82475C14.1108 5.82475 13.6123 5.32628 13.6123 4.71139C13.6123 4.0965 14.1108 3.59804 14.7257 3.59804C15.3406 3.59804 15.8391 4.0965 15.8391 4.71139Z" fill="white"/>
</svg>
