<svg width="24" height="24" viewBox="0 0 24 24" fill="none" xmlns="http://www.w3.org/2000/svg">
<g clip-path="url(#clip0_14018_69666)">
<path d="M13.5449 5.00293C13.0177 5.00293 12.5171 5.00971 12.017 5.00136C11.2981 4.98988 10.8167 4.31877 11.06 3.66436C11.2069 3.26879 11.4997 3.0376 11.9242 3.01099C12.229 2.9922 12.5358 3.00316 12.8421 3.00316C14.5351 3.00316 16.2282 3.00212 17.9212 3.00316C18.4296 3.00316 18.7938 3.24374 18.9417 3.66697C19.1725 4.3266 18.6953 4.99249 17.9748 5.00084C17.2716 5.00919 16.5683 5.00606 15.8651 4.9998C15.7348 4.99876 15.6744 5.03476 15.627 5.1621C13.9262 9.70906 12.2201 14.2545 10.5156 18.8004C10.4953 18.8541 10.4797 18.91 10.4505 18.9977C10.587 18.9977 10.7068 18.9977 10.8261 18.9977C11.2038 18.9977 11.5815 18.9945 11.9591 18.9987C12.5499 19.005 12.9921 19.4303 12.9984 19.9928C13.0047 20.5523 12.565 20.9943 11.9737 20.9959C9.98795 21.0011 8.00164 21.0016 6.01585 20.9959C5.41991 20.9938 4.99535 20.5585 5.00004 19.9876C5.00473 19.4329 5.44075 19.0044 6.02054 18.9992C6.7238 18.993 7.42705 18.994 8.13031 19.0008C8.26054 19.0018 8.32097 18.9658 8.36837 18.8385C10.0692 14.2915 11.7753 9.74612 13.4797 5.20072C13.5001 5.14696 13.5157 5.09112 13.5449 5.00293Z" fill="currentColor"/>
</g>
<defs>
<clipPath id="clip0_14018_69666">
<rect width="14" height="18" fill="white" transform="translate(5 3)"/>
</clipPath>
</defs>
</svg>
