<svg width="24" height="24" viewBox="0 0 24 24" fill="none" xmlns="http://www.w3.org/2000/svg">
<path fill-rule="evenodd" clip-rule="evenodd" d="M5.96508 18.0426C9.9693 22.0364 11.2301 22.1284 15.9302 17.4405C19.5846 13.7956 20.347 12.5732 20.8156 10.7006C21.2583 8.93178 20.903 5.42842 19.7576 4.28599C18.6122 3.14356 15.0526 2.74181 13.2586 3.1632C11.1649 3.65498 9.08393 5.5949 6.56882 8.10346C1.8687 12.7913 1.96086 14.0488 5.96508 18.0426Z" stroke="currentColor" stroke-width="1.5" stroke-linecap="round" stroke-linejoin="round"/>
<path fill-rule="evenodd" clip-rule="evenodd" d="M14.3716 6.51576C13.5056 7.37948 13.5056 8.7792 14.3716 9.64291C15.2369 10.506 16.6403 10.506 17.5062 9.64227C18.3716 8.7792 18.3716 7.37948 17.5062 6.5164C16.6403 5.65269 15.2369 5.65269 14.3716 6.51576Z" stroke="currentColor" stroke-width="1.5" stroke-linecap="round" stroke-linejoin="round"/>
</svg>
