<svg width="24" height="24" viewBox="0 0 24 24" fill="none" xmlns="http://www.w3.org/2000/svg">
<path fill-rule="evenodd" clip-rule="evenodd" d="M12 15.2062C8.15605 15.2062 4.87305 15.7872 4.87305 18.1152C4.87305 20.4432 8.13605 21.0452 12 21.0452C15.845 21.0452 19.127 20.4632 19.127 18.1362C19.127 15.8092 15.865 15.2062 12 15.2062Z" stroke="#130F26" stroke-width="1.5" stroke-linecap="round" stroke-linejoin="round"/>
<path fill-rule="evenodd" clip-rule="evenodd" d="M12.0001 11.8859C14.5231 11.8859 16.5681 9.84088 16.5681 7.31788C16.5681 4.79488 14.5231 2.74988 12.0001 2.74988C9.47814 2.74988 7.43314 4.79488 7.43314 7.31788C7.42414 9.83188 9.45414 11.8769 11.9691 11.8859H12.0001Z" stroke="#130F26" stroke-width="1.5" stroke-linecap="round" stroke-linejoin="round"/>
<path d="M4.16699 10.0527L6.35761 12.234L4.16699 14.4153" stroke="#130F26" stroke-width="1.5" stroke-linecap="round" stroke-linejoin="round"/>
<path d="M6.3576 12.2339H1.60156" stroke="#130F26" stroke-width="1.5" stroke-linecap="round" stroke-linejoin="round"/>
</svg>
