<svg width="20" height="18" viewBox="0 0 20 18" fill="none" xmlns="http://www.w3.org/2000/svg">
<path d="M5.25405 2.51036C5.25405 3.65302 4.26363 4.57932 3.04188 4.57932C1.82013 4.57932 0.829712 3.65302 0.829712 2.51036C0.829712 1.36771 1.82013 0.441406 3.04188 0.441406C4.26363 0.441406 5.25405 1.36771 5.25405 2.51036Z" fill="white"/>
<path d="M1.13223 6.1001H4.91372V17.5589H1.13223V6.1001Z" fill="white"/>
<path d="M11.0019 6.1001H7.22043V17.5589H11.0019C11.0019 17.5589 11.0019 13.9515 11.0019 11.696C11.0019 10.3422 11.4642 8.98249 13.3086 8.98249C15.3931 8.98249 15.3805 10.7541 15.3708 12.1267C15.3581 13.9208 15.3884 15.7516 15.3884 17.5589H19.1699V11.5112C19.1379 7.64957 18.1317 5.87021 14.8212 5.87021C12.8553 5.87021 11.6366 6.76274 11.0019 7.57024V6.1001Z" fill="white"/>
</svg>
