<svg width="46" height="32" viewBox="0 0 46 32" fill="none" xmlns="http://www.w3.org/2000/svg">
<rect x="0.5" y="0.5" width="45" height="31" rx="5.5" fill="#801891"/>
<path d="M22.0843 15.3392C22.1776 15.5565 21.2064 16.4391 21.0216 16.5638C20.5208 16.9021 19.9437 16.9512 19.3857 16.7339C17.9936 16.1915 18.0736 14.1051 18.3059 12.9051C18.5821 11.4801 19.2086 9.83787 20.2332 8.77578C20.5398 8.45828 20.8579 8.17292 21.2521 7.96881C21.8158 7.67589 22.3662 7.73258 22.9127 8.00661C23.0099 8.05575 23.1146 8.10677 23.1889 8.18426C23.3127 8.31466 23.3565 8.2315 23.3888 8.12567C23.5564 7.56439 23.8135 7.41887 24.3849 7.57006C24.9181 7.7118 25.0838 7.99905 24.9505 8.53388C24.5048 10.316 23.8592 12.1605 23.9221 14.0125C23.9297 14.2601 24.0535 14.3262 24.2839 14.2582C24.7562 14.1221 24.9562 13.8103 25.0247 13.3341C25.1219 12.6556 25.2895 11.9866 25.4209 11.3138C25.5104 10.8584 25.5904 10.401 25.6799 9.94559C25.777 9.45045 25.8798 8.95531 25.9808 8.46017C26.0227 8.2504 26.0741 8.04252 26.1045 7.83086C26.1426 7.56817 26.2931 7.39052 26.4988 7.24312C26.5864 7.18075 26.6644 7.26012 26.7444 7.27335C26.9425 7.30737 27.1501 7.28658 27.3386 7.37918C27.6414 7.53037 27.7005 7.63431 27.6109 7.95748C27.5862 8.04819 27.5729 8.11811 27.6548 8.15402C27.7366 8.19182 27.7862 8.09543 27.8147 8.0463C28.0166 7.70046 28.3156 7.4321 28.6298 7.21666C29.1707 6.84058 30.1248 6.75743 30.698 7.29792C30.8275 7.42076 30.8847 7.61163 30.9646 7.77983C31.1303 8.13512 31.2294 8.51876 31.2541 8.89295C31.3303 10.1006 31.1608 11.3176 30.8009 12.4723C30.4847 13.4872 30.0467 14.6815 29.2392 15.4167C28.8526 15.7682 28.3461 16.0498 27.7919 16.0517C27.1786 16.0517 26.674 15.7871 26.2283 15.3883C26.1731 15.3392 26.1369 15.2296 26.0474 15.2655C25.9731 15.2957 26.0246 15.3921 26.0131 15.4583C25.9579 15.7455 25.9084 16.0347 25.8551 16.3219C25.7884 16.6791 25.7884 17.0457 25.6856 17.3972C25.6513 17.5144 25.7541 17.5144 25.8341 17.5163C26.1788 17.5201 26.5159 17.4426 26.8568 17.4048C28.1309 17.2668 29.4011 17.11 30.6733 16.955C31.8692 16.8095 33.0747 16.5997 34.284 16.6772C34.5964 16.698 34.9411 16.7585 35.0991 17.093C35.619 18.191 34.3145 18.397 33.5299 18.4971C31.5626 18.7447 29.5896 18.9393 27.6281 19.2172C27.0663 19.2965 26.5064 19.3778 25.9427 19.4515C25.8341 19.4666 25.7218 19.4572 25.6094 19.4534C25.4399 19.4477 25.3694 19.5101 25.339 19.6934C25.2723 20.1073 25.1219 20.4985 24.8419 20.8254C24.6496 21.0503 24.4077 21.1731 24.1106 21.0862C23.8021 20.9955 23.7164 20.7215 23.684 20.4493C23.6631 20.2679 23.6421 20.077 23.7145 19.8918C23.7659 19.7595 23.6802 19.7198 23.566 19.7387C20.9969 20.1677 18.3935 20.6742 15.8245 21.2072C15.6417 21.245 15.4626 21.3035 15.2798 21.3243C15.1179 21.3413 15.057 21.4245 15.0132 21.5662C14.7104 22.5149 14.3752 23.4542 13.9486 24.3556C13.4878 25.3289 12.9698 26.2738 12.2899 27.1186C11.6481 27.9161 10.8901 28.5983 9.88078 28.8761C9.35516 29.0216 8.76098 29.0746 8.23345 28.8364C7.67546 28.5851 7.24887 28.1712 7.05842 27.5646C7.0489 27.5362 7.02034 27.5079 7.02224 27.4814C7.03938 26.9258 6.93464 26.3645 7.07175 25.8184C7.33266 24.7865 7.824 23.8624 8.49055 23.0365C9.32088 22.0066 10.3721 21.2279 11.4957 20.5438C12.0747 20.1923 12.7031 19.9334 13.3411 19.7047C13.5144 19.6424 13.5868 19.5403 13.6268 19.3986C13.9162 18.4007 14.2171 17.4048 14.6418 16.4542C14.6647 16.4051 14.6247 16.371 14.6552 16.3295C14.6894 16.2822 14.6933 16.1934 14.6552 16.1802C14.6114 16.1669 14.5561 16.2199 14.5104 16.2709C14.0838 16.7641 13.6039 17.1912 12.9774 17.4161C11.9642 17.7828 11.1339 17.3141 10.9415 16.2482C10.8082 15.5093 10.9796 14.7533 11.1758 14.0182C11.2977 13.559 11.4424 13.1073 11.5929 12.6575C11.7871 12.0736 12.0194 11.5028 12.2442 10.9302C12.2861 10.8244 12.3013 10.7204 12.2975 10.6127C12.2861 10.3141 12.3032 10.0193 12.3489 9.72448C12.3775 9.54494 12.5051 9.42399 12.6689 9.40131C13.084 9.34273 13.6744 9.48069 13.8686 10.0061C13.9734 10.2895 13.9258 10.5768 13.8458 10.8508C13.6268 11.6068 13.3735 12.3532 13.1621 13.1111C13.0364 13.5627 12.9583 14.0276 12.8707 14.4907C12.8364 14.6702 12.8974 14.8441 12.964 15.0123C13.0783 15.3071 13.4687 15.326 13.7182 15.1786C14.2171 14.8837 14.5904 14.4566 14.8513 13.9483C15.2436 13.1848 15.5369 12.3778 15.8283 11.5709C16.0835 10.8622 16.2663 10.1308 16.5367 9.42777C16.7805 8.79656 17.2299 8.35245 17.9003 8.18237C18.1174 8.12756 18.3593 8.15591 18.5878 8.17292C18.744 8.18426 18.7592 8.3241 18.7706 8.45639C18.8011 8.84003 18.6468 9.18587 18.544 9.53927C18.4335 9.92102 18.344 10.3084 18.2183 10.6883C18.085 11.0871 17.9631 11.4953 17.8755 11.9054C17.7594 12.4477 17.5651 12.9674 17.4185 13.4985C17.2014 14.2866 16.9576 15.0708 16.7272 15.857C16.4263 16.8813 16.1368 17.9094 15.8397 18.9356C15.7712 19.1737 15.9749 19.0773 16.034 19.0641C16.2987 19.0055 16.5672 18.9715 16.8338 18.9242C18.0241 18.7126 19.2163 18.516 20.4103 18.327C21.6044 18.1381 22.7375 17.864 23.8954 17.8017C24.0897 17.7903 24.1582 17.7053 24.1887 17.5465C24.2839 17.0552 24.3791 16.5619 24.4725 16.0706C24.4801 16.0328 24.4877 15.9874 24.4458 15.9666C24.4096 15.9496 24.3734 15.9666 24.3353 15.9836C24.0973 16.1065 23.8516 16.2104 23.5983 16.3049C22.8518 16.5827 22.2595 16.1216 22.1453 15.4979C22.1357 15.4488 22.1072 15.4053 22.0786 15.3392H22.0843ZM29.5782 10.059C29.5992 9.95315 29.5382 9.77739 29.5325 9.59786C29.5287 9.49014 29.5078 9.38053 29.4735 9.27847C29.3421 8.9024 29.1326 8.65861 28.7346 8.83247C28.5422 8.91563 28.3556 9.03846 28.228 9.20666C27.7766 9.80196 27.4586 10.4653 27.2301 11.1759C27.2053 11.2552 27.2548 11.329 27.1977 11.4083C26.9882 11.7013 26.9558 12.0717 26.8701 12.3967C26.7578 12.82 26.6587 13.2604 26.5864 13.6988C26.5197 14.0938 26.6283 14.3111 26.9653 14.3716C27.112 14.3981 27.2758 14.3886 27.4224 14.3565C28.1842 14.1883 28.5536 13.593 28.8545 12.9693C29.0583 12.546 29.1707 12.0792 29.3116 11.6275C29.464 11.1419 29.5535 10.6448 29.5801 10.0609L29.5782 10.059ZM22.9775 9.81708C23.0346 9.46935 22.6823 9.29737 22.2824 9.42966C21.1569 9.79818 20.6769 10.7318 20.2542 11.7145C20.1494 11.9583 20.1647 12.238 20.0904 12.4836C19.9018 13.1073 19.9323 13.6969 20.1989 14.2866C20.4084 14.7515 20.9264 14.9404 21.3321 14.4321C21.6349 14.0522 21.8882 13.6402 22.0367 13.1715C22.1434 12.837 22.3243 12.5252 22.4195 12.1926C22.5338 11.7976 22.6423 11.3989 22.7471 11.0001C22.8442 10.6354 22.947 10.2725 22.9756 9.81708H22.9775ZM8.73432 26.5327C8.73432 26.5649 8.73432 26.5951 8.73432 26.6272C8.74003 27.0316 9.06949 27.2471 9.43895 27.0883C9.85221 26.9107 10.1722 26.614 10.4654 26.287C10.9453 25.7503 11.3757 25.1777 11.7109 24.5389C12.1128 23.7736 12.526 23.0157 12.7888 22.188C12.806 22.1313 12.865 22.0727 12.8003 22.0198C12.7469 21.9763 12.7012 22.0368 12.6498 22.0481C12.3565 22.1143 12.1528 22.3335 11.9033 22.4752C11.4691 22.7228 11.0653 23.0176 10.6959 23.3521C10.1055 23.8869 9.60845 24.503 9.21233 25.1947C8.97427 25.6143 8.77431 26.0451 8.73622 26.5327H8.73432Z" fill="white"/>
<path d="M37.3106 7.70631C37.3715 8.15799 37.1811 8.61911 36.9659 9.06889C36.7659 9.48654 36.566 9.91743 36.2194 10.2387C35.8689 10.5638 35.4919 10.8642 35.0672 11.091C34.5511 11.3669 34.0216 11.6107 33.4237 11.6561C33.3722 11.6599 33.3265 11.6788 33.3132 11.7279C33.1799 12.2041 33.0104 12.6766 33.1837 13.1831C33.3246 13.5969 33.7017 13.7935 34.1435 13.6688C34.5892 13.544 34.9701 13.3059 35.33 13.0243C35.6423 12.7805 35.9108 12.4952 36.1813 12.2098C36.4384 11.9358 36.6459 11.966 36.8269 12.2986C36.9925 12.6048 37.1182 12.9242 37.0611 13.287C37.0268 13.5062 36.865 13.6404 36.7355 13.7916C36.0099 14.6496 35.0786 15.2033 34.0178 15.5492C33.0713 15.8572 32.222 15.5737 31.7211 14.746C31.504 14.3869 31.3802 13.9995 31.3478 13.5781C31.2698 12.5764 31.3612 11.5899 31.6373 10.6261C31.7706 10.1631 31.9363 9.71332 32.1439 9.2711C32.4086 8.7136 32.6962 8.1731 33.039 7.66285C33.4218 7.09401 33.8998 6.61209 34.5054 6.28137C35.2176 5.89207 35.9661 5.92797 36.6764 6.2587C37.0763 6.44579 37.2992 6.82376 37.3106 7.28677C37.3144 7.40394 37.3106 7.523 37.3106 7.7082V7.70631ZM35.7737 8.09562C35.8289 7.68363 35.5509 7.59292 35.2709 7.65151C35.1053 7.68552 34.9586 7.80836 34.8463 7.9312C34.3168 8.51706 34.0083 9.23142 33.7055 9.94767C33.6865 9.99302 33.6636 10.0365 33.6998 10.0762C33.7379 10.1159 33.7855 10.0875 33.8293 10.0724C34.4082 9.88719 34.9167 9.5867 35.3224 9.13503C35.5814 8.84778 35.787 8.52839 35.7737 8.09562Z" fill="white"/>
<rect x="0.5" y="0.5" width="45" height="31" rx="5.5" stroke="#F5F5F5"/>
</svg>
