<svg width="28" height="28" viewBox="0 0 28 28" fill="none" xmlns="http://www.w3.org/2000/svg">
<path d="M14.2383 25.3018C20.8605 25.3018 26.2289 19.9334 26.2289 13.3111C26.2289 6.68875 20.8605 1.32031 14.2383 1.32031C7.61615 1.32031 2.2478 6.68875 2.2478 13.3111C2.2478 19.9334 7.61615 25.3018 14.2383 25.3018Z" fill="white"/>
<path d="M14.216 0C6.45999 0 0.0218237 6.22222 0.000219159 13.9568C-0.0213854 17.8457 1.55575 21.3673 4.10509 23.8951C6.63283 26.4228 10.1328 28 14 28C17.8672 28 21.3672 26.4228 23.8949 23.8951C26.4226 21.3673 27.9998 17.8673 27.9998 14V3.19753C28.0214 1.44753 26.5739 0 24.8023 0H14.216ZM23.6788 13.9568C23.6788 16.6142 22.5986 19.0339 20.8486 20.7623C19.0987 22.5123 16.7006 23.5926 14.0432 23.5926C11.3858 23.5926 8.96612 22.5123 7.23775 20.7623C5.50939 19.0339 4.42916 16.6574 4.40755 14.0216C4.36435 8.68519 8.8797 4.32099 14.216 4.32099H20.6542L17.003 7.97222H14.1728C10.8889 7.97222 8.12354 10.5648 8.05873 13.8272C8.01552 15.5339 8.70687 17.0679 9.8087 18.1914C10.8889 19.2716 12.3796 19.9414 14.0432 19.9414C15.4259 19.9414 16.7222 19.466 17.7376 18.6667C18.753 17.8673 19.5092 16.7438 19.8332 15.4691H14.821L17.7376 12.5525H23.6788V13.9568Z" fill="#0375F8"/>
</svg>
