<svg width="103" height="32" viewBox="0 0 103 32" fill="none" xmlns="http://www.w3.org/2000/svg">
<g clip-path="url(#clip0_11077_72855)">
<path d="M43.661 20.6754C42.6336 20.6754 41.7042 20.478 40.8725 20.0586C40.0409 19.6392 39.3071 19.0717 38.7201 18.3809C38.133 17.6654 37.6683 16.8512 37.3258 15.889C36.9834 14.9514 36.8366 13.9152 36.8366 12.8296C36.8366 11.6947 37.0079 10.6338 37.3748 9.64688C37.7172 8.65999 38.2064 7.82113 38.8424 7.10563C39.4783 6.39013 40.2121 5.82267 41.0927 5.40324C41.9732 4.98381 42.9516 4.78643 44.0034 4.78643C45.1775 4.78643 46.2048 5.03316 47.0609 5.55128C47.9415 6.04472 48.6263 6.76022 49.1644 7.64842V5.0825H53.2493V19.5405C53.2493 20.7248 53.0291 21.7857 52.5888 22.7479C52.1486 23.6854 51.5371 24.4996 50.7543 25.1658C49.9716 25.8319 49.0421 26.3254 47.9415 26.6955C46.8408 27.0409 45.6422 27.2382 44.3214 27.2382C42.6581 27.2382 41.2394 26.9668 40.0654 26.4487C38.8913 25.9059 37.864 25.1411 36.9834 24.1295L39.5028 21.5636C40.0654 22.2051 40.7747 22.7232 41.6063 23.118C42.438 23.5127 43.343 23.6854 44.2969 23.6854C44.8595 23.6854 45.3976 23.6114 45.9113 23.4387C46.4249 23.2907 46.8652 23.0439 47.2566 22.7232C47.6479 22.4025 47.9659 21.983 48.1861 21.4403C48.4062 20.9221 48.5285 20.2807 48.5285 19.5652V18.0601C48.0637 18.9237 47.3789 19.5898 46.4983 20.0339C45.6178 20.4534 44.6638 20.6754 43.661 20.6754ZM45.2753 16.9005C46.0091 16.9005 46.6451 16.7032 47.2077 16.2837C47.7702 15.889 48.2105 15.3709 48.5285 14.7294V11.4973C48.2105 10.6584 47.7458 10.017 47.0854 9.52352C46.4494 9.03007 45.7645 8.80802 45.0307 8.80802C44.5171 8.80802 44.0523 8.93138 43.6365 9.15343C43.2207 9.37549 42.8538 9.69623 42.5603 10.0663C42.2667 10.4611 42.0222 10.9052 41.8509 11.3986C41.6797 11.8921 41.6063 12.4102 41.6063 12.953C41.6063 13.5204 41.7042 14.0632 41.8754 14.532C42.0711 15.0254 42.3157 15.4449 42.6581 15.7903C43.0005 16.1357 43.3674 16.4318 43.8077 16.6291C44.248 16.8019 44.7372 16.9005 45.2753 16.9005Z" fill="white"/>
<path d="M63.9382 20.8975C62.6419 20.8975 61.4922 20.6754 60.4649 20.256C59.4376 19.8365 58.557 19.2444 57.8477 18.5289C57.1384 17.7887 56.6003 16.9499 56.2089 15.9877C55.842 15.0254 55.6463 14.0385 55.6463 12.9776C55.6463 11.8427 55.842 10.7818 56.2089 9.79491C56.5758 8.80802 57.1139 7.91981 57.8232 7.17964C58.5326 6.43947 59.3887 5.84734 60.416 5.40324C61.4433 4.95914 62.6174 4.76176 63.9138 4.76176C65.2346 4.76176 66.3842 4.98381 67.4115 5.40324C68.4389 5.84734 69.295 6.4148 70.0043 7.15497C70.7136 7.89514 71.2518 8.75867 71.5942 9.72089C71.9611 10.6831 72.1323 11.6947 72.1323 12.7803C72.1323 13.0517 72.1323 13.3231 72.1079 13.5944C72.0834 13.8658 72.0589 14.0879 72.01 14.2853H60.6606C60.734 15.3215 61.1253 16.1357 61.7858 16.6785C62.4706 17.2213 63.2289 17.4927 64.085 17.4927C64.7699 17.4927 65.4303 17.32 66.0663 16.9992C66.7022 16.6538 67.118 16.2097 67.3382 15.6422L71.3251 16.7772C70.7136 18.0108 69.7842 18.9977 68.5122 19.7625C67.2403 20.5274 65.7238 20.8975 63.9382 20.8975ZM67.1914 11.3739C67.0936 10.387 66.7511 9.59753 66.1396 9.03007C65.5281 8.4626 64.7699 8.16654 63.8893 8.16654C62.9598 8.16654 62.2016 8.4626 61.6145 9.03007C61.0275 9.6222 60.6606 10.387 60.5628 11.3493H67.1914V11.3739Z" fill="white"/>
<path d="M81.8674 20.8974C80.5465 20.8974 79.3969 20.6754 78.3696 20.256C77.3423 19.8119 76.4862 19.2444 75.7768 18.5042C75.0675 17.7641 74.5294 16.9005 74.1869 15.9383C73.82 14.9514 73.6488 13.9399 73.6488 12.8789C73.6488 11.818 73.82 10.7818 74.1869 9.81958C74.5538 8.83269 75.092 7.99383 75.7768 7.25366C76.4862 6.51349 77.3423 5.92136 78.3696 5.47726C79.3969 5.03315 80.571 4.8111 81.8674 4.8111C83.1882 4.8111 84.3378 5.03315 85.3651 5.47726C86.3925 5.92136 87.2486 6.51349 87.9579 7.25366C88.6672 7.99383 89.2053 8.85736 89.5722 9.81958C89.9391 10.8065 90.1348 11.818 90.1348 12.8789C90.1348 13.9399 89.9636 14.9761 89.5967 15.9383C89.2298 16.9252 88.6917 17.7641 88.0068 18.5042C87.2975 19.2444 86.4414 19.8365 85.4141 20.256C84.3378 20.7001 83.1882 20.8974 81.8674 20.8974ZM78.443 12.8543C78.443 14.0879 78.761 15.0501 79.4214 15.7903C80.0573 16.5305 80.889 16.9005 81.8918 16.9005C82.381 16.9005 82.8213 16.8018 83.2371 16.6045C83.6529 16.4071 83.9954 16.1357 84.3134 15.7656C84.6069 15.4202 84.8515 14.9761 85.0227 14.4826C85.1939 13.9892 85.2918 13.4217 85.2918 12.8296C85.2918 11.596 84.9738 10.6338 84.3134 9.8936C83.6774 9.15343 82.8458 8.78335 81.8674 8.78335C81.3782 8.78335 80.9134 8.88203 80.4976 9.07941C80.0818 9.27679 79.7149 9.54819 79.4214 9.91827C79.1279 10.2637 78.8833 10.7078 78.712 11.2012C78.5164 11.7194 78.443 12.2621 78.443 12.8543Z" fill="white"/>
<path d="M102.194 9.12876C101.068 9.15343 100.041 9.32613 99.1116 9.69622C98.1821 10.0416 97.5217 10.5844 97.1059 11.2999V20.6261H92.4096V5.0825H96.7145V8.21588C97.2527 7.17964 97.9131 6.34078 98.7447 5.74865C99.5764 5.15651 100.457 4.86045 101.411 4.83577C101.631 4.83577 101.778 4.83577 101.876 4.83577C101.973 4.83577 102.071 4.83577 102.169 4.86045V9.12876H102.194Z" fill="white"/>
<path d="M16.2714 28.9136C23.8396 28.9136 29.9748 22.7782 29.9748 15.2099C29.9748 7.64153 23.8396 1.50617 16.2714 1.50617C8.70314 1.50617 2.56788 7.64153 2.56788 15.2099C2.56788 22.7782 8.70314 28.9136 16.2714 28.9136Z" fill="white"/>
<path d="M16.246 0C7.38193 0 0.024024 7.11111 -0.000666967 15.9506C-0.0253579 20.3951 1.77708 24.4198 4.69061 27.3086C7.57946 30.1975 11.5794 32 15.9991 32C20.4188 32 24.4187 30.1975 27.3075 27.3086C30.1964 24.4198 31.9988 20.4198 31.9988 16V3.65432C32.0235 1.65432 30.3692 0 28.3445 0H16.246ZM27.0606 15.9506C27.0606 18.9877 25.8261 21.7531 23.8261 23.7284C21.8261 25.7284 19.0854 26.963 16.0485 26.963C13.0115 26.963 10.2461 25.7284 8.2708 23.7284C6.29553 21.7531 5.06098 19.037 5.03629 16.0247C4.98691 9.92593 10.1473 4.93827 16.246 4.93827H23.6039L19.4311 9.11111H16.1966C12.4436 9.11111 9.28313 12.0741 9.20906 15.8025C9.15968 17.7531 9.94979 19.5062 11.209 20.7901C12.4436 22.0247 14.1472 22.7901 16.0485 22.7901C17.6287 22.7901 19.1101 22.2469 20.2706 21.3333C21.4311 20.4198 22.2953 19.1358 22.6656 17.679H16.9373L20.2706 14.3457H27.0606V15.9506Z" fill="#0375F8"/>
</g>
<defs>
<clipPath id="clip0_11077_72855">
<rect width="102.194" height="32" fill="white"/>
</clipPath>
</defs>
</svg>
