<svg width="24" height="24" viewBox="0 0 24 24" fill="none" xmlns="http://www.w3.org/2000/svg">
<circle cx="12" cy="12" r="12" fill="white"/>
<rect x="1.71436" y="1.71484" width="20.5714" height="20.5714" rx="10.2857" fill="#FF9700"/>
<path d="M18.5307 14.5711C18.5307 16.3932 17.0679 17.8691 15.2458 17.8756H15.2393H8.76744C6.95193 17.8756 5.46948 16.4063 5.46948 14.5842V14.5777C5.46948 14.5777 5.4734 11.6872 5.47863 10.2335C5.47928 9.96054 5.79275 9.80772 6.0063 9.97752C7.55797 11.2085 10.3328 13.4531 10.3674 13.4825C10.8311 13.8541 11.4189 14.0637 12.0197 14.0637C12.6205 14.0637 13.2083 13.8541 13.6719 13.4753C13.7065 13.4525 16.4194 11.2751 17.9945 10.0239C18.2087 9.85343 18.5235 10.0062 18.5242 10.2786C18.5307 11.7212 18.5307 14.5711 18.5307 14.5711Z" fill="white"/>
<path d="M18.1886 7.86738C17.623 6.80158 16.5102 6.12109 15.2851 6.12109H8.76754C7.54239 6.12109 6.42958 6.80158 5.86402 7.86738C5.73733 8.10575 5.79741 8.40289 6.00835 8.57138L10.8573 12.4499C11.1969 12.7242 11.6084 12.8607 12.0198 12.8607C12.0224 12.8607 12.0244 12.8607 12.0263 12.8607C12.0283 12.8607 12.0309 12.8607 12.0328 12.8607C12.4443 12.8607 12.8557 12.7242 13.1953 12.4499L18.0443 8.57138C18.2552 8.40289 18.3153 8.10575 18.1886 7.86738Z" fill="white"/>
<rect x="0.5" y="0.5" width="23" height="23" rx="11.5" stroke="white"/>
</svg>
