<svg width="24" height="24" viewBox="0 0 24 24" fill="none" xmlns="http://www.w3.org/2000/svg">
<path d="M8.76377 13.3092L6.69334 11.1968C6.40397 10.9021 6.56339 10.3879 6.96328 10.3268M8.76377 13.3092L6.96328 10.3268M8.76377 13.3092C8.90712 13.4558 8.97276 13.667 8.93927 13.8739M8.76377 13.3092L8.93927 13.8739M6.96328 10.3268L7.04356 10.8528L7.04365 10.8534L7.07644 11.0683M6.96328 10.3268L7.04329 10.8531L7.04338 10.8537L7.07601 11.0683L7.07644 11.0683M7.07644 11.0683C7.1985 11.0496 7.26682 10.9588 7.28617 10.8964C7.30512 10.8353 7.29778 10.7423 7.22896 10.6718L7.54737 10.9967L7.07644 11.0683ZM14.3208 13.9961C14.3208 13.9959 14.3208 13.9958 14.3208 13.9956C14.2487 13.5583 14.3855 13.1052 14.7011 12.7838L14.7007 12.7842L15.2363 13.3091L14.7012 12.7836L16.4527 10.9967L14.0632 10.6334L14.0632 10.6333C13.6069 10.5639 13.2302 10.267 13.0394 9.86434L13.0388 9.86303L12 7.65985L10.9616 9.86237C10.9616 9.86254 10.9615 9.86272 10.9614 9.86289C10.9614 9.86294 10.9613 9.86299 10.9613 9.86303L14.3208 13.9961ZM14.3208 13.9961L15.0608 13.8739L14.3208 13.9961ZM15.2035 16.7377C15.0981 16.6798 14.974 16.7041 14.9018 16.759C14.8327 16.8115 14.7967 16.8992 14.8097 16.9783L14.7273 16.4756L15.2035 16.7377ZM15.2035 16.7377L15.0972 16.9311L15.0972 16.9312L14.8425 17.395L15.0978 16.9311L15.0978 16.931L15.204 16.738L15.2035 16.7377ZM8.79661 16.7377L9.27281 16.4756L9.19042 16.9783C9.20338 16.8992 9.16735 16.8115 9.09824 16.759C9.02609 16.7041 8.90201 16.6798 8.79661 16.7377ZM8.79661 16.7377L8.79605 16.738L8.9023 16.931L8.90231 16.9311L9.15751 17.3948L8.90287 16.9312L8.90286 16.9311L8.79661 16.7377ZM8.93927 13.8739L8.45029 16.857M8.93927 13.8739L8.45029 16.857M8.45029 16.857C8.38197 17.2737 8.79994 17.5915 9.15763 17.395L11.7164 15.987L8.45029 16.857ZM17.3068 11.1968L16.9572 10.8543L16.9567 10.8538L16.771 10.6719L16.7711 10.6718L16.9567 10.8537L16.9572 10.8542L17.3068 11.1968Z" stroke="currentColor" stroke-width="1.5"/>
<rect x="2.75" y="2.75" width="18.5" height="18.5" rx="9.25" stroke="currentColor" stroke-width="1.5"/>
</svg>
