<svg width="24" height="24" viewBox="0 0 24 24" fill="none" xmlns="http://www.w3.org/2000/svg">
<circle cx="12" cy="12" r="12" fill="white"/>
<path d="M12.0001 22.2863C17.6807 22.2863 22.2858 17.6812 22.2858 12.0006C22.2858 6.31991 17.6807 1.71484 12.0001 1.71484C6.31943 1.71484 1.71436 6.31991 1.71436 12.0006C1.71436 17.6812 6.31943 22.2863 12.0001 22.2863Z" fill="url(#paint0_linear_13770_20279)"/>
<path fill-rule="evenodd" clip-rule="evenodd" d="M12 5.28125C15.7614 5.28125 18.7829 8.24111 18.7829 11.8791C18.7829 15.5171 15.7614 18.477 12 18.477C11.26 18.477 10.551 18.3537 9.87262 18.1378L8.63941 18.662C7.93035 18.9703 7.65275 18.6928 7.65275 17.8295V16.9663C6.17288 15.7331 5.21704 13.9139 5.21704 11.8791C5.21704 8.241 8.26936 5.28125 11.9999 5.28125H12Z" fill="white"/>
<path fill-rule="evenodd" clip-rule="evenodd" d="M8.11527 13.5421L9.74935 11.0448C9.9652 10.6749 10.181 10.3048 10.6434 10.2123C10.9826 10.1199 11.26 10.2432 11.5375 10.459L12.9866 11.5381C13.2333 11.7231 13.2949 11.7231 13.5416 11.5381L15.4223 10.1507C15.9156 9.74994 16.3472 9.99661 16.0081 10.5516L14.2199 13.4189C14.2199 13.4189 13.819 14.0663 13.2642 14.0355C13.2642 14.0355 12.8634 14.0355 12.5859 13.7888L11.0443 12.5864C10.8593 12.4631 10.7668 12.4631 10.551 12.6172L8.6086 14.0971C8.05363 14.5288 7.71451 14.1588 8.11527 13.5421Z" fill="url(#paint1_linear_13770_20279)"/>
<rect x="0.5" y="0.5" width="23" height="23" rx="11.5" stroke="white"/>
<defs>
<linearGradient id="paint0_linear_13770_20279" x1="4.3562" y1="5.11803" x2="19.6439" y2="18.8831" gradientUnits="userSpaceOnUse">
<stop stop-color="#0496FB"/>
<stop offset="0.22" stop-color="#3F72FF"/>
<stop offset="0.49" stop-color="#784AFF"/>
<stop offset="0.66" stop-color="#B038EE"/>
<stop offset="0.77" stop-color="#CD40BE"/>
<stop offset="1" stop-color="#FF5A5A"/>
</linearGradient>
<linearGradient id="paint1_linear_13770_20279" x1="10.1755" y1="10.4448" x2="13.9028" y2="13.801" gradientUnits="userSpaceOnUse">
<stop stop-color="#0496FB"/>
<stop offset="0.22" stop-color="#3F72FF"/>
<stop offset="0.49" stop-color="#784AFF"/>
<stop offset="0.66" stop-color="#B038EE"/>
<stop offset="0.77" stop-color="#CD40BE"/>
<stop offset="1" stop-color="#FF5A5A"/>
</linearGradient>
</defs>
</svg>
