<svg width="24" height="24" viewBox="0 0 24 24" fill="none" xmlns="http://www.w3.org/2000/svg">
<path fill-rule="evenodd" clip-rule="evenodd" d="M12 21.837C17.799 21.837 22.5 17.2844 22.5 11.6685C22.5 6.05259 17.799 1.5 12 1.5C6.20101 1.5 1.5 6.05259 1.5 11.6685C1.5 14.7229 2.89059 17.4627 5.09211 19.3267V21.3844C5.09211 22.1886 5.91129 22.7281 6.64167 22.4048L8.9251 21.394C9.89761 21.682 10.9301 21.837 12 21.837Z" fill="#009DE2"/>
<path d="M9.33172 9.68499L6.10049 13.5517C5.75404 13.9663 6.37709 14.4644 6.85143 14.152L9.61052 12.3352C9.89137 12.1502 10.285 12.1477 10.5692 12.3291L13.023 13.8954C13.4936 14.1958 14.1662 14.1094 14.5088 13.7046L17.8976 9.70055C18.249 9.2853 17.6212 8.78321 17.1461 9.09963L14.2291 11.0427C13.9482 11.2298 13.5524 11.2332 13.267 11.0511L10.8211 9.48983C10.3486 9.18819 9.67288 9.27673 9.33172 9.68499Z" fill="white"/>
</svg>
