<svg width="24" height="24" viewBox="0 0 24 24" fill="none" xmlns="http://www.w3.org/2000/svg">
<path d="M3 12H2.24994L2.25006 12.0098L3 12ZM4.20003 16.4996L4.855 16.1342L4.84921 16.1238L4.84311 16.1136L4.20003 16.4996ZM7.56003 19.5661L7.99326 18.9539L7.9581 18.929L7.92033 18.9083L7.56003 19.5661ZM8 14.0263L7.37032 13.6189C7.18897 13.8991 7.21469 14.2655 7.43341 14.5177C7.65213 14.7699 8.0112 14.8472 8.31429 14.7073L8 14.0263ZM10.6053 10L11.0738 9.41435C10.9082 9.28192 10.6944 9.22573 10.4851 9.25968C10.2759 9.29364 10.0908 9.41458 9.97559 9.59256L10.6053 10ZM12.9737 11.8947L12.5052 12.4804C12.7473 12.6741 13.0837 12.6988 13.3516 12.5426L12.9737 11.8947ZM15.8158 10.2368L16.4795 10.5862C16.6353 10.29 16.5762 9.92649 16.3344 9.69508C16.0927 9.46367 15.7269 9.4204 15.4379 9.58901L15.8158 10.2368ZM13.4474 14.7368L12.9456 15.2943C13.1176 15.4491 13.3515 15.5158 13.5792 15.4752C13.807 15.4345 14.0033 15.2909 14.1111 15.0862L13.4474 14.7368ZM11.0789 12.6053L11.5807 12.0478C11.3578 11.8472 11.0369 11.7986 10.7647 11.9243L11.0789 12.6053ZM3.75 12C3.75 7.43037 7.2743 3.75 11.88 3.75V2.25C6.41202 2.25 2.25 6.6362 2.25 12H3.75ZM11.88 3.75C16.5126 3.75 20.25 7.45041 20.25 11.993H21.75C21.75 6.60223 17.3211 2.25 11.88 2.25V3.75ZM2.25006 12.0098C2.25872 12.669 2.25721 13.3691 2.42254 14.1593C2.59028 14.961 2.92145 15.8266 3.55695 16.8855L4.84311 16.1136C4.27858 15.173 4.01859 14.4632 3.89075 13.8521C3.7605 13.2296 3.75899 12.6797 3.74994 11.9902L2.25006 12.0098ZM3.54506 16.865C3.48836 16.7633 3.57253 16.7647 3.43674 17.0973C3.31726 17.3899 3.12542 17.7153 2.89506 18.1337C2.68703 18.5116 2.44014 18.9791 2.32836 19.4379C2.21174 19.9165 2.2085 20.5489 2.71344 21.0468L3.76662 19.9787C3.7626 19.9747 3.76619 19.9813 3.76549 19.9772C3.76248 19.96 3.75855 19.9045 3.78572 19.793C3.84396 19.554 3.9931 19.2495 4.20909 18.8571C4.40275 18.5054 4.66292 18.0623 4.82544 17.6643C4.97164 17.3063 5.16777 16.6948 4.855 16.1342L3.54506 16.865ZM2.71344 21.0468C3.22034 21.5466 3.87322 21.532 4.35298 21.4261C4.83187 21.3204 5.33173 21.085 5.749 20.8789C6.20396 20.6542 6.5704 20.46 6.89628 20.3383C7.05371 20.2796 7.16007 20.2546 7.2258 20.248C7.29046 20.2415 7.26201 20.258 7.19973 20.2239L7.92033 18.9083C7.62928 18.7489 7.32425 18.7306 7.0763 18.7554C6.82942 18.7802 6.58714 18.8526 6.37167 18.9331C5.95177 19.0898 5.47541 19.3411 5.08476 19.534C4.65643 19.7456 4.30786 19.9 4.02973 19.9613C3.8968 19.9907 3.82019 19.9889 3.78413 19.983C3.76854 19.9805 3.76392 19.9778 3.76564 19.9786C3.76803 19.9798 3.76894 19.981 3.76662 19.9787L2.71344 21.0468ZM20.25 11.993C20.25 16.5461 16.7506 20.2079 12.1674 20.2329L12.1756 21.7329C17.6154 21.7032 21.75 17.3395 21.75 11.993H20.25ZM12.1694 20.2329L12.1179 20.233L12.1221 21.733L12.1736 21.7329L12.1694 20.2329ZM7.1268 20.1783C8.11797 20.8797 8.85005 21.3151 9.63208 21.5419C10.4149 21.769 11.1879 21.7686 12.1984 21.7324L12.1446 20.2334C11.1299 20.2697 10.5768 20.2541 10.05 20.1013C9.5224 19.9483 8.96134 19.6389 7.99326 18.9539L7.1268 20.1783ZM8.62968 14.4338L11.2349 10.4074L9.97559 9.59256L7.37032 13.6189L8.62968 14.4338ZM10.1367 10.5857L12.5052 12.4804L13.4422 11.3091L11.0738 9.41435L10.1367 10.5857ZM13.3516 12.5426L16.1937 10.8847L15.4379 9.58901L12.5958 11.2469L13.3516 12.5426ZM15.1521 9.88753L12.7837 14.3875L14.1111 15.0862L16.4795 10.5862L15.1521 9.88753ZM13.9491 14.1794L11.5807 12.0478L10.5772 13.1627L12.9456 15.2943L13.9491 14.1794ZM10.7647 11.9243L7.68571 13.3453L8.31429 14.7073L11.3932 13.2862L10.7647 11.9243Z" fill="#130F26"/>
</svg>
