<svg width="24" height="24" viewBox="0 0 24 24" fill="none" xmlns="http://www.w3.org/2000/svg">
<path d="M3 12H2.24994L2.25006 12.0098L3 12ZM4.20003 16.4996L3.54506 16.865H3.54506L4.20003 16.4996ZM7.56003 19.5661L7.99326 18.9539L7.9581 18.929L7.92033 18.9083L7.56003 19.5661ZM7.53712 12.6201C7.22983 12.8979 7.20589 13.3721 7.48365 13.6794C7.76141 13.9867 8.23568 14.0106 8.54296 13.7329L7.53712 12.6201ZM10.92 10.5732L11.5236 10.1281C11.3979 9.95756 11.2059 9.84819 10.995 9.827C10.7842 9.80581 10.5743 9.87478 10.4171 10.0169L10.92 10.5732ZM12.84 13.1765L12.2364 13.6217C12.3586 13.7872 12.5433 13.8954 12.7475 13.9208C12.9516 13.9461 13.1573 13.8866 13.3162 13.7559L12.84 13.1765ZM16.1962 11.3894C16.5162 11.1264 16.5625 10.6538 16.2995 10.3337C16.0365 10.0137 15.5639 9.96747 15.2439 10.2304L16.1962 11.3894ZM3.75 12C3.75 7.43037 7.2743 3.75 11.88 3.75V2.25C6.41202 2.25 2.25 6.6362 2.25 12H3.75ZM11.88 3.75C16.5126 3.75 20.25 7.45041 20.25 11.993H21.75C21.75 6.60223 17.3211 2.25 11.88 2.25V3.75ZM2.25006 12.0098C2.26894 13.4469 2.42976 14.8658 3.54506 16.865L4.855 16.1342C3.89205 14.4081 3.76649 13.2505 3.74994 11.9902L2.25006 12.0098ZM3.54506 16.865C3.48836 16.7633 3.57253 16.7647 3.43674 17.0973C3.31726 17.3899 3.12542 17.7153 2.89506 18.1337C2.68703 18.5116 2.44014 18.9791 2.32836 19.4379C2.21174 19.9165 2.2085 20.5489 2.71344 21.0468L3.76662 19.9787C3.7626 19.9747 3.76619 19.9813 3.76549 19.9772C3.76248 19.96 3.75855 19.9045 3.78572 19.793C3.84396 19.554 3.9931 19.2495 4.20909 18.8571C4.40275 18.5054 4.66292 18.0623 4.82544 17.6643C4.97164 17.3063 5.16777 16.6948 4.855 16.1342L3.54506 16.865ZM2.71344 21.0468C3.22034 21.5466 3.87322 21.532 4.35298 21.4261C4.83187 21.3204 5.33173 21.085 5.749 20.8789C6.20396 20.6542 6.5704 20.46 6.89628 20.3383C7.05371 20.2796 7.16007 20.2546 7.2258 20.248C7.29046 20.2415 7.26201 20.258 7.19973 20.2239L7.92033 18.9083C7.62928 18.7489 7.32425 18.7306 7.0763 18.7554C6.82942 18.7802 6.58714 18.8526 6.37167 18.9331C5.95177 19.0898 5.47541 19.3411 5.08476 19.534C4.65643 19.7456 4.30786 19.9 4.02973 19.9613C3.8968 19.9907 3.82019 19.9889 3.78413 19.983C3.76854 19.9805 3.76392 19.9778 3.76564 19.9786C3.76803 19.9798 3.76894 19.981 3.76662 19.9787L2.71344 21.0468ZM20.25 11.993C20.25 16.5461 16.7506 20.2079 12.1674 20.2329L12.1756 21.7329C17.6154 21.7032 21.75 17.3395 21.75 11.993H20.25ZM12.1694 20.2329L12.1179 20.233L12.1221 21.733L12.1736 21.7329L12.1694 20.2329ZM7.1268 20.1783C8.11797 20.8797 8.85005 21.3151 9.63208 21.5419C10.4149 21.769 11.1879 21.7686 12.1984 21.7324L12.1446 20.2334C11.1299 20.2697 10.5768 20.2541 10.05 20.1013C9.5224 19.9483 8.96134 19.6389 7.99326 18.9539L7.1268 20.1783ZM8.54296 13.7329L11.423 11.1296L10.4171 10.0169L7.53712 12.6201L8.54296 13.7329ZM10.3164 11.0184L12.2364 13.6217L13.4436 12.7313L11.5236 10.1281L10.3164 11.0184ZM13.3162 13.7559L16.1962 11.3894L15.2439 10.2304L12.3639 12.597L13.3162 13.7559Z" fill="#130F26"/>
</svg>
