<svg width="18" height="18" viewBox="0 0 18 18" fill="none" xmlns="http://www.w3.org/2000/svg">
<path fill-rule="evenodd" clip-rule="evenodd" d="M2.25 9C2.25 5.27496 5.13237 2.25 8.91 2.25C12.6876 2.25 15.75 5.26974 15.75 8.99478C15.75 12.7071 12.8873 15.7167 9.12862 15.7372C7.60974 15.7916 7.13945 15.7144 5.67002 14.6746C5.36083 14.5052 4.81877 14.7767 4.25058 15.0612C3.55756 15.4082 2.82567 15.7747 2.43002 15.3846C2.03648 14.9965 2.40297 14.3392 2.75352 13.7104C3.04434 13.1888 3.32419 12.6869 3.15002 12.3747C2.27392 10.9149 2.26322 10.0579 2.25102 9.08035C2.25069 9.05366 2.25035 9.02688 2.25 9ZM6 10.5197L7.95395 7.5L9.73026 8.92105L11.8618 7.67763L10.0855 11.0526L8.30921 9.45395L6 10.5197Z" fill="white"/>
</svg>
