<svg width="24" height="24" viewBox="0 0 24 24" fill="none" xmlns="http://www.w3.org/2000/svg">
<path d="M15.125 11.05V5.59338C15.125 3.60881 13.4428 2 11.3678 2H10.672C8.98114 2 7.61046 3.31088 7.61046 4.92794M3.32697 4.27913L14.1694 14.1379M14.1694 14.1379L20 19.4395M14.1694 14.1379C14.1698 14.2673 14.0336 14.3952 13.8983 14.3955L10.8034 14.4023C8.95891 14.4063 7.46021 12.9795 7.45599 11.2155V8.03355M19.2685 10.3492C19.2685 14.7375 16.0833 18.0527 11.2023 18.0527M11.2023 18.0527C6.32119 18.0527 3.05056 14.296 3 10.3711M11.2023 18.0527V22" stroke="currentColor" stroke-width="1.5" stroke-linecap="round"/>
</svg>
