<svg width="24" height="24" viewBox="0 0 24 24" fill="none" xmlns="http://www.w3.org/2000/svg">
<circle cx="12" cy="12" r="9" stroke="currentColor" stroke-width="1.5"/>
<path d="M12.0501 13.5408C12.0501 13.4092 12.0303 13.2912 11.9908 13.1866C11.9545 13.0786 11.8853 12.9808 11.7831 12.8931C11.6809 12.802 11.5375 12.7126 11.3528 12.6249C11.1682 12.5372 10.9292 12.4461 10.6358 12.3517C10.3094 12.2437 9.99951 12.1223 9.7061 11.9874C9.41598 11.8524 9.15883 11.6956 8.93464 11.5168C8.71376 11.3346 8.53903 11.1238 8.41045 10.8843C8.28517 10.6447 8.22253 10.3664 8.22253 10.0493C8.22253 9.74236 8.28847 9.46405 8.42034 9.21442C8.55221 8.96142 8.73684 8.74552 8.97421 8.56673C9.21158 8.38457 9.4918 8.24457 9.81489 8.14674C10.1413 8.04892 10.499 8 10.888 8C11.4188 8 11.882 8.09783 12.2776 8.29349C12.6732 8.48914 12.9798 8.75733 13.1974 9.09804C13.2881 9.23795 13.3602 9.38611 13.4137 9.54251C13.5453 9.92758 13.1988 10.2669 12.7919 10.2669H12.6436C12.3186 10.2669 12.0781 9.98502 11.9215 9.70019C11.8358 9.5349 11.704 9.40502 11.5259 9.31056C11.3512 9.21611 11.1303 9.16888 10.8633 9.16888C10.6061 9.16888 10.3918 9.20936 10.2204 9.29032C10.049 9.36791 9.92039 9.47417 9.83467 9.60911C9.74895 9.74067 9.7061 9.8891 9.7061 10.0544C9.7061 10.1792 9.73577 10.2922 9.79511 10.3934C9.85775 10.4946 9.95006 10.5891 10.072 10.6768C10.194 10.7645 10.344 10.8471 10.5221 10.9247C10.7001 11.0023 10.9061 11.0782 11.1402 11.1524C11.5325 11.2739 11.877 11.4105 12.1738 11.5623C12.4738 11.7141 12.7243 11.8845 12.9254 12.0734C13.1265 12.2623 13.2782 12.4765 13.3804 12.716C13.4826 12.9555 13.5337 13.2271 13.5337 13.5307C13.5337 13.8512 13.4727 14.1379 13.3507 14.3909C13.2287 14.6439 13.0524 14.8581 12.8216 15.0335C12.5908 15.2089 12.3155 15.3422 11.9957 15.4333C11.6759 15.5244 11.3182 15.5699 10.9226 15.5699C10.5666 15.5699 10.2155 15.5227 9.86929 15.4282C9.52312 15.3304 9.20828 15.1836 8.92475 14.988C8.64453 14.7923 8.42034 14.5427 8.25221 14.2391C8.19259 14.1314 8.14355 14.0168 8.10507 13.8952C7.9811 13.5033 8.33321 13.1613 8.74425 13.1613H8.89326C9.22201 13.1613 9.4608 13.4419 9.59236 13.7432C9.66159 13.9018 9.75885 14.0299 9.88412 14.1278C10.0127 14.2256 10.1644 14.2964 10.3391 14.3403C10.5171 14.3841 10.7116 14.4061 10.9226 14.4061C11.1798 14.4061 11.3908 14.369 11.5556 14.2948C11.7237 14.2205 11.8474 14.1176 11.9265 13.9861C12.0089 13.8545 12.0501 13.7061 12.0501 13.5408Z" fill="currentColor"/>
<path d="M16.305 8C16.6473 8 16.8895 8.33488 16.7821 8.65997L14.4731 15.655C14.4052 15.8609 14.2128 16 13.996 16C13.6536 16 13.4115 15.6651 13.5188 15.34L15.8279 8.34497C15.8958 8.13908 16.0882 8 16.305 8Z" fill="currentColor"/>
</svg>
