<svg width="24" height="24" viewBox="0 0 24 24" fill="none" xmlns="http://www.w3.org/2000/svg">
<path fill-rule="evenodd" clip-rule="evenodd" d="M15.4817 20.4116C15.1925 20.7019 15.0478 20.847 14.8637 20.9235C14.6796 21 14.4747 21 14.0649 21L7.43828 21C5.03103 21.0078 3.05778 19.3817 3.00107 17.3428L3.00107 6.83611C2.94783 4.76381 4.88636 3.04653 7.3318 3.00044C7.36768 3.00044 7.4024 2.99946 7.43828 3.00044L16.6842 3.00044C19.1076 3.0838 21.0172 4.78048 20.9999 6.83611L20.9999 14.0471C20.9999 14.4548 20.9999 14.6586 20.9241 14.8421C20.8483 15.0255 20.7044 15.1699 20.4167 15.4587L15.4817 20.4116Z" stroke="currentColor" stroke-width="1.5" stroke-linecap="round" stroke-linejoin="round"/>
<path d="M14.8818 20.2433L14.8819 17.6783C14.8819 15.832 15.8237 14.5885 17.4848 14.5833L20.2444 14.5833" stroke="currentColor" stroke-width="1.5" stroke-linecap="round" stroke-linejoin="round"/>
<path d="M14.3817 9.30588L7.82959 9.30586" stroke="currentColor" stroke-width="1.5" stroke-linecap="round" stroke-linejoin="round"/>
<path d="M11.9941 14.0813L8.01221 14.0813" stroke="currentColor" stroke-width="1.5" stroke-linecap="round" stroke-linejoin="round"/>
</svg>
