<svg width="24" height="24" viewBox="0 0 24 24" fill="none" xmlns="http://www.w3.org/2000/svg">
<path d="M3.02282 6.86093C3.11487 5.91762 3.87534 5.17954 4.82002 5.10299C10.319 4.65741 13.9137 4.64146 19.2405 5.09529C20.1808 5.1754 20.9341 5.91275 21.028 6.85175C21.4057 10.6252 21.4268 13.3178 21.0359 17.1849C20.9394 18.14 20.1596 18.8806 19.2015 18.9397C13.8988 19.2666 10.2251 19.2472 4.88138 18.9348C3.90883 18.878 3.11938 18.1212 3.0301 17.1511C2.68308 13.3808 2.64884 10.6936 3.02282 6.86093Z" stroke="currentColor" stroke-width="1.5"/>
<rect x="6" y="9.00008" width="3.25" height="6" rx="1" stroke="currentColor" stroke-width="1.5"/>
<path d="M12.75 9.00008H13.9C13.9552 9.00008 14 9.04486 14 9.10008V14.7001M15.25 14.7001H12.75" stroke="currentColor" stroke-width="1.5" stroke-linecap="round"/>
</svg>
