<svg width="24" height="24" viewBox="0 0 24 24" fill="none" xmlns="http://www.w3.org/2000/svg">
<path d="M4.25098 12.5V6.49079C4.29998 4.41179 6.00498 2.75379 8.08498 2.76179H14.738L19.803 8.03779V12.5" stroke="currentColor" stroke-width="1.5" stroke-linecap="round" stroke-linejoin="round"/>
<path d="M14.4751 2.75V5.659C14.4751 7.079 15.6231 8.23 17.0431 8.234H19.7981" stroke="currentColor" stroke-width="1.5" stroke-linecap="round" stroke-linejoin="round"/>
<path d="M7.86535 16.9826C7.86535 17.2975 7.78944 17.5927 7.63762 17.8682C7.49142 18.1438 7.25807 18.3659 6.93757 18.5345C6.62269 18.7032 6.22346 18.7876 5.73989 18.7876H4.75307V20.097C4.75307 20.3732 4.52922 20.597 4.25307 20.597H4.07227C3.79612 20.597 3.57227 20.3732 3.57227 20.097V15.6608C3.57227 15.3847 3.79612 15.1608 4.07227 15.1608H5.73989C6.19535 15.1608 6.58333 15.2395 6.90383 15.397C7.22434 15.5544 7.46331 15.7709 7.62075 16.0464C7.78381 16.3219 7.86535 16.634 7.86535 16.9826ZM5.68929 17.8345C6.01541 17.8345 6.2572 17.7614 6.41464 17.6152C6.57208 17.4634 6.6508 17.2525 6.6508 16.9826C6.6508 16.4091 6.3303 16.1223 5.68929 16.1223H4.75307V17.8345H5.68929Z" fill="currentColor"/>
<path d="M13.1784 15.2972C13.6507 15.539 14.0134 15.8848 14.2664 16.3346C14.5251 16.7788 14.6226 17.0384 14.6226 17.6288C14.6226 18.083 14.5251 18.5433 14.2664 18.9875C14.0134 19.4261 13.6507 19.7663 13.1784 20.008C12.5204 20.3449 11.61 20.3913 10.9915 20.3913H10.3107C10.0346 20.3913 9.81071 20.1674 9.81071 19.8913V15.4551C9.81071 15.179 10.0346 14.9544 10.3106 14.9457C11.2871 14.915 12.3029 14.8436 13.1784 15.2972ZM12.9422 18.861C13.2796 18.5236 13.458 18.2417 13.458 17.6288C13.458 17.0159 13.2796 16.7957 12.9422 16.4527C12.3806 15.8724 11.4029 15.9503 10.9915 15.9503V19.3876C11.7619 19.3876 12.3606 19.4426 12.9422 18.861Z" fill="currentColor"/>
<path d="M20.1221 15.1608C20.3853 15.1608 20.5986 15.3742 20.5986 15.6373C20.5986 15.9005 20.3853 16.1139 20.1221 16.1139H18.1442V17.6236H19.557C19.8155 17.6236 20.0251 17.8332 20.0251 18.0917C20.0251 18.3503 19.8155 18.5598 19.557 18.5598H18.1442V20.097C18.1442 20.3732 17.9204 20.597 17.6442 20.597H17.4634C17.1873 20.597 16.9634 20.3732 16.9634 20.097V15.6608C16.9634 15.3847 17.1873 15.1608 17.4634 15.1608H20.1221Z" fill="currentColor"/>
</svg>
