<svg width="24" height="24" viewBox="0 0 24 24" fill="none" xmlns="http://www.w3.org/2000/svg">
<path d="M14.5974 8.88714L18.9142 12.3578M9.09829 17.4326L9.35731 18.3425C9.6268 19.2891 10.545 19.899 11.5221 19.7803L12.6021 19.6491C13.1381 19.5839 13.6251 19.3048 13.9522 18.8752L20.1019 10.7978C20.7586 9.93529 20.6086 8.70672 19.7638 8.02751L18.5655 7.06409C17.6885 6.35901 16.4027 6.51595 15.721 7.41127L9.43057 15.6735C9.0489 16.1748 8.92578 16.8267 9.09829 17.4326Z" stroke="currentColor" stroke-width="1.5"/>
<path d="M6.98051 3.99489C8.26157 3.8708 10.7345 4.32 10.3778 7.10955C9.93183 10.5965 3.64293 9.58052 3.28192 14.7333C3.07865 17.6346 5.23822 18.5716 6.71466 18.7339" stroke="currentColor" stroke-width="1.5" stroke-linecap="round"/>
</svg>
