<svg width="24" height="24" viewBox="0 0 24 24" fill="none" xmlns="http://www.w3.org/2000/svg">
<path fill-rule="evenodd" clip-rule="evenodd" d="M21.46 8.149V16.3C21.46 19.32 19.57 21.45 16.55 21.45H7.9C4.88 21.45 3 19.32 3 16.3V8.149C3 5.129 4.89 3 7.9 3H16.55C19.57 3 21.46 5.129 21.46 8.149Z" stroke="#616161" stroke-width="1.5" stroke-linecap="round" stroke-linejoin="round"/>
<path d="M5.28125 16.4342L6.80925 14.8212C7.34025 14.2582 8.22525 14.2312 8.78925 14.7612C8.80625 14.7782 9.72625 15.7132 9.72625 15.7132C10.2813 16.2782 11.1883 16.2872 11.7533 15.7332C11.7903 15.6972 14.0872 12.9112 14.0872 12.9112C14.6792 12.1922 15.7422 12.0892 16.4622 12.6822C16.5102 12.7222 18.6803 14.9492 18.6803 14.9492" stroke="#616161" stroke-width="1.5" stroke-linecap="round" stroke-linejoin="round"/>
<path fill-rule="evenodd" clip-rule="evenodd" d="M10.3127 9.13681C10.3127 10.1058 9.52769 10.8908 8.55869 10.8908C7.58969 10.8908 6.80469 10.1058 6.80469 9.13681C6.80469 8.16781 7.58969 7.38281 8.55869 7.38281C9.52769 7.38381 10.3127 8.16781 10.3127 9.13681Z" stroke="#616161" stroke-width="1.5" stroke-linecap="round" stroke-linejoin="round"/>
</svg>
