<svg width="48" height="48" viewBox="0 0 48 48" fill="none" xmlns="http://www.w3.org/2000/svg">
<path opacity="0.4" d="M44 24.0096C44 35.0275 35.0232 44 24 44C12.9768 44 4 35.0275 4 24.0096C4 12.9725 12.9768 4 24 4C35.0232 4 44 12.9725 44 24.0096Z" fill="black" fill-opacity="0.5"/>
<path d="M31.9998 24.0097C31.9998 24.5152 31.8407 25.0226 31.5225 25.4289C31.4628 25.5086 31.1844 25.8372 30.9657 26.051L30.8463 26.1677C29.1759 27.9388 25.0196 30.6022 22.9117 31.4556C22.9117 31.4751 21.6588 31.9825 21.0623 32H20.9827C20.0679 32 19.2128 31.4965 18.7753 30.68C18.5367 30.2309 18.3179 28.9283 18.2981 28.9108C18.1191 27.7424 17.9998 25.9538 17.9998 23.9903C17.9998 21.9315 18.1191 20.0632 18.3378 18.9162C18.3378 18.8967 18.5566 17.8469 18.6958 17.497C18.9145 16.9934 19.3123 16.5638 19.8094 16.2916C20.2071 16.0991 20.6248 16 21.0623 16C21.5196 16.0214 22.3748 16.3111 22.7128 16.4471C24.9401 17.3026 29.1958 20.1021 30.8265 21.8129C31.1049 22.0851 31.4032 22.4175 31.4827 22.4933C31.8208 22.921 31.9998 23.4459 31.9998 24.0097Z" fill="white"/>
</svg>
