<svg width="24" height="24" viewBox="0 0 24 24" fill="none" xmlns="http://www.w3.org/2000/svg">
<path d="M17.9536 8.5C17.985 8.20361 18 7.54499 18 7.54499C18 4.5 15.7773 3 12.0024 3C8.22744 3 6.01189 4.13993 6.01189 7.54499C6.01189 7.85588 5.98542 7.83834 6.01147 8.11228" stroke="currentColor" stroke-width="1.5" stroke-linecap="round" stroke-linejoin="round"/>
<path d="M6 17C3.8315 16.3138 3 15.0084 3 12.8134C3 9.20354 5.24985 8 11.9994 8C18.749 8 21 9.20354 21 12.8134C21 14.7295 20.366 15.9677 18.7622 16.7079" stroke="currentColor" stroke-width="1.5" stroke-linecap="round" stroke-linejoin="round"/>
<path fill-rule="evenodd" clip-rule="evenodd" d="M11.4997 15C7 15 6 15.7501 6 17.9998C6 20.2499 7.4999 21 11.9996 21C16.4993 21 18 20.2499 18 17.9998C18 15.7501 17.5001 15 11.4997 15Z" stroke="currentColor" stroke-width="1.5" stroke-linecap="round" stroke-linejoin="round"/>
<path d="M17.5226 12H17.4766" stroke="currentColor" stroke-width="1.5" stroke-linecap="round" stroke-linejoin="round"/>
</svg>
