<svg width="24" height="24" viewBox="0 0 24 24" fill="none" xmlns="http://www.w3.org/2000/svg">
<path fill-rule="evenodd" clip-rule="evenodd" d="M5.91003 18.1627C9.38886 21.6325 10.4842 21.7123 14.5676 17.6395C17.7426 14.4729 18.4049 13.4109 18.8121 11.784C19.1967 10.2472 18.888 7.20354 17.8929 6.21101C16.8978 5.21848 13.8052 4.86944 12.2466 5.23554C10.4276 5.66279 8.61966 7.34818 6.43455 9.5276C2.35112 13.6004 2.43119 14.6929 5.91003 18.1627Z" stroke="currentColor" stroke-width="1.5" stroke-linecap="round" stroke-linejoin="round"/>
<path d="M15.9178 8.38243C14.7546 7.22225 14.7546 5.34207 15.9178 4.18189C17.0802 3.02256 18.9653 3.02256 20.1285 4.18274C21.2908 5.34207 21.2908 7.22225 20.1285 8.38158C19.8459 8.66338 19.5208 8.87674 19.1738 9.02166" stroke="currentColor" stroke-width="1.5" stroke-linecap="round" stroke-linejoin="round"/>
<path d="M8.17236 13.1328L10.8691 15.8742" stroke="currentColor" stroke-width="1.5" stroke-linecap="round" stroke-linejoin="round"/>
</svg>
