<svg width="24" height="24" viewBox="0 0 24 24" fill="none" xmlns="http://www.w3.org/2000/svg">
<path d="M22 21.1742V15.3934C21.9978 13.4229 21.207 11.5337 19.8011 10.1404C18.3952 8.74698 16.489 7.96323 14.5007 7.96104H10.4761V6.65129C10.4761 6.32468 10.3783 6.00542 10.1952 5.73387C10.012 5.46233 9.75179 5.25068 9.44732 5.1257C9.14285 5.00072 8.80783 4.96802 8.48461 5.03172C8.16139 5.09542 7.86448 5.25266 7.63141 5.48358L2.73189 10.3386C2.26326 10.8032 2 11.4332 2 12.0901C2 12.7471 2.26326 13.3771 2.73189 13.8417L7.63141 18.6967C7.86448 18.9276 8.16139 19.0849 8.48461 19.1486C8.80783 19.2123 9.14285 19.1796 9.44732 19.0546C9.75179 18.9296 10.012 18.718 10.1952 18.4464C10.3783 18.1749 10.4761 17.8556 10.4761 17.529V16.2193H15.334C16.6595 16.2206 17.9304 16.743 18.8677 17.672C19.805 18.6009 20.3322 19.8605 20.3335 21.1742C20.3335 21.3932 20.4213 21.6033 20.5776 21.7581C20.7338 21.913 20.9458 22 21.1667 22C21.3877 22 21.5997 21.913 21.7559 21.7581C21.9122 21.6033 22 21.3932 22 21.1742ZM8.80963 8.78686C8.80963 9.00588 8.89742 9.21594 9.05368 9.37081C9.20995 9.52568 9.42189 9.61268 9.64288 9.61268H14.5007C16.0471 9.61443 17.5297 10.224 18.6232 11.3078C19.7166 12.3915 20.3317 13.8608 20.3335 15.3934V16.8089C19.7089 16.1044 18.9399 15.5401 18.0778 15.1536C17.2156 14.7671 16.2802 14.5673 15.334 14.5676H9.64288C9.42189 14.5676 9.20995 14.6546 9.05368 14.8095C8.89742 14.9644 8.80963 15.1744 8.80963 15.3934V17.529L3.91095 12.674C3.75474 12.5191 3.66698 12.3091 3.66698 12.0901C3.66698 11.8712 3.75474 11.6612 3.91095 11.5063L8.80963 6.65129V8.78686Z" fill="currentColor"/>
</svg>
