<svg width="24" height="24" viewBox="0 0 24 24" fill="none" xmlns="http://www.w3.org/2000/svg">
<g clip-path="url(#clip0_14515_69373)">
<path d="M22.2697 14.1045V19.8576C22.2697 16.6939 19.6706 14.0948 16.5069 14.0948H11.1237V16.2559C11.1237 16.947 10.2866 17.2975 9.79983 16.8107L7.07417 14.0948L4.8839 11.9143C4.3193 11.3497 4.3193 10.4249 4.8839 9.8603L7.15204 7.60189L9.79983 4.9541C10.2866 4.46738 11.1237 4.80809 11.1237 5.50897V7.60189H15.7671C19.3397 7.60189 22.2697 10.5222 22.2697 14.1045Z" stroke="currentColor" stroke-width="1.5" stroke-linejoin="round"/>
<path d="M6.62645 16.8107L3.90078 14.0948L2.46981 12.6736C1.48663 11.6904 1.48663 10.0939 2.46981 9.11074L3.97866 7.61163L6.62645 4.96384" stroke="currentColor" stroke-width="1.5" stroke-linecap="round" stroke-linejoin="round"/>
</g>
<defs>
<clipPath id="clip0_14515_69373">
<rect width="22" height="16.5876" fill="white" transform="translate(1 4.00012)"/>
</clipPath>
</defs>
</svg>
