<svg width="24" height="24" viewBox="0 0 24 24" fill="none" xmlns="http://www.w3.org/2000/svg">
<path d="M12.9061 7.7112C13.356 7.26166 13.966 7.00923 14.6019 7.00946C15.2379 7.00968 15.8478 7.26254 16.2973 7.7124C16.7468 8.16226 16.9993 8.77227 16.999 9.40825C16.9988 10.0442 16.746 10.6541 16.2961 11.1036C16.0733 11.3262 15.8089 11.5027 15.518 11.6231C15.227 11.7435 14.9151 11.8055 14.6002 11.8053C13.9643 11.8051 13.3544 11.5523 12.9049 11.1024C12.4554 10.6525 12.2029 10.0425 12.2032 9.40655C12.2034 8.77058 12.4562 8.16074 12.9061 7.7112ZM15.4477 8.5608C15.3376 8.44525 15.2055 8.35287 15.0591 8.28911C14.9128 8.22535 14.7552 8.19148 14.5956 8.18951C14.436 8.18753 14.2776 8.21748 14.1297 8.2776C13.9818 8.33772 13.8475 8.42679 13.7345 8.53958C13.6216 8.65237 13.5323 8.78661 13.472 8.93439C13.4116 9.08218 13.3815 9.24053 13.3832 9.40015C13.385 9.55976 13.4186 9.71742 13.4822 9.86384C13.5457 10.0103 13.6379 10.1425 13.7533 10.2528C13.9794 10.4689 14.2811 10.588 14.5939 10.5845C14.9066 10.5811 15.2056 10.4555 15.427 10.2344C15.6483 10.0134 15.7744 9.7146 15.7782 9.40184C15.7821 9.08909 15.6635 8.78723 15.4477 8.5608ZM14.0989 17.4048C13.7632 17.564 13.3865 17.6155 13.0203 17.5521C12.6542 17.4888 12.3167 17.3136 12.0541 17.0508L11.3221 16.32L10.4449 17.784C10.3981 17.8624 10.334 17.9291 10.2575 17.9789C10.181 18.0288 10.0942 18.0606 10.0035 18.0718C9.91292 18.083 9.82094 18.0734 9.73459 18.0437C9.64825 18.014 9.56983 17.965 9.50529 17.9004L6.10929 14.5032C6.04487 14.4388 5.99598 14.3605 5.96632 14.2743C5.93666 14.1881 5.92701 14.0964 5.93812 14.0059C5.94922 13.9155 5.98078 13.8287 6.0304 13.7523C6.08002 13.6759 6.1464 13.6118 6.22449 13.5648L7.68849 12.6864L6.95649 11.9544C6.69411 11.6917 6.51937 11.3544 6.45621 10.9885C6.39305 10.6227 6.44457 10.2462 6.60369 9.9108L5.25969 8.5668C5.14721 8.45428 5.08402 8.3017 5.08402 8.1426C5.08402 7.9835 5.14721 7.83092 5.25969 7.7184L6.53169 6.4464C7.05783 5.92012 7.734 5.56963 8.46733 5.44308C9.20067 5.31652 9.9552 5.42011 10.6273 5.7396L11.7517 4.6152C12.7267 3.64014 13.95 2.95056 15.289 2.6212C16.628 2.29185 18.0316 2.33528 19.3477 2.7468C19.7976 2.88754 20.2067 3.13516 20.54 3.46848C20.8733 3.8018 21.121 4.21091 21.2617 4.6608C22.1017 7.3428 21.3817 10.2696 19.3945 12.2568L18.2689 13.3824C18.5882 14.0545 18.6917 14.809 18.5652 15.5423C18.4386 16.2756 18.0882 16.9518 17.5621 17.478L16.2901 18.75C16.1776 18.8625 16.025 18.9257 15.8659 18.9257C15.7068 18.9257 15.5542 18.8625 15.4417 18.75L14.0977 17.406L14.0989 17.4048ZM18.9901 3.8928C17.8831 3.54629 16.7023 3.50949 15.5759 3.78639C14.4494 4.0633 13.4203 4.64334 12.6001 5.4636L11.6221 6.4416L11.6257 6.4464L10.7773 7.2948L10.7737 7.29L8.22729 9.8364L8.23089 9.8412L7.74849 10.3248C7.66291 10.4403 7.62165 10.5827 7.63222 10.7261C7.64279 10.8695 7.7045 11.0043 7.80609 11.106L12.9025 16.2024C13.0045 16.3044 13.1399 16.3663 13.2838 16.3767C13.4277 16.387 13.5705 16.3452 13.6861 16.2588L14.1673 15.7776L14.1721 15.7824L16.7185 13.236L16.7137 13.2312L17.5621 12.3828L17.5669 12.3876L18.5449 11.4084C19.3654 10.5883 19.9456 9.55926 20.2227 8.4328C20.4999 7.30635 20.4633 6.12552 20.1169 5.0184C20.0338 4.75359 19.8878 4.51287 19.6914 4.31683C19.4949 4.1208 19.2551 3.9753 18.9901 3.8928ZM15.0205 16.6308L15.8665 17.4768L16.7137 16.6284C17.0116 16.3309 17.2261 15.9604 17.3356 15.5539C17.4451 15.1474 17.4458 14.7193 17.3377 14.3124L15.0205 16.6308ZM9.6949 6.6708C9.28821 6.56288 8.8603 6.56372 8.45405 6.67324C8.04779 6.78275 7.67744 6.9971 7.38009 7.2948L6.53289 8.1432L7.37889 8.988L9.6949 6.6708ZM10.4485 15.4452L8.56449 13.5612L7.50129 14.1972L9.81129 16.5084L10.4485 15.4452ZM6.96249 17.8932C7.02197 17.8384 7.06975 17.7721 7.10295 17.6983C7.13616 17.6246 7.15411 17.5449 7.15573 17.464C7.15735 17.3831 7.1426 17.3028 7.11237 17.2278C7.08214 17.1527 7.03705 17.0846 6.97982 17.0275C6.92258 16.9703 6.85438 16.9253 6.77932 16.8952C6.70425 16.8651 6.62387 16.8504 6.543 16.8522C6.46213 16.8539 6.38245 16.872 6.30875 16.9053C6.23504 16.9386 6.16883 16.9864 6.11409 17.046L3.99249 19.1676C3.93519 19.2229 3.88948 19.2892 3.85803 19.3624C3.82659 19.4356 3.81004 19.5143 3.80934 19.594C3.80865 19.6736 3.82383 19.7526 3.854 19.8264C3.88417 19.9001 3.92872 19.9671 3.98506 20.0234C4.04139 20.0798 4.10838 20.1243 4.18212 20.1545C4.25586 20.1847 4.33487 20.1998 4.41453 20.1991C4.4942 20.1985 4.57293 20.1819 4.64614 20.1505C4.71934 20.119 4.78555 20.0733 4.84089 20.016L6.96249 17.8932ZM5.26449 15.348C5.37698 15.4605 5.44017 15.6131 5.44017 15.7722C5.44017 15.9313 5.37698 16.0839 5.26449 16.1964L4.41369 17.0472C4.30103 17.1597 4.14829 17.2228 3.98907 17.2227C3.82985 17.2226 3.6772 17.1593 3.56469 17.0466C3.45219 16.9339 3.38905 16.7812 3.38916 16.622C3.38927 16.4628 3.45263 16.3101 3.56529 16.1976L4.41609 15.348C4.52861 15.2355 4.6812 15.1723 4.84029 15.1723C4.99939 15.1723 5.15198 15.2355 5.26449 15.348ZM8.66049 19.5924C8.76543 19.4786 8.82229 19.3286 8.81919 19.1738C8.81609 19.019 8.75328 18.8713 8.64388 18.7618C8.53447 18.6522 8.38696 18.5892 8.23216 18.5859C8.07737 18.5826 7.92729 18.6392 7.81329 18.744L6.96129 19.5948C6.84879 19.7075 6.78565 19.8602 6.78576 20.0194C6.78587 20.1786 6.84923 20.3313 6.96189 20.4438C7.07456 20.5563 7.2273 20.6194 7.38652 20.6193C7.54574 20.6192 7.69839 20.5559 7.81089 20.4432L8.66049 19.5924Z" fill="currentColor"/>
</svg>
