<svg width="24" height="24" viewBox="0 0 24 24" fill="none" xmlns="http://www.w3.org/2000/svg">
<g id="Workflow">
<g id="Vector">
<path fill-rule="evenodd" clip-rule="evenodd" d="M1 5.35849C1 2.95136 2.95136 1 5.35849 1L7.84906 1C8.42218 1 8.88679 1.46461 8.88679 2.03774C8.88679 2.61086 8.42218 3.07547 7.84906 3.07547L5.35849 3.07547C4.09761 3.07547 3.07547 4.09761 3.07547 5.35849L3.07547 7.84906C3.07547 8.42218 2.61086 8.88679 2.03774 8.88679C1.46461 8.88679 1 8.42218 1 7.84906L1 5.35849Z" fill="currentColor"/>
<path fill-rule="evenodd" clip-rule="evenodd" d="M1 18.6415C1 21.0486 2.95136 23 5.35849 23H7.84906C8.42218 23 8.88679 22.5354 8.88679 21.9623C8.88679 21.3891 8.42218 20.9245 7.84906 20.9245H5.35849C4.09761 20.9245 3.07547 19.9024 3.07547 18.6415L3.07547 16.1509C3.07547 15.5778 2.61086 15.1132 2.03774 15.1132C1.46461 15.1132 1 15.5778 1 16.1509L1 18.6415Z" fill="currentColor"/>
<path fill-rule="evenodd" clip-rule="evenodd" d="M23 5.35849C23 2.95136 21.0486 1 18.6415 1L16.1509 1C15.5778 1 15.1132 1.46461 15.1132 2.03774C15.1132 2.61086 15.5778 3.07547 16.1509 3.07547L18.6415 3.07547C19.9024 3.07547 20.9245 4.09761 20.9245 5.35849V7.84906C20.9245 8.42218 21.3891 8.88679 21.9623 8.88679C22.5354 8.88679 23 8.42218 23 7.84906V5.35849Z" fill="currentColor"/>
<path fill-rule="evenodd" clip-rule="evenodd" d="M23 18.6415C23 21.0486 21.0486 23 18.6415 23H16.1509C15.5778 23 15.1132 22.5354 15.1132 21.9623C15.1132 21.3891 15.5778 20.9245 16.1509 20.9245H18.6415C19.9024 20.9245 20.9245 19.9024 20.9245 18.6415V16.1509C20.9245 15.5778 21.3891 15.1132 21.9623 15.1132C22.5354 15.1132 23 15.5778 23 16.1509V18.6415Z" fill="currentColor"/>
<path fill-rule="evenodd" clip-rule="evenodd" d="M2.86795 11.7924C2.86795 11.2193 3.33256 10.7547 3.90569 10.7547L20.0944 10.7547C20.6675 10.7547 21.1321 11.2193 21.1321 11.7924C21.1321 12.3656 20.6675 12.8302 20.0944 12.8302L3.90569 12.8302C3.33256 12.8302 2.86795 12.3656 2.86795 11.7924Z" fill="currentColor"/>
</g>
</g>
</svg>
