<svg width="24" height="24" viewBox="0 0 24 24" fill="none" xmlns="http://www.w3.org/2000/svg">
<path d="M13.2803 2.33331C12.8613 2.27835 12.434 2.25 12 2.25C6.61522 2.25 2.25 6.61522 2.25 12C2.25 17.3848 6.61522 21.75 12 21.75C17.3848 21.75 21.75 17.3848 21.75 12C21.75 11.3994 21.6957 10.8115 21.5917 10.2409" stroke="currentColor" stroke-width="1.5" stroke-linecap="round"/>
<path d="M7.54883 14.5C8.75555 15.4875 10.3188 16.2 11.9998 16.2C13.6807 16.2 15.2025 15.4875 16.4092 14.5" stroke="currentColor" stroke-width="1.5" stroke-linecap="round"/>
<path d="M8.4955 9.5H8.5045" stroke="currentColor" stroke-width="2.5" stroke-linecap="round" stroke-linejoin="round"/>
<path d="M15.4955 9.5H15.5045" stroke="currentColor" stroke-width="2.5" stroke-linecap="round" stroke-linejoin="round"/>
<path d="M18.8284 2.00018V7.65704M16 4.82861H21.6569" stroke="currentColor" stroke-width="1.5" stroke-linecap="round" stroke-linejoin="round"/>
</svg>
