<svg width="27" height="26" viewBox="0 0 27 26" fill="none" xmlns="http://www.w3.org/2000/svg">
<path fill-rule="evenodd" clip-rule="evenodd" d="M14 1C11.2851 1 11.0285 5.7287 9.41215 7.39943C7.79585 9.07017 2.77093 7.15989 2.07278 10.1254C1.3761 13.0924 5.89647 14.0991 6.45382 16.6446C7.0141 19.1901 4.2523 22.7666 6.61222 24.5465C8.97214 26.3248 11.5125 22.2996 14 22.2996C16.4875 22.2996 19.0278 26.3248 21.3878 24.5465C23.7477 22.7666 20.9874 19.1901 21.5462 16.6446C22.105 14.0991 26.6239 13.0924 25.9272 10.1254C25.2305 7.15989 20.2041 9.07017 18.5893 7.39943C16.973 5.7287 16.7149 1 14 1Z" fill="#EEEEEE" stroke="#EEEEEE" stroke-width="1.5" stroke-linecap="round" stroke-linejoin="round"/>
<path d="M8.74565 7.39943C10.3619 5.7287 10.6186 1 13.3335 1V22.2996C10.846 22.2996 8.30564 26.3248 5.94572 24.5465C3.58579 22.7666 6.34759 19.1901 5.78731 16.6446C5.22997 14.0991 0.709596 13.0924 1.40628 10.1254C2.10443 7.15989 7.12934 9.07017 8.74565 7.39943Z" fill="#023AFF" stroke="#023AFF" stroke-width="1.5" stroke-linecap="round" stroke-linejoin="round"/>
</svg>
