<svg width="16" height="16" viewBox="0 0 16 16" fill="none" xmlns="http://www.w3.org/2000/svg">
<path fill-rule="evenodd" clip-rule="evenodd" d="M7.99999 1C6.41632 1 6.2666 3.75841 5.32375 4.733C4.38091 5.7076 1.44971 4.59327 1.04246 6.32313C0.636058 8.05388 3.27294 8.64111 3.59806 10.126C3.92489 11.6109 2.31384 13.6972 3.69046 14.7354C5.06708 15.7728 6.54894 13.4248 7.99999 13.4248C9.45105 13.4248 10.9329 15.7728 12.3095 14.7354C13.6861 13.6972 12.076 11.6109 12.4019 10.126C12.7279 8.64111 15.3639 8.05388 14.9575 6.32313C14.5511 4.59327 11.6191 5.7076 10.6771 4.733C9.73424 3.75841 9.58366 1 7.99999 1Z" fill="#EEEEEE" stroke="#EEEEEE" stroke-width="1.5" stroke-linecap="round" stroke-linejoin="round"/>
</svg>
