<svg width="26" height="26" viewBox="0 0 26 26" fill="none" xmlns="http://www.w3.org/2000/svg">
<path fill-rule="evenodd" clip-rule="evenodd" d="M13 1C10.2851 1 10.0285 5.7287 8.41215 7.39943C6.79585 9.07017 1.77093 7.15989 1.07278 10.1254C0.3761 13.0924 4.89647 14.0991 5.45382 16.6446C6.0141 19.1901 3.2523 22.7666 5.61222 24.5465C7.97214 26.3248 10.5125 22.2996 13 22.2996C15.4875 22.2996 18.0278 26.3248 20.3878 24.5465C22.7477 22.7666 19.9874 19.1901 20.5462 16.6446C21.105 14.0991 25.6239 13.0924 24.9272 10.1254C24.2305 7.15989 19.2041 9.07017 17.5893 7.39943C15.973 5.7287 15.7149 1 13 1Z" fill="#0375F8"  stroke="#0375F8"  stroke-width="1.5" stroke-linecap="round" stroke-linejoin="round"/>
</svg>
