<svg width="24" height="24" viewBox="0 0 24 24" fill="none" xmlns="http://www.w3.org/2000/svg">
<path d="M6.30066 9.93518C6.47714 10.4585 7.04444 10.7397 7.56777 10.5632C8.0911 10.3867 8.37228 9.81944 8.19581 9.29611L6.30066 9.93518ZM11.3205 3.04299L11.2121 2.04889L11.1946 2.05079L11.1772 2.05331L11.3205 3.04299ZM16.2286 7.26823C16.3501 7.80697 16.8854 8.14516 17.4242 8.02359C17.9629 7.90203 18.3011 7.36675 18.1795 6.82801L16.2286 7.26823ZM7.68432 15.6725C7.70978 15.1209 7.28318 14.653 6.73148 14.6275C6.17978 14.6021 5.71191 15.0287 5.68645 15.5804L7.68432 15.6725ZM11.0273 20.9618L10.8999 21.9537C10.9104 21.955 10.9208 21.9562 10.9313 21.9572L11.0273 20.9618ZM17.0841 17.4326L16.1157 17.1831L16.1151 17.1852L17.0841 17.4326ZM17.0841 14.9052L16.148 15.2572V15.2572L17.0841 14.9052ZM3.00744 10.9264C2.45517 10.9223 2.00414 11.3666 2.00003 11.9189C1.99592 12.4712 2.44029 12.9222 2.99256 12.9263L3.00744 10.9264ZM21 13.0115C21.5523 13.0115 22 12.5638 22 12.0115C22 11.4593 21.5523 11.0115 21 11.0115V13.0115ZM8.19581 9.29611C7.78975 8.09195 7.84096 6.88423 8.33031 5.95484C8.80212 5.05875 9.75479 4.28011 11.4638 4.03267L11.1772 2.05331C8.93128 2.37848 7.3734 3.47938 6.56062 5.02306C5.76537 6.53344 5.75793 8.32575 6.30066 9.93518L8.19581 9.29611ZM11.429 4.03709C12.9252 3.87383 14.0061 4.26633 14.7606 4.86766C15.533 5.48326 16.0256 6.36871 16.2286 7.26823L18.1795 6.82801C17.8907 5.54775 17.1828 4.24064 16.0071 3.30362C14.8135 2.35232 13.1985 1.83215 11.2121 2.04889L11.429 4.03709ZM5.68645 15.5804C5.61962 17.0287 5.90314 18.5007 6.76018 19.6928C7.63456 20.909 9.01871 21.7121 10.8999 21.9537L11.1546 19.9699C9.73115 19.7872 8.88442 19.2213 8.38407 18.5253C7.86637 17.8052 7.6313 16.8218 7.68432 15.6725L5.68645 15.5804ZM10.9313 21.9572C14.8679 22.3369 17.4302 20.1197 18.053 17.6799L16.1151 17.1852C15.7542 18.5993 14.1519 20.2586 11.1233 19.9664L10.9313 21.9572ZM18.0524 17.682C18.3292 16.6076 18.3857 15.5257 18.0201 14.5533L16.148 15.2572C16.3161 15.7043 16.3351 16.3312 16.1157 17.1831L18.0524 17.682ZM18.0201 14.5533C17.6632 13.6041 16.5845 12.2006 14.9866 11.171L13.9033 12.8521C15.216 13.698 15.9712 14.7869 16.148 15.2572L18.0201 14.5533ZM14.4524 11.0116L3.00744 10.9264L2.99256 12.9263L14.4375 13.0115L14.4524 11.0116ZM14.4449 13.0115H21V11.0115H14.4449V13.0115Z" fill="#130F26"/>
</svg>
