<svg width="14" height="15" viewBox="0 0 14 15" fill="none" xmlns="http://www.w3.org/2000/svg">
<path fill-rule="evenodd" clip-rule="evenodd" d="M7.35732 9.89736L9.2382 10.7526L12.5196 4.5486C12.7002 4.20725 12.566 3.78502 12.221 3.60879L5.95581 0.408806C5.61829 0.236412 5.20408 0.363884 5.02352 0.695717L1.43048 7.29896L2.8085 7.94694L3.44871 6.51606L6.1099 7.73856L5.80163 8.38661L7.66546 9.24914L7.35732 9.89736ZM6.13001 11.002L6.79703 9.5596L5.34844 8.89076L4.68115 10.3332L6.13001 11.002ZM4.55062 9.45988L5.20503 8.01266L3.76025 7.35236L3.09321 8.79481L4.55062 9.45988ZM7.71026 12.5228L8.37696 11.0806L6.92871 10.4115L6.26162 11.8539L7.71026 12.5228ZM6.1134 13.5383L6.6072 12.4593L5.5196 11.9556L5.02955 13.0431L6.1134 13.5383ZM3.21214 10.8085L3.70565 9.72962L2.61829 9.22541L2.12466 10.3049L3.21214 10.8085ZM1.78316 9.47035L2.27693 8.39123L1.18977 7.88763L0.699951 8.97498L1.78316 9.47035ZM3.24795 13.0126L3.57699 12.2933L2.85462 11.9631L2.52558 12.6822L3.24795 13.0126ZM4.64783 14.332L4.97322 13.6042L4.25098 13.2739L3.92146 13.9934L4.64783 14.332ZM1.86046 11.6978L2.18952 10.9786L1.46703 10.6486L1.12931 11.3714L1.86046 11.6978ZM4.65337 12.2238L5.1472 11.1448L4.06336 10.6497L3.56995 11.7286L4.65337 12.2238ZM9.63948 3.87895C9.82529 3.9761 9.89716 4.20548 9.80001 4.39129C9.70286 4.57709 9.47348 4.64897 9.28767 4.55182L6.86241 3.2838C6.6766 3.18665 6.60473 2.95727 6.70188 2.77146C6.79903 2.58565 7.02841 2.51378 7.21421 2.61093L9.63948 3.87895Z" fill="black" fill-opacity="0.38"/>
</svg>
