<svg width="24" height="24" viewBox="0 0 24 24" fill="none" xmlns="http://www.w3.org/2000/svg">
<path d="M8.59082 16.7733C8.40998 16.7733 8.23655 16.8452 8.10867 16.973C7.9808 17.1009 7.90896 17.2743 7.90896 17.4552V19.087C6.34874 18.1865 5.1293 16.7964 4.43979 15.1321C3.75029 13.4679 3.62926 11.6226 4.09548 9.88256C4.56171 8.14251 5.58912 6.60496 7.01836 5.50841C8.44759 4.41185 10.1987 3.8176 12.0002 3.81784C12.181 3.81784 12.3544 3.746 12.4823 3.61812C12.6102 3.49025 12.682 3.31681 12.682 3.13597C12.682 2.95513 12.6102 2.78169 12.4823 2.65382C12.3544 2.52594 12.181 2.4541 12.0002 2.4541C9.91312 2.45422 7.88361 3.13827 6.22231 4.40152C4.561 5.66477 3.35943 7.43763 2.80153 9.44872C2.24362 11.4598 2.36011 13.5983 3.13318 15.5369C3.90625 17.4755 5.29329 19.1073 7.08199 20.1827H5.18149C5.00064 20.1827 4.82721 20.2545 4.69933 20.3824C4.57146 20.5102 4.49962 20.6837 4.49962 20.8645C4.49962 21.0454 4.57146 21.2188 4.69933 21.3467C4.82721 21.4745 5.00064 21.5464 5.18149 21.5464H8.59082C8.77167 21.5464 8.9451 21.4745 9.07298 21.3467C9.20085 21.2188 9.27269 21.0454 9.27269 20.8645V17.4552C9.27269 17.2743 9.20085 17.1009 9.07298 16.973C8.9451 16.8452 8.77167 16.7733 8.59082 16.7733Z" fill="currentColor"/>
<path d="M16.9184 3.81784H18.8189C18.9997 3.81784 19.1732 3.746 19.3011 3.61812C19.4289 3.49025 19.5008 3.31681 19.5008 3.13597C19.5008 2.95513 19.4289 2.78169 19.3011 2.65382C19.1732 2.52594 18.9997 2.4541 18.8189 2.4541H15.4149C15.2342 2.4541 15.0609 2.5258 14.9331 2.65345C14.8052 2.78111 14.7333 2.95428 14.733 3.13495L14.7277 6.54428C14.7274 6.72507 14.799 6.89856 14.9266 7.02661C15.0542 7.15467 15.2274 7.22681 15.4082 7.22717H15.4096C15.5902 7.22717 15.7635 7.15547 15.8914 7.02782C16.0192 6.90017 16.0912 6.72699 16.0914 6.54633L16.0938 4.91482C17.6535 5.81571 18.8724 7.20606 19.5614 8.87027C20.2504 10.5345 20.371 12.3795 19.9046 14.1193C19.4381 15.859 18.4106 17.3962 16.9815 18.4925C15.5524 19.5888 13.8014 20.1829 12.0002 20.1827C11.8194 20.1827 11.6459 20.2545 11.5181 20.3824C11.3902 20.5102 11.3184 20.6837 11.3184 20.8645C11.3184 21.0454 11.3902 21.2188 11.5181 21.3467C11.6459 21.4745 11.8194 21.5464 12.0002 21.5464C14.0873 21.5463 16.1168 20.8622 17.7781 19.599C19.4394 18.3357 20.641 16.5629 21.1989 14.5518C21.7568 12.5407 21.6403 10.4022 20.8672 8.46358C20.0941 6.52499 18.7071 4.89315 16.9184 3.81784Z" fill="currentColor"/>
</svg>
