<svg width="24" height="24" viewBox="0 0 24 24" fill="none" xmlns="http://www.w3.org/2000/svg">
<path d="M12 1.5C6.20096 1.5 1.5 6.20096 1.5 12C1.5 17.799 6.20096 22.5 12 22.5C17.799 22.5 22.5 17.799 22.5 12C22.5 6.20096 17.799 1.5 12 1.5Z" fill="#40B3E0"/>
<path fill-rule="evenodd" clip-rule="evenodd" d="M15.4813 16.8179L17.3568 7.36229L17.3567 7.36245C17.3567 6.73294 16.4911 7.11324 16.4911 7.11324L5.96029 11.2443C5.96029 11.2443 5.46186 11.4148 5.50124 11.7295C5.54061 12.0443 5.94716 12.1885 5.94716 12.1885L8.59592 13.0802C8.59577 13.0798 8.5957 13.0795 8.5957 13.0795L14.9562 9.04032C14.9562 9.04032 15.3235 8.81736 15.3104 9.04032C15.3104 9.04032 15.3759 9.07969 15.1791 9.26328C14.9825 9.44695 10.1826 13.7615 10.1826 13.7615L10.173 13.8433L14.4978 17.159C15.2191 17.4737 15.4813 16.8179 15.4813 16.8179Z" fill="white"/>
</svg>
