<svg width="24" height="24" viewBox="0 0 24 24" fill="none" xmlns="http://www.w3.org/2000/svg">
<path d="M17.4183 18.8479C18.9916 18.8479 20.1877 18.1029 20.7489 16.7783H20.8041V18.0845C20.8041 18.5628 21.1078 18.8571 21.5403 18.8571C21.9818 18.8571 22.2855 18.5535 22.2855 18.0753V9.35555C22.2855 8.88645 21.9818 8.55533 21.5403 8.55533C21.1078 8.55533 20.8041 8.88645 20.8041 9.35555V10.6525H20.7489C20.1877 9.35555 18.9364 8.57372 17.4183 8.57372C14.9249 8.57372 13.2596 10.6433 13.2596 13.7154C13.2596 16.806 14.9249 18.8479 17.4183 18.8479ZM17.7863 17.505C15.9921 17.505 14.8513 16.0425 14.8513 13.7154C14.8513 11.3883 15.9921 9.91663 17.7863 9.91663C19.5805 9.91663 20.7582 11.4343 20.7582 13.7338C20.7582 16.0333 19.5989 17.505 17.7863 17.505ZM1.6298 18.7835C2.11744 18.7835 2.35666 18.5995 2.53147 18.0845L3.71837 14.8376H9.14681L10.3337 18.0845C10.5085 18.5995 10.7478 18.7835 11.2262 18.7835C11.7138 18.7835 12.0267 18.4892 12.0267 18.0293C12.0267 17.873 11.999 17.7257 11.9255 17.5326L7.61028 6.04426C7.39867 5.48318 7.02143 5.19804 6.43259 5.19804C5.86214 5.19804 5.47571 5.47398 5.27329 6.03506L0.958142 17.5418C0.884536 17.735 0.856934 17.8821 0.856934 18.0385C0.856934 18.4984 1.15136 18.7835 1.6298 18.7835ZM4.1692 13.4395L6.40499 7.2492H6.45099L8.68677 13.4395H4.1692Z" fill="currentColor"/>
</svg>
