<svg width="24" height="24" viewBox="0 0 24 24" fill="none" xmlns="http://www.w3.org/2000/svg">
<path fill-rule="evenodd" clip-rule="evenodd" d="M21.4404 13.9942C18.7794 13.9942 18.7794 9.87976 21.4404 9.87976C21.4404 5.11261 21.4404 3.41113 12.0454 3.41113C2.65039 3.41113 2.65039 5.11261 2.65039 9.87976C5.31139 9.87976 5.31139 13.9942 2.65039 13.9942C2.65039 18.7623 2.65039 20.4638 12.0454 20.4638C21.4404 20.4638 21.4404 18.7623 21.4404 13.9942Z" stroke="currentColor" stroke-width="1.5" stroke-linecap="round" stroke-linejoin="round"/>
<path fill-rule="evenodd" clip-rule="evenodd" d="M12.0456 9.17139C11.3626 9.17139 11.2976 10.2609 10.8916 10.6464C10.4846 11.0311 9.2216 10.5915 9.0456 11.2745C8.8706 11.9585 10.0076 12.1906 10.1486 12.7771C10.2886 13.3635 9.5946 14.1877 10.1876 14.5989C10.7816 15.0081 11.4206 14.0806 12.0456 14.0806C12.6706 14.0806 13.3096 15.0081 13.9036 14.5989C14.4976 14.1877 13.8026 13.3635 13.9426 12.7771C14.0836 12.1906 15.2206 11.9585 15.0456 11.2745C14.8696 10.5915 13.6066 11.0311 13.1996 10.6464C12.7936 10.2609 12.7286 9.17139 12.0456 9.17139Z" stroke="currentColor" stroke-width="1.5" stroke-linecap="round" stroke-linejoin="round"/>
</svg>
