<svg width="24" height="24" viewBox="0 0 24 24" fill="none" xmlns="http://www.w3.org/2000/svg">
<rect width="24" height="24" rx="12" fill="black"/>
<path d="M16.2477 8.35811C16.1596 8.31368 16.0738 8.26498 15.9907 8.21219C15.7492 8.05649 15.5278 7.87306 15.3312 7.66582C14.8387 7.11663 14.6548 6.55952 14.5875 6.16983H14.5898C14.5335 5.84574 14.5567 5.63647 14.5608 5.63647H12.3187V14.0881C12.3187 14.2013 12.3187 14.3138 12.3141 14.4247C12.3141 14.4382 12.3123 14.4507 12.3118 14.466C12.3118 14.4716 12.3118 14.4784 12.31 14.4846V14.4897C12.2865 14.7929 12.1869 15.0858 12.02 15.3426C11.853 15.5994 11.624 15.8123 11.3528 15.9625C11.07 16.1194 10.7501 16.2017 10.4247 16.2012C9.38052 16.2012 8.53357 15.3709 8.53357 14.3455C8.53357 13.3195 9.38052 12.4892 10.4247 12.4892C10.6225 12.4892 10.8192 12.5197 11.0071 12.5797L11.01 10.3535C10.4392 10.2817 9.85932 10.3261 9.30698 10.4838C8.75464 10.6415 8.24182 10.9091 7.80091 11.2698C7.41448 11.597 7.08958 11.9875 6.84085 12.4236C6.74629 12.5825 6.38895 13.2222 6.34602 14.2595C6.31876 14.8477 6.50033 15.4586 6.58676 15.7103V15.7159C6.64071 15.8641 6.85187 16.3709 7.19529 16.7979C7.47222 17.1407 7.79943 17.4418 8.16637 17.6915V17.6859L8.17159 17.6915C9.25637 18.4098 10.4601 18.3629 10.4601 18.3629C10.6683 18.3544 11.3662 18.3629 12.1586 17.997C13.0375 17.5909 13.5375 16.9862 13.5375 16.9862C13.8572 16.6249 14.1114 16.2131 14.2893 15.7685C14.4923 15.2482 14.5596 14.6249 14.5596 14.376V9.89144C14.5869 9.90727 14.9495 10.1409 14.9495 10.1409C14.9495 10.1409 15.4715 10.4672 16.2854 10.6793C16.869 10.8303 17.6562 10.8626 17.6562 10.8626V8.69238C17.3806 8.72179 16.8209 8.63695 16.2471 8.35868L16.2477 8.35811Z" fill="white"/>
</svg>
