<svg width="24" height="24" viewBox="0 0 24 24" fill="none" xmlns="http://www.w3.org/2000/svg">
<path d="M1.30775 18.7114C1.14836 19.0937 1.32907 19.5328 1.71139 19.6922C2.09371 19.8516 2.53285 19.6709 2.69225 19.2886L1.30775 18.7114ZM4.03249 14.125L3.34024 13.8364L4.03249 14.125ZM10.8074 14.125L11.5038 13.8463L11.4997 13.8364L10.8074 14.125ZM12.0621 19.2787C12.216 19.6632 12.6525 19.8502 13.037 19.6963C13.4216 19.5424 13.6086 19.1059 13.4547 18.7213L12.0621 19.2787ZM7.41997 6L8.11221 5.71139C7.99572 5.43198 7.72268 5.25 7.41997 5.25C7.11725 5.25 6.84421 5.43198 6.72772 5.71139L7.41997 6ZM21.9961 12.0312C21.9961 11.617 21.6603 11.2812 21.2461 11.2812C20.8319 11.2812 20.4961 11.617 20.4961 12.0312H21.9961ZM20.4961 18.4915C20.4961 18.9057 20.8319 19.2415 21.2461 19.2415C21.6603 19.2415 21.9961 18.9057 21.9961 18.4915H20.4961ZM2.69225 19.2886L4.72473 14.4136L3.34024 13.8364L1.30775 18.7114L2.69225 19.2886ZM4.03249 14.875H10.8074V13.375H4.03249V14.875ZM10.1111 14.4037L12.0621 19.2787L13.4547 18.7213L11.5038 13.8463L10.1111 14.4037ZM4.72473 14.4136L8.11221 6.28861L6.72772 5.71139L3.34024 13.8364L4.72473 14.4136ZM6.72772 6.28861L10.1152 14.4136L11.4997 13.8364L8.11221 5.71139L6.72772 6.28861ZM20.4961 15.2271C20.4961 16.6156 19.3705 17.7412 17.9819 17.7412V19.2412C20.1989 19.2412 21.9961 17.444 21.9961 15.2271H20.4961ZM17.9819 17.7412C16.5934 17.7412 15.4678 16.6156 15.4678 15.2271H13.9678C13.9678 17.444 15.765 19.2412 17.9819 19.2412V17.7412ZM15.4678 15.2271C15.4678 13.8385 16.5934 12.7129 17.9819 12.7129V11.2129C15.765 11.2129 13.9678 13.0101 13.9678 15.2271H15.4678ZM17.9819 12.7129C19.3705 12.7129 20.4961 13.8385 20.4961 15.2271H21.9961C21.9961 13.0101 20.1989 11.2129 17.9819 11.2129V12.7129ZM20.4961 12.0312V18.4915H21.9961V12.0312H20.4961Z" fill="currentColor"/>
</svg>
