<svg width="24" height="24" viewBox="0 0 24 24" fill="none" xmlns="http://www.w3.org/2000/svg">
<path d="M10.3561 19.1762C10.3561 20.7363 9.09142 22.001 7.53133 22.001C5.97124 22.001 4.70654 20.7363 4.70654 19.1762C4.70654 18.6616 4.8441 18.1793 5.08445 17.7638C5.43883 17.1512 6.68753 17.2593 7.7331 17.2593C9.18439 17.2593 9.24638 17.2593 9.97821 17.7638C10.2186 18.1793 10.3561 18.6616 10.3561 19.1762Z" fill="white"/>
<path fill-rule="evenodd" clip-rule="evenodd" d="M7.53133 20.4877C8.25565 20.4877 8.84284 19.9005 8.84284 19.1762C8.84284 19.0436 8.8236 18.917 8.78793 18.7981C8.75915 18.7934 8.6895 18.7849 8.5394 18.7795C8.35123 18.7728 8.10657 18.7726 7.7331 18.7726C7.59104 18.7726 7.44759 18.7708 7.31388 18.769L7.30255 18.7689C7.16989 18.7671 7.04628 18.7655 6.9248 18.7653C6.67093 18.7647 6.46761 18.7706 6.30266 18.7873C6.29387 18.7882 6.28536 18.7891 6.27716 18.7901C6.23993 18.9113 6.21982 19.0407 6.21982 19.1762C6.21982 19.9005 6.807 20.4877 7.53133 20.4877ZM9.97821 17.7638C9.24639 17.2593 9.18439 17.2593 7.73319 17.2593H7.7331C7.59768 17.2593 7.45885 17.2575 7.31901 17.2557C6.37908 17.2434 5.39293 17.2305 5.08445 17.7638C4.8441 18.1793 4.70654 18.6616 4.70654 19.1762C4.70654 20.7363 5.97124 22.001 7.53133 22.001C9.09142 22.001 10.3561 20.7363 10.3561 19.1762C10.3561 18.6616 10.2186 18.1793 9.97821 17.7638Z" fill="currentColor"/>
<path d="M19.6375 19.1762C19.6375 20.7363 18.3728 22.001 16.8128 22.001C15.2527 22.001 13.988 20.7363 13.988 19.1762C13.988 18.6616 14.1255 18.1793 14.3659 17.7638C14.7203 17.1512 15.969 17.2593 17.0145 17.2593C18.4658 17.2593 18.5278 17.2593 19.2596 17.7638C19.5 18.1793 19.6375 18.6616 19.6375 19.1762Z" fill="white"/>
<path fill-rule="evenodd" clip-rule="evenodd" d="M16.8128 20.4877C17.5371 20.4877 18.1243 19.9005 18.1243 19.1762C18.1243 19.0436 18.105 18.917 18.0694 18.7981C18.0406 18.7934 17.9709 18.7849 17.8208 18.7795C17.6327 18.7728 17.388 18.7726 17.0145 18.7726C16.8725 18.7726 16.729 18.7708 16.5953 18.769L16.584 18.7689C16.4513 18.7671 16.3277 18.7655 16.2062 18.7653C15.9524 18.7647 15.749 18.7706 15.5841 18.7873C15.5753 18.7882 15.5668 18.7891 15.5586 18.7901C15.5214 18.9113 15.5013 19.0407 15.5013 19.1762C15.5013 19.9005 16.0884 20.4877 16.8128 20.4877ZM19.2596 17.7638C18.5278 17.2593 18.4658 17.2593 17.0146 17.2593H17.0145C16.8791 17.2593 16.7403 17.2575 16.6004 17.2557C15.6605 17.2434 14.6744 17.2305 14.3659 17.7638C14.1255 18.1793 13.988 18.6616 13.988 19.1762C13.988 20.7363 15.2527 22.001 16.8128 22.001C18.3728 22.001 19.6375 20.7363 19.6375 19.1762C19.6375 18.6616 19.5 18.1793 19.2596 17.7638Z" fill="currentColor"/>
<path fill-rule="evenodd" clip-rule="evenodd" d="M12.7774 4.14414H5.7154C4.32247 4.14414 3.19327 5.27334 3.19327 6.66627V14.7371C3.19327 16.13 4.32247 17.2592 5.7154 17.2592H15.2995V6.66627C15.2995 5.27333 14.1703 4.14414 12.7774 4.14414ZM5.7154 2.63086C3.48671 2.63086 1.67999 4.43758 1.67999 6.66627V14.7371C1.67999 16.9658 3.4867 18.7725 5.7154 18.7725H16.8128V6.66627C16.8128 4.43757 15.0061 2.63086 12.7774 2.63086H5.7154Z" fill="currentColor"/>
<path fill-rule="evenodd" clip-rule="evenodd" d="M18.3261 8.17929H16.8128V17.259H18.3261C19.719 17.259 20.8482 16.1298 20.8482 14.7368V10.7014C20.8482 9.30849 19.719 8.17929 18.3261 8.17929ZM15.2995 6.66602V18.7722H18.3261C20.5548 18.7722 22.3615 16.9655 22.3615 14.7368V10.7014C22.3615 8.47273 20.5548 6.66602 18.3261 6.66602H15.2995Z" fill="currentColor"/>
</svg>
