<svg width="21" height="17" viewBox="0 0 21 17" fill="none" xmlns="http://www.w3.org/2000/svg">
<path d="M6.99997 16.7027C4.66018 16.7027 2.4791 16.0221 0.643311 14.8479C2.20196 14.9488 4.95262 14.7072 6.66353 13.0753C4.08976 12.9572 2.92904 10.9832 2.77764 10.1397C2.99633 10.224 4.0393 10.3252 4.62807 10.089C1.66739 9.3467 1.2132 6.74849 1.31413 5.95553C1.86926 6.34357 2.81129 6.47855 3.18137 6.4448C0.422563 4.47084 1.41506 1.50146 1.9029 0.860342C3.88272 3.60322 6.84986 5.14373 10.5206 5.22941C10.4514 4.92587 10.4148 4.60984 10.4148 4.28525C10.4148 1.95579 12.2977 0.0673828 14.6203 0.0673828C15.8339 0.0673828 16.9274 0.582899 17.695 1.40749C18.5059 1.21746 19.7264 0.772623 20.323 0.387941C20.0223 1.46772 19.086 2.36847 18.5197 2.70232C18.515 2.69092 18.5244 2.71368 18.5197 2.70232C19.0171 2.62707 20.3632 2.36838 20.895 2.0076C20.632 2.61421 19.6393 3.6228 18.8247 4.18745C18.9763 10.8717 13.8622 16.7027 6.99997 16.7027Z" fill="white"/>
</svg>
