<svg width="24" height="24" viewBox="0 0 24 24" fill="none" xmlns="http://www.w3.org/2000/svg">
<path d="M15.3271 4.10062C15.3271 4.10062 16.7782 4.10097 18.3659 4.10062C19.9536 4.10027 21 5.69398 21 7.40562V13.6712M8.18226 4.10062C8.18226 4.10062 7.49377 4.10014 5.36114 4.10062C3.22851 4.10111 2.99974 5.86228 3 7.40562C3.00026 8.94895 3 13.6712 3 13.6712M3 13.6712C3 13.6712 3.0013 15.9192 3 17.6661C2.99871 19.4129 5.01218 21 6.92502 21H17.1056C18.7123 21 21 19.1854 21 17.6661V13.6712M3 13.6712C3 13.6712 7.24657 13.6782 7.85538 13.6712C8.4642 13.6642 10.5291 16.8932 11.7728 16.8932C13.0165 16.8932 14.8592 13.6712 16.0366 13.6712H21M11.7574 11.1285V3M11.7574 3L8.85742 6.04838M11.7574 3L14.4134 6.04838" stroke="currentColor" stroke-width="1.5" stroke-linecap="round" stroke-linejoin="round"/>
</svg>
