<svg width="24" height="24" viewBox="0 0 24 24" fill="none" xmlns="http://www.w3.org/2000/svg">
<path d="M17.0042 13.9542C17.0042 13.9542 17.0072 8.28032 16.997 8.14826C16.8495 6.31423 15.1856 4.94239 13.281 5.08431C13.281 5.08431 9.47058 5.07716 7.4827 5.07642M4.0533 6.01642C3.37177 6.65496 2.96558 7.56007 3.01073 8.54641C3.01073 8.54641 3.00766 15.8845 3.01893 16.0205C3.16842 17.8457 4.82724 19.2077 6.72259 19.0638C6.72259 19.0638 13.5616 19.0776 13.7019 19.0717C14.431 19.0419 15.0977 18.7964 15.6384 18.402" stroke="currentColor" stroke-width="1.5" stroke-linecap="round" stroke-linejoin="round"/>
<path d="M17.0073 10.0541L20.3003 7.35906C21.1163 6.69106 22.3403 7.27306 22.3393 8.32606L22.3273 15.6751C22.3263 16.7281 21.1013 17.3051 20.2873 16.6371L17.0073 13.9421" stroke="currentColor" stroke-width="1.5" stroke-linecap="round" stroke-linejoin="round"/>
<path d="M18.3538 21L1.66064 3" stroke="currentColor" stroke-width="1.5" stroke-linecap="round" stroke-linejoin="round"/>
</svg>
