<svg width="24" height="24" viewBox="0 0 24 24" fill="none" xmlns="http://www.w3.org/2000/svg">
<path d="M18.6562 8.63477C19.9096 10.9059 19.9096 13.6774 18.6562 15.9405" stroke="currentColor" stroke-width="1.5" stroke-linecap="round" stroke-linejoin="round"/>
<path fill-rule="evenodd" clip-rule="evenodd" d="M4.66735 12.2873C4.66379 13.506 4.66735 14.9353 5.67357 15.7896C6.67979 16.6447 7.4789 16.2918 8.78113 16.7202C10.0842 17.1496 11.9091 19.7967 13.9251 18.6011C15.0149 17.8269 15.5287 16.3656 15.5287 12.2873C15.5287 8.20912 15.038 6.76379 13.9251 5.97357C11.9091 4.7789 10.0842 7.42601 8.78113 7.85445C7.4789 8.28379 6.67979 7.9309 5.67357 8.78512C4.66735 9.63934 4.66379 11.0687 4.66735 12.2873Z" stroke="currentColor" stroke-width="1.5" stroke-linecap="round" stroke-linejoin="round"/>
</svg>
