<svg width="24" height="24" viewBox="0 0 24 24" fill="none" xmlns="http://www.w3.org/2000/svg">
<path d="M12.1715 20.9829C17.183 20.9556 21 16.9428 21 11.993C21 7.02632 16.9168 3 11.88 3C6.84316 3 3 7.02326 3 11.99C3.01771 13.3387 3.14059 14.5905 4.20003 16.4896C4.71218 17.4076 2.28 19.5661 3.24003 20.5128C4.20006 21.4594 6.64493 19.0649 7.56003 19.5661C9.51927 20.9525 10.1463 21.0554 12.1715 20.9829ZM12.1715 20.9829L12.12 20.983M15.4328 15.4255L15.7382 15.0741C15.9326 14.8794 16.0417 14.6158 16.0417 14.3409C16.0417 14.0661 15.9326 13.8025 15.7382 13.6078C15.7278 13.5974 14.9204 12.9773 14.9204 12.9773C14.7266 12.7932 14.4692 12.6907 14.2016 12.691C13.9341 12.6914 13.6769 12.7947 13.4837 12.9793L12.844 13.5173C12.3219 13.3016 11.8476 12.9851 11.4484 12.5859C11.0492 12.1867 10.7329 11.7127 10.5177 11.1911L11.0546 10.5546C11.2398 10.3617 11.3433 10.105 11.3438 9.83786C11.3442 9.5707 11.2415 9.31366 11.057 9.12016C11.057 9.12016 10.4351 8.31515 10.4247 8.30477C10.2332 8.11239 9.97364 8.00294 9.70199 8.00006C9.43034 7.99718 9.16846 8.10109 8.97294 8.28936L8.587 8.62436C6.30697 11.2648 11.2167 16.128 13.9491 16.0406C14.2251 16.0422 14.4985 15.9886 14.7533 15.8829C15.0082 15.7773 15.2392 15.6217 15.4328 15.4255Z" stroke="currentColor" stroke-width="1.5"/>
</svg>
