<svg width="24" height="24" viewBox="0 0 24 24" fill="none" xmlns="http://www.w3.org/2000/svg">
<path d="M12 1.5C6.20096 1.5 1.5 6.20096 1.5 12C1.5 17.799 6.20096 22.5 12 22.5C17.799 22.5 22.5 17.799 22.5 12C22.5 6.20096 17.799 1.5 12 1.5Z" fill="#26D461"/>
<path d="M16.266 7.75153C15.1543 6.61642 13.6175 6.00018 12.0481 6.00018C8.71295 6.00018 6.03174 8.69206 6.06441 11.9677C6.06441 13.0056 6.35869 14.011 6.84918 14.9191L5.99902 18.0002L9.17068 17.1894C10.0535 17.6759 11.0344 17.9029 12.0154 17.9029C15.3178 17.9029 17.999 15.211 17.999 11.9354C17.999 10.3461 17.3777 8.85424 16.266 7.75153ZM12.0481 16.8975C11.1652 16.8975 10.2824 16.6705 9.53034 16.2165L9.33417 16.1192L7.43774 16.6056L7.92818 14.757L7.7974 14.5624C6.35869 12.2597 7.04535 9.21099 9.39956 7.78394C11.7538 6.35693 14.7947 7.03803 16.2334 9.37316C17.672 11.7083 16.9854 14.7245 14.6312 16.1516C13.8791 16.638 12.9636 16.8975 12.0481 16.8975ZM14.9254 13.2976L14.5658 13.1354C14.5658 13.1354 14.0426 12.9084 13.7157 12.7462C13.6829 12.7462 13.6503 12.7137 13.6175 12.7137C13.5194 12.7137 13.454 12.7462 13.3887 12.7786C13.3887 12.7786 13.356 12.811 12.8982 13.33C12.8655 13.3948 12.8001 13.4273 12.7347 13.4273H12.702C12.6693 13.4273 12.6039 13.3948 12.5712 13.3624L12.4077 13.2976C12.0481 13.1354 11.7211 12.9408 11.4595 12.6813C11.3941 12.6165 11.296 12.5516 11.2306 12.4867C11.0017 12.2597 10.7728 12.0002 10.6094 11.7083L10.5767 11.6435C10.544 11.611 10.544 11.5786 10.5113 11.5138C10.5113 11.4489 10.5113 11.384 10.544 11.3516C10.544 11.3516 10.6748 11.1894 10.7728 11.0921C10.8383 11.0272 10.8709 10.93 10.9363 10.8651C11.0017 10.7678 11.0344 10.6381 11.0017 10.5408C10.9691 10.3786 10.5767 9.50293 10.4786 9.30835C10.4132 9.21103 10.3478 9.17863 10.2497 9.14617H9.89006C9.82462 9.14617 9.75928 9.17863 9.69384 9.17863L9.66112 9.21103C9.59573 9.24349 9.53034 9.30835 9.46495 9.34075C9.39956 9.40566 9.36685 9.47047 9.30146 9.53538C9.07257 9.82727 8.94179 10.184 8.94179 10.5408C8.94179 10.8002 9.00718 11.0597 9.10529 11.2867L9.13801 11.384C9.43228 12.0002 9.82462 12.5516 10.3478 13.0381L10.4786 13.1678C10.5767 13.2651 10.6748 13.33 10.7402 13.4272C11.4268 14.0111 12.2116 14.4327 13.0944 14.6597C13.1925 14.6921 13.3233 14.6921 13.4214 14.7246H13.7483C13.9118 14.7246 14.108 14.6597 14.2388 14.5948C14.3369 14.53 14.4023 14.53 14.4677 14.4651L14.5331 14.4002C14.5985 14.3354 14.6639 14.303 14.7293 14.2381C14.7947 14.1732 14.86 14.1084 14.8928 14.0435C14.9581 13.9137 14.9908 13.7516 15.0235 13.5895V13.3624C15.0235 13.3624 14.9908 13.33 14.9254 13.2976Z" fill="white"/>
</svg>
