<svg width="18" height="18" viewBox="0 0 18 18" fill="none" xmlns="http://www.w3.org/2000/svg">
<path fill-rule="evenodd" clip-rule="evenodd" d="M2.25 8.99249C2.25 5.26745 5.13237 2.25 8.91 2.25C12.6876 2.25 15.75 5.26974 15.75 8.99478C15.75 14.0599 9.87306 17.6488 5.67002 14.6746C5.36083 14.5052 4.81877 14.7767 4.25058 15.0612C3.55756 15.4082 2.82567 15.7747 2.43002 15.3846C2.03644 14.9965 2.40305 14.3368 2.75363 13.706C3.04441 13.1827 3.32417 12.6793 3.15002 12.3672C2.35544 10.9429 2.26328 10.004 2.25 8.99249ZM11.8036 11.3056L11.5746 11.5691C11.4294 11.7163 11.2561 11.833 11.065 11.9122C10.8739 11.9914 10.6688 12.0316 10.4619 12.0304C8.41254 12.096 4.73023 8.44861 6.44025 6.46827L6.7297 6.21702C6.87635 6.07582 7.07276 5.99788 7.27649 6.00004C7.48023 6.00221 7.67494 6.0843 7.81854 6.22858C7.82634 6.23636 8.29274 6.84012 8.29274 6.84012C8.43113 6.98524 8.50816 7.17803 8.50784 7.37839C8.50751 7.57876 8.42984 7.77129 8.29097 7.91596L7.88826 8.39334C8.04965 8.78452 8.28687 9.14001 8.58629 9.43942C8.8857 9.73882 9.24142 9.97623 9.63302 10.138L10.1128 9.7345C10.2577 9.59599 10.4505 9.51855 10.6512 9.51827C10.8519 9.51799 11.0449 9.59489 11.1903 9.733C11.1903 9.733 11.7958 10.1981 11.8036 10.2058C11.9494 10.3518 12.0313 10.5496 12.0313 10.7557C12.0313 10.9618 11.9494 11.1596 11.8036 11.3056Z" fill="white"/>
</svg>
