<svg width="16" height="16" viewBox="0 0 16 16" fill="none" xmlns="http://www.w3.org/2000/svg">
<path d="M8 14.25C11.4518 14.25 14.25 11.4518 14.25 8C14.25 4.54822 11.4518 1.75 8 1.75C4.54822 1.75 1.75 4.54822 1.75 8C1.75 11.4518 4.54822 14.25 8 14.25Z" stroke="black" stroke-miterlimit="10" stroke-linejoin="round"/>
<path d="M2.58333 5.0835H13.4167" stroke="black" stroke-miterlimit="10" stroke-linejoin="round"/>
<path d="M2.58333 10.9165H13.4167" stroke="black" stroke-miterlimit="10" stroke-linejoin="round"/>
<path d="M7.99999 1.75C7.99999 1.75 5.08333 3.83333 5.08333 8C5.08333 12.1667 7.99999 14.25 7.99999 14.25" stroke="black" stroke-miterlimit="10" stroke-linejoin="round"/>
<path d="M8 1.75C8 1.75 10.9167 3.83333 10.9167 8C10.9167 12.1667 8 14.25 8 14.25" stroke="black" stroke-miterlimit="10" stroke-linejoin="round"/>
</svg>
