<svg width="24" height="24" viewBox="0 0 24 24" fill="none" xmlns="http://www.w3.org/2000/svg">
<path fill-rule="evenodd" clip-rule="evenodd" d="M12.1664 2.01603C12.9735 1.05138 14.4244 0.909933 15.4091 1.70066C15.4635 1.74356 17.2127 3.10241 17.2127 3.10241C18.2944 3.75633 18.6305 5.14649 17.9619 6.20736C17.9264 6.26418 8.03719 18.6341 8.03719 18.6341C7.70818 19.0446 7.20875 19.2869 6.675 19.2927L2.88785 19.3402L2.03456 15.7286C1.91502 15.2208 2.03456 14.6874 2.36356 14.277L12.1664 2.01603Z" stroke="currentColor" stroke-width="1.5" stroke-linecap="round" stroke-linejoin="round"/>
<path d="M10.335 4.31152L16.0086 8.66866" stroke="currentColor" stroke-width="1.5" stroke-linecap="round" stroke-linejoin="round"/>
<path d="M5.46417 22.5991C7.18529 22.9206 11.2326 22.6266 13.6529 18.8794C16.6783 14.1954 16.2257 21.4148 17.8847 20.9429C19.212 20.5653 21.0106 18.9878 21.744 18.2462" stroke="currentColor" stroke-width="1.5" stroke-linecap="round"/>
</svg>
