<svg width="24" height="24" viewBox="0 0 24 24" fill="none" xmlns="http://www.w3.org/2000/svg">
<path d="M15.3498 14.9085C15.125 15.2564 15.2248 15.7207 15.5727 15.9455C15.9206 16.1703 16.3849 16.0705 16.6097 15.7226L15.3498 14.9085ZM18.9378 10.6127L19.5954 10.9733H19.5954L18.9378 10.6127ZM4.67552 13.9369L5.40717 14.1018L4.67552 13.9369ZM3.47725 20.7544C3.268 21.1119 3.38815 21.5713 3.74563 21.7806C4.1031 21.9898 4.56252 21.8697 4.77177 21.5122L3.47725 20.7544ZM11.232 4.29591L10.6479 3.82546L10.6479 3.82546L11.232 4.29591ZM15.0187 11.9392L15.623 12.3834L15.6249 12.3808L15.0187 11.9392ZM11.5148 16.7054L12.1191 17.1496L11.5148 16.7054ZM8.18911 19.1565L7.97691 18.4372H7.97691L8.18911 19.1565ZM16.7247 3.18817L16.2831 3.79435V3.79435L16.7247 3.18817ZM11.5728 3.85875L12.1554 4.33101V4.33101L11.5728 3.85875ZM11.2302 20.3111C10.816 20.3111 10.4802 20.6469 10.4802 21.0611C10.4802 21.4754 10.816 21.8111 11.2302 21.8111V20.3111ZM18.7277 21.8111C19.1419 21.8111 19.4777 21.4754 19.4777 21.0611C19.4777 20.6469 19.1419 20.3111 18.7277 20.3111V21.8111ZM15.9798 15.3156C16.6097 15.7226 16.6097 15.7226 16.6097 15.7226C16.6097 15.7225 16.6098 15.7225 16.6098 15.7224C16.6099 15.7223 16.61 15.7221 16.6102 15.7219C16.6105 15.7214 16.6109 15.7207 16.6116 15.7197C16.6128 15.7179 16.6146 15.715 16.617 15.7113C16.6218 15.7039 16.6289 15.6929 16.6381 15.6786C16.6566 15.6499 16.6838 15.6078 16.7186 15.5538C16.7881 15.446 16.8879 15.2911 17.009 15.1027C17.2513 14.7258 17.5791 14.2146 17.9213 13.6773C18.5967 12.6167 19.3536 11.4143 19.5954 10.9733L18.2802 10.2521C18.0683 10.6385 17.3463 11.7876 16.656 12.8716C16.3154 13.4065 15.9888 13.9159 15.7473 14.2915C15.6265 14.4793 15.5271 14.6337 15.4579 14.741C15.4233 14.7947 15.3963 14.8366 15.3779 14.8651C15.3687 14.8793 15.3617 14.8902 15.3569 14.8975C15.3546 14.9012 15.3528 14.9039 15.3516 14.9058C15.351 14.9067 15.3506 14.9074 15.3503 14.9078C15.3501 14.9081 15.35 14.9082 15.3499 14.9083C15.3499 14.9084 15.3499 14.9084 15.3499 14.9085C15.3499 14.9085 15.3498 14.9085 15.9798 15.3156ZM19.5954 10.9733C20.0011 10.2336 19.8011 9.50952 19.4052 8.97584C19.0331 8.47417 18.4578 8.07845 17.8914 7.79185L17.2142 9.13028C17.6809 9.36644 18.025 9.63287 18.2005 9.86949C18.3523 10.0741 18.3283 10.1644 18.2802 10.2521L19.5954 10.9733ZM3.94387 13.7721C3.40887 16.146 3.68201 17.6611 4.25976 19.8543L5.71027 19.4722C5.1589 17.3791 4.94872 16.1361 5.40717 14.1018L3.94387 13.7721ZM4.33775 19.2844L3.47725 20.7544L4.77177 21.5122L5.63227 20.0422L4.33775 19.2844ZM5.40717 14.1018C5.4875 13.7454 5.82129 13.0734 6.3843 12.1643C6.92714 11.2879 7.62596 10.2791 8.3496 9.28306C9.7957 7.2926 11.3139 5.38983 11.8161 4.76636L10.6479 3.82546C10.1403 4.45571 8.60391 6.381 7.13606 8.4014C6.40273 9.41079 5.67973 10.4531 5.10907 11.3745C4.55859 12.2634 4.08721 13.136 3.94387 13.7721L5.40717 14.1018ZM16.9466 8.01942L14.4126 11.4976L15.6249 12.3808L18.159 8.9027L16.9466 8.01942ZM14.4145 11.495L10.9105 16.2612L12.1191 17.1496L15.623 12.3834L14.4145 11.495ZM8.34591 8.0436L14.5795 12.5471L15.458 11.3313L9.22433 6.82771L8.34591 8.0436ZM7.97691 18.4372C7.53856 18.5665 7.09469 18.6376 6.58445 18.7013C6.08809 18.7632 5.50093 18.8207 4.86594 18.9228L5.10409 20.4038C5.70507 20.3071 6.2223 20.2581 6.77016 20.1897C7.30415 20.1231 7.84433 20.0402 8.4013 19.8759L7.97691 18.4372ZM10.9105 16.2612C10.1481 17.2982 9.14172 18.0936 7.97691 18.4372L8.4013 19.8759C9.94679 19.42 11.2077 18.3893 12.1191 17.1496L10.9105 16.2612ZM16.2831 3.79435C17.633 4.77786 17.9301 6.66949 16.9466 8.01942L18.159 8.9027C19.6303 6.88319 19.1859 4.05331 17.1664 2.58199L16.2831 3.79435ZM12.1554 4.33101C13.1589 3.09296 14.9738 2.84044 16.2831 3.79435L17.1664 2.58199C15.2069 1.15442 12.4926 1.53283 10.9902 3.3865L12.1554 4.33101ZM11.8161 4.76636C11.8812 4.68548 11.943 4.60464 11.9977 4.53313C12.0544 4.45911 12.1044 4.39395 12.1554 4.33101L10.9902 3.3865C10.9242 3.46792 10.8621 3.54897 10.8067 3.62126C10.7495 3.69606 10.6993 3.76162 10.6479 3.82546L11.8161 4.76636ZM11.2302 21.8111H18.7277V20.3111H11.2302V21.8111Z" fill="#130F26"/>
</svg>
