<svg width="20" height="14" viewBox="0 0 20 14" fill="none" xmlns="http://www.w3.org/2000/svg">
<path fill-rule="evenodd" clip-rule="evenodd" d="M2.96715 0.225085C1.58197 0.293711 0.469278 1.37832 0.379383 2.76229C0.293257 4.08823 0.208374 5.71976 0.208374 6.99991C0.208374 8.28006 0.293257 9.91158 0.379383 11.2375C0.469278 12.6215 1.58197 13.7061 2.96715 13.7747C4.97299 13.8741 7.83991 13.994 10 13.994C12.1602 13.994 15.0271 13.8741 17.0329 13.7747C18.4181 13.7061 19.5308 12.6215 19.6207 11.2375C19.7068 9.91158 19.7917 8.28006 19.7917 6.99991C19.7917 5.71976 19.7068 4.08823 19.6207 2.76229C19.5308 1.37832 18.4181 0.293711 17.0329 0.225085C15.0271 0.125711 12.1602 0.00585938 10 0.00585938C7.83991 0.00585938 4.97299 0.125711 2.96715 0.225085ZM13.497 7.00008L7.90174 9.7977V4.20246L13.497 7.00008Z" fill="white"/>
</svg>
