<svg width="16" height="16" viewBox="0 0 16 16" fill="none" xmlns="http://www.w3.org/2000/svg">
<path d="M1.12225 4.97055C1.18652 3.98117 1.98197 3.20578 2.97223 3.15672C4.40619 3.08568 6.45574 3 8 3C9.54426 3 11.5938 3.08568 13.0278 3.15672C14.018 3.20578 14.8135 3.98117 14.8777 4.97055C14.9393 5.91846 15 7.08483 15 8C15 8.91517 14.9393 10.0815 14.8777 11.0294C14.8135 12.0188 14.018 12.7942 13.0278 12.8433C11.5938 12.9143 9.54426 13 8 13C6.45574 13 4.40619 12.9143 2.97223 12.8433C1.98197 12.7942 1.18652 12.0188 1.12225 11.0294C1.06068 10.0815 1 8.91517 1 8C1 7.08483 1.06068 5.91846 1.12225 4.97055Z" fill="#FC0D1B"/>
<path d="M6.5 6V10L10.5 8L6.5 6Z" fill="white"/>
</svg>
