<svg width="230" height="137" viewBox="0 0 230 137" fill="none" xmlns="http://www.w3.org/2000/svg">
<rect width="230" height="137" rx="10" fill="#FAFAFA"/>
<rect y="10" width="230" height="26" fill="#E0E0E0"/>
<rect width="230" height="30" transform="translate(0 40)" fill="white"/>
<path d="M140.075 53.2305V54.748C140.075 55.5638 140.002 56.252 139.856 56.8125C139.711 57.373 139.501 57.8242 139.228 58.166C138.954 58.5078 138.624 58.7562 138.236 58.9111C137.854 59.0615 137.421 59.1367 136.938 59.1367C136.555 59.1367 136.201 59.0889 135.878 58.9932C135.554 58.8975 135.263 58.7448 135.003 58.5352C134.748 58.321 134.529 58.043 134.347 57.7012C134.164 57.3594 134.025 56.9447 133.93 56.457C133.834 55.9694 133.786 55.3997 133.786 54.748V53.2305C133.786 52.4147 133.859 51.7311 134.005 51.1797C134.155 50.6283 134.367 50.1862 134.641 49.8535C134.914 49.5163 135.242 49.2747 135.625 49.1289C136.012 48.9831 136.445 48.9102 136.924 48.9102C137.311 48.9102 137.667 48.958 137.99 49.0537C138.318 49.1449 138.61 49.293 138.865 49.498C139.12 49.6986 139.337 49.9674 139.515 50.3047C139.697 50.6374 139.836 51.0452 139.932 51.5283C140.027 52.0114 140.075 52.5788 140.075 53.2305ZM138.804 54.9531V53.0186C138.804 52.5719 138.776 52.18 138.722 51.8428C138.672 51.501 138.596 51.2093 138.496 50.9678C138.396 50.7262 138.268 50.5303 138.113 50.3799C137.963 50.2295 137.787 50.1201 137.587 50.0518C137.391 49.9788 137.17 49.9424 136.924 49.9424C136.623 49.9424 136.356 49.9993 136.124 50.1133C135.892 50.2227 135.696 50.3981 135.536 50.6396C135.381 50.8812 135.263 51.1979 135.181 51.5898C135.099 51.9818 135.058 52.458 135.058 53.0186V54.9531C135.058 55.3997 135.083 55.7939 135.133 56.1357C135.188 56.4775 135.267 56.7738 135.372 57.0244C135.477 57.2705 135.604 57.4733 135.755 57.6328C135.905 57.7923 136.078 57.9108 136.274 57.9883C136.475 58.0612 136.696 58.0977 136.938 58.0977C137.247 58.0977 137.519 58.0384 137.751 57.9199C137.983 57.8014 138.177 57.6169 138.332 57.3662C138.492 57.111 138.61 56.7852 138.688 56.3887C138.765 55.9876 138.804 55.5091 138.804 54.9531ZM148.1 53.2305V54.748C148.1 55.5638 148.027 56.252 147.881 56.8125C147.736 57.373 147.526 57.8242 147.253 58.166C146.979 58.5078 146.649 58.7562 146.261 58.9111C145.879 59.0615 145.446 59.1367 144.962 59.1367C144.58 59.1367 144.226 59.0889 143.903 58.9932C143.579 58.8975 143.288 58.7448 143.028 58.5352C142.773 58.321 142.554 58.043 142.372 57.7012C142.189 57.3594 142.05 56.9447 141.955 56.457C141.859 55.9694 141.811 55.3997 141.811 54.748V53.2305C141.811 52.4147 141.884 51.7311 142.03 51.1797C142.18 50.6283 142.392 50.1862 142.666 49.8535C142.939 49.5163 143.267 49.2747 143.65 49.1289C144.037 48.9831 144.47 48.9102 144.949 48.9102C145.336 48.9102 145.692 48.958 146.015 49.0537C146.343 49.1449 146.635 49.293 146.89 49.498C147.145 49.6986 147.362 49.9674 147.54 50.3047C147.722 50.6374 147.861 51.0452 147.957 51.5283C148.052 52.0114 148.1 52.5788 148.1 53.2305ZM146.829 54.9531V53.0186C146.829 52.5719 146.801 52.18 146.747 51.8428C146.697 51.501 146.621 51.2093 146.521 50.9678C146.421 50.7262 146.293 50.5303 146.138 50.3799C145.988 50.2295 145.812 50.1201 145.612 50.0518C145.416 49.9788 145.195 49.9424 144.949 49.9424C144.648 49.9424 144.381 49.9993 144.149 50.1133C143.917 50.2227 143.721 50.3981 143.561 50.6396C143.406 50.8812 143.288 51.1979 143.206 51.5898C143.124 51.9818 143.083 52.458 143.083 53.0186V54.9531C143.083 55.3997 143.108 55.7939 143.158 56.1357C143.212 56.4775 143.292 56.7738 143.397 57.0244C143.502 57.2705 143.629 57.4733 143.78 57.6328C143.93 57.7923 144.103 57.9108 144.299 57.9883C144.5 58.0612 144.721 58.0977 144.962 58.0977C145.272 58.0977 145.544 58.0384 145.776 57.9199C146.008 57.8014 146.202 57.6169 146.357 57.3662C146.517 57.111 146.635 56.7852 146.712 56.3887C146.79 55.9876 146.829 55.5091 146.829 54.9531ZM156.125 53.2305V54.748C156.125 55.5638 156.052 56.252 155.906 56.8125C155.761 57.373 155.551 57.8242 155.278 58.166C155.004 58.5078 154.674 58.7562 154.286 58.9111C153.904 59.0615 153.471 59.1367 152.987 59.1367C152.605 59.1367 152.251 59.0889 151.928 58.9932C151.604 58.8975 151.313 58.7448 151.053 58.5352C150.798 58.321 150.579 58.043 150.397 57.7012C150.214 57.3594 150.075 56.9447 149.98 56.457C149.884 55.9694 149.836 55.3997 149.836 54.748V53.2305C149.836 52.4147 149.909 51.7311 150.055 51.1797C150.205 50.6283 150.417 50.1862 150.691 49.8535C150.964 49.5163 151.292 49.2747 151.675 49.1289C152.062 48.9831 152.495 48.9102 152.974 48.9102C153.361 48.9102 153.717 48.958 154.04 49.0537C154.368 49.1449 154.66 49.293 154.915 49.498C155.17 49.6986 155.387 49.9674 155.565 50.3047C155.747 50.6374 155.886 51.0452 155.982 51.5283C156.077 52.0114 156.125 52.5788 156.125 53.2305ZM154.854 54.9531V53.0186C154.854 52.5719 154.826 52.18 154.772 51.8428C154.722 51.501 154.646 51.2093 154.546 50.9678C154.446 50.7262 154.318 50.5303 154.163 50.3799C154.013 50.2295 153.837 50.1201 153.637 50.0518C153.441 49.9788 153.22 49.9424 152.974 49.9424C152.673 49.9424 152.406 49.9993 152.174 50.1133C151.942 50.2227 151.746 50.3981 151.586 50.6396C151.431 50.8812 151.313 51.1979 151.231 51.5898C151.149 51.9818 151.108 52.458 151.108 53.0186V54.9531C151.108 55.3997 151.133 55.7939 151.183 56.1357C151.237 56.4775 151.317 56.7738 151.422 57.0244C151.527 57.2705 151.654 57.4733 151.805 57.6328C151.955 57.7923 152.128 57.9108 152.324 57.9883C152.525 58.0612 152.746 58.0977 152.987 58.0977C153.297 58.0977 153.569 58.0384 153.801 57.9199C154.033 57.8014 154.227 57.6169 154.382 57.3662C154.542 57.111 154.66 56.7852 154.737 56.3887C154.815 55.9876 154.854 55.5091 154.854 54.9531ZM164.15 53.2305V54.748C164.15 55.5638 164.077 56.252 163.931 56.8125C163.786 57.373 163.576 57.8242 163.303 58.166C163.029 58.5078 162.699 58.7562 162.311 58.9111C161.929 59.0615 161.496 59.1367 161.013 59.1367C160.63 59.1367 160.276 59.0889 159.953 58.9932C159.629 58.8975 159.338 58.7448 159.078 58.5352C158.823 58.321 158.604 58.043 158.422 57.7012C158.239 57.3594 158.1 56.9447 158.005 56.457C157.909 55.9694 157.861 55.3997 157.861 54.748V53.2305C157.861 52.4147 157.934 51.7311 158.08 51.1797C158.23 50.6283 158.442 50.1862 158.716 49.8535C158.989 49.5163 159.317 49.2747 159.7 49.1289C160.087 48.9831 160.52 48.9102 160.999 48.9102C161.386 48.9102 161.742 48.958 162.065 49.0537C162.393 49.1449 162.685 49.293 162.94 49.498C163.195 49.6986 163.412 49.9674 163.59 50.3047C163.772 50.6374 163.911 51.0452 164.007 51.5283C164.102 52.0114 164.15 52.5788 164.15 53.2305ZM162.879 54.9531V53.0186C162.879 52.5719 162.851 52.18 162.797 51.8428C162.747 51.501 162.671 51.2093 162.571 50.9678C162.471 50.7262 162.343 50.5303 162.188 50.3799C162.038 50.2295 161.862 50.1201 161.662 50.0518C161.466 49.9788 161.245 49.9424 160.999 49.9424C160.698 49.9424 160.431 49.9993 160.199 50.1133C159.967 50.2227 159.771 50.3981 159.611 50.6396C159.456 50.8812 159.338 51.1979 159.256 51.5898C159.174 51.9818 159.133 52.458 159.133 53.0186V54.9531C159.133 55.3997 159.158 55.7939 159.208 56.1357C159.263 56.4775 159.342 56.7738 159.447 57.0244C159.552 57.2705 159.679 57.4733 159.83 57.6328C159.98 57.7923 160.153 57.9108 160.349 57.9883C160.55 58.0612 160.771 58.0977 161.013 58.0977C161.322 58.0977 161.594 58.0384 161.826 57.9199C162.058 57.8014 162.252 57.6169 162.407 57.3662C162.567 57.111 162.685 56.7852 162.763 56.3887C162.84 55.9876 162.879 55.5091 162.879 54.9531Z" fill="black"/>
<path d="M190.983 49.9922V60H189.719V51.5713L187.169 52.501V51.3594L190.785 49.9922H190.983ZM201.374 58.9609V60H194.859V59.0908L198.12 55.4609C198.521 55.0143 198.831 54.6361 199.049 54.3262C199.273 54.0117 199.428 53.7314 199.514 53.4854C199.605 53.2347 199.651 52.9795 199.651 52.7197C199.651 52.3916 199.583 52.0954 199.446 51.8311C199.314 51.5622 199.118 51.348 198.858 51.1885C198.598 51.029 198.284 50.9492 197.915 50.9492C197.473 50.9492 197.103 51.0358 196.807 51.209C196.516 51.3776 196.297 51.6146 196.151 51.9199C196.005 52.2253 195.932 52.5762 195.932 52.9727H194.668C194.668 52.4121 194.791 51.8994 195.037 51.4346C195.283 50.9697 195.647 50.6006 196.13 50.3271C196.614 50.0492 197.208 49.9102 197.915 49.9102C198.544 49.9102 199.081 50.0218 199.528 50.2451C199.975 50.4639 200.316 50.7738 200.553 51.1748C200.795 51.5713 200.916 52.0361 200.916 52.5693C200.916 52.861 200.865 53.1572 200.765 53.458C200.67 53.7542 200.535 54.0505 200.362 54.3467C200.193 54.6429 199.995 54.9346 199.767 55.2217C199.544 55.5088 199.305 55.7913 199.049 56.0693L196.383 58.9609H201.374ZM204.723 54.4014H205.625C206.067 54.4014 206.432 54.3285 206.719 54.1826C207.011 54.0322 207.227 53.8294 207.368 53.5742C207.514 53.3145 207.587 53.0228 207.587 52.6992C207.587 52.3164 207.523 51.9951 207.396 51.7354C207.268 51.4756 207.077 51.2796 206.821 51.1475C206.566 51.0153 206.243 50.9492 205.851 50.9492C205.495 50.9492 205.181 51.0199 204.907 51.1611C204.639 51.2979 204.427 51.4938 204.272 51.749C204.121 52.0042 204.046 52.305 204.046 52.6514H202.781C202.781 52.1455 202.909 51.6852 203.164 51.2705C203.419 50.8558 203.777 50.5254 204.237 50.2793C204.702 50.0332 205.24 49.9102 205.851 49.9102C206.452 49.9102 206.979 50.0173 207.43 50.2314C207.881 50.4411 208.232 50.7555 208.483 51.1748C208.733 51.5895 208.859 52.1068 208.859 52.7266C208.859 52.9772 208.799 53.2461 208.681 53.5332C208.567 53.8158 208.387 54.0801 208.141 54.3262C207.899 54.5723 207.585 54.7751 207.197 54.9346C206.81 55.0895 206.345 55.167 205.803 55.167H204.723V54.4014ZM204.723 55.4404V54.6816H205.803C206.436 54.6816 206.96 54.7568 207.375 54.9072C207.79 55.0576 208.116 55.2581 208.353 55.5088C208.594 55.7594 208.763 56.0352 208.859 56.3359C208.959 56.6322 209.009 56.9284 209.009 57.2246C209.009 57.6895 208.929 58.1019 208.77 58.4619C208.615 58.8219 208.394 59.1273 208.107 59.3779C207.824 59.6286 207.491 59.8177 207.109 59.9453C206.726 60.0729 206.309 60.1367 205.858 60.1367C205.425 60.1367 205.017 60.0752 204.634 59.9521C204.256 59.8291 203.921 59.6514 203.629 59.4189C203.337 59.182 203.11 58.8926 202.946 58.5508C202.781 58.2044 202.699 57.8102 202.699 57.3682H203.964C203.964 57.7145 204.039 58.0176 204.19 58.2773C204.345 58.5371 204.563 58.7399 204.846 58.8857C205.133 59.027 205.47 59.0977 205.858 59.0977C206.245 59.0977 206.578 59.0316 206.856 58.8994C207.138 58.7627 207.355 58.5576 207.505 58.2842C207.66 58.0107 207.737 57.6667 207.737 57.252C207.737 56.8372 207.651 56.4977 207.478 56.2334C207.305 55.9645 207.058 55.7663 206.739 55.6387C206.425 55.5065 206.054 55.4404 205.625 55.4404H204.723Z" fill="black"/>
<rect x="176.5" y="44.5" width="43" height="21" rx="10.5" stroke="#D92D20"/>
</svg>
