<svg width="46" height="32" viewBox="0 0 46 32" fill="none" xmlns="http://www.w3.org/2000/svg">
<rect x="0.5" y="0.5" width="45" height="31" rx="3.5" fill="white"/>
<path d="M9.66669 12.1811V8.37156C9.66669 7.31959 10.5195 6.4668 11.5714 6.4668H34.4286C35.4806 6.4668 36.3334 7.31959 36.3334 8.37156V12.1811M9.66669 12.1811H36.3334M9.66669 12.1811V15.9906M36.3334 12.1811V15.9906M36.3334 15.9906V23.6097C36.3334 24.6616 35.4806 25.5144 34.4286 25.5144H11.5714C10.5195 25.5144 9.66669 24.6616 9.66669 23.6097V15.9906M36.3334 15.9906H9.66669M12.8413 21.7049H17.9207" stroke="black" stroke-width="1.42857" stroke-linecap="round"/>
<rect x="0.5" y="0.5" width="45" height="31" rx="3.5" stroke="#F5F5F5"/>
</svg>
