<svg width="24" height="24" viewBox="0 0 24 24" fill="none" xmlns="http://www.w3.org/2000/svg">
<circle cx="6.32471" cy="7.21851" r="4.32471" stroke="currentColor" stroke-width="1.5"/>
<circle cx="16.3468" cy="19.1373" r="1.96713" stroke="currentColor" stroke-width="1.5"/>
<circle cx="6.29257" cy="19.1373" r="1.96713" stroke="currentColor" stroke-width="1.5"/>
<path d="M6.32446 5.21838L6.32446 9.21796" stroke="currentColor" stroke-width="1.5" stroke-linecap="round"/>
<path d="M8.32422 7.21814L4.32464 7.21814" stroke="currentColor" stroke-width="1.5" stroke-linecap="round"/>
<path d="M16.7844 8.5046V7.85194C16.7844 6.22232 15.4634 4.90125 13.8337 4.90125H13.1266M16.7844 8.5046L16.7787 8.50125M16.7844 8.5046L20.5328 10.6859C21.4408 11.2143 21.9994 12.1857 21.9994 13.2362V16.1834C21.9994 17.8131 20.6783 19.1341 19.0487 19.1341H18.3117M16.7844 8.5046V17.2248M2.10107 13.2517V16.1873C2.10107 17.5682 3.04964 18.7275 4.33072 19.0492M21.9995 13.4786H19.4028M14.3849 19.138H8.2666" stroke="currentColor" stroke-width="1.5" stroke-linecap="round"/>
</svg>
