<svg width="24" height="24" viewBox="0 0 24 24" fill="none" xmlns="http://www.w3.org/2000/svg">
<path d="M7.85824 10.7193C9.34934 12.0939 10.2627 12.4191 11.9998 12.4163C13.7369 12.4191 14.6507 12.0939 16.1418 10.7193L17.1127 11.2175C18.389 11.8725 19.954 11.3376 20.5625 10.0385C20.9376 9.23749 20.9606 8.31609 20.6258 7.49743L19.8046 5.4894C19.3434 4.36177 18.2461 3.625 17.0278 3.625H6.97221C5.75392 3.625 4.65661 4.36177 4.19545 5.4894L3.37424 7.49743C3.03943 8.31609 3.06239 9.23749 3.43753 10.0385C4.04598 11.3376 5.61097 11.8725 6.88727 11.2175L7.85824 10.7193ZM7.85824 10.7193L8.81901 7.49743M4.83692 11.3399V16.7777C4.83692 18.7645 6.44756 20.3751 8.43438 20.3751H15.5457C17.5325 20.3751 19.1431 18.7645 19.1431 16.7777V11.3601M16.1449 10.7193L15.181 7.49743M14.1236 20.3747V17.7735C14.1236 16.5952 13.1683 15.6399 11.99 15.6399C10.8117 15.6399 9.8565 16.5952 9.8565 17.7735V20.3747H14.1236Z" stroke="currentColor" stroke-width="1.5" stroke-linecap="round"/>
</svg>
