<svg width="166" height="229" viewBox="0 0 166 229" fill="none" xmlns="http://www.w3.org/2000/svg">
<rect width="166" height="229" rx="10" fill="#EEEEEE"/>
<path opacity="0.4" d="M92.7042 104.475C92.1067 103.879 91.2821 103.455 90.4471 103.149C89.5927 102.836 88.6267 102.609 87.6558 102.462C85.7396 102.172 83.6302 102.164 82.1252 102.517C80.3537 102.934 78.6741 103.939 77.0249 105.232C75.3718 106.529 73.6603 108.189 71.8415 110.003C70.1314 111.708 68.7984 113.159 67.8783 114.468C66.9562 115.781 66.3736 117.057 66.3121 118.404C66.2496 119.77 66.7317 121.013 67.5412 122.236C68.338 123.439 69.5124 124.713 70.9673 126.165C72.4223 127.616 73.6996 128.787 74.9062 129.582C76.1321 130.389 77.3762 130.869 78.7436 130.806C80.0915 130.745 81.369 130.165 82.685 129.245C83.998 128.328 85.452 126.998 87.1621 125.293C92.4685 120 93.7977 118.022 94.5661 114.952C94.9384 113.464 94.9573 111.382 94.6873 109.488C94.5505 108.528 94.3335 107.571 94.0258 106.723C93.7247 105.893 93.3032 105.073 92.7042 104.475Z" fill="#E0E0E0"/>
<path d="M96.4299 101.091C94.0036 98.6707 90.0721 98.6703 87.6467 101.089C85.2183 103.511 85.2183 107.438 87.6467 109.86C88.1355 110.348 88.927 110.347 89.4145 109.858C89.902 109.369 89.901 108.578 89.4122 108.09C87.9632 106.645 87.9632 104.305 89.4122 102.859C90.8613 101.414 93.2134 101.414 94.6645 102.861C96.112 104.305 96.112 106.645 94.6645 108.089C94.6006 108.152 94.5352 108.213 94.4682 108.271C94.5563 108.671 94.6291 109.079 94.6874 109.488C94.7585 109.987 94.8095 110.499 94.8394 111.009C95.4138 110.72 95.9519 110.336 96.4299 109.859C98.8569 107.438 98.8569 103.511 96.4299 101.091Z" fill="#E0E0E0"/>
<path d="M75.6208 116.895L80.1154 121.463" stroke="#E0E0E0" stroke-width="1.5" stroke-linecap="round" stroke-linejoin="round"/>
</svg>
