<svg width="46" height="32" viewBox="0 0 46 32" fill="none" xmlns="http://www.w3.org/2000/svg">
<rect x="0.5" y="0.5" width="45" height="31" rx="3.5" fill="white"/>
<rect x="0.5" y="0.5" width="45" height="31" rx="3.5" stroke="#F5F5F5"/>
<g clip-path="url(#clip0_26821_8526)">
<g clip-path="url(#clip1_26821_8526)">
<path d="M18.9122 6.3623C18.9122 6.3623 18.6129 7.3868 17.5174 7.66856C16.4219 7.95033 15.5867 7.5436 15.0519 9.08211C15.0519 9.08211 15.3607 8.6011 15.8872 8.60346C16.4124 8.60582 18.7856 9.35444 18.9134 6.36348L18.9122 6.3623Z" fill="url(#paint0_linear_26821_8526)"/>
<path d="M23.6006 3.47168C23.6006 3.47168 24.8972 5.7989 24.2714 9.19069C24.0727 10.2671 23.0564 15.6206 17.7659 16.2938C17.2039 10.715 23.9922 9.50664 23.6006 3.47168Z" fill="url(#paint1_linear_26821_8526)"/>
<path d="M18.6958 9.83689C18.5786 9.5563 18.1882 9.00102 17.0064 9.08709C16.3155 9.13778 15.6648 9.57399 15.0378 9.72843C14.0724 9.96657 13.4892 9.58695 13.4892 9.58695C13.8938 10.3627 15.1762 10.4912 15.7867 10.8095C16.1439 10.9958 17.1365 11.4308 16.9389 12.4577C16.6396 14.0139 16.8869 14.5727 16.8869 14.5727C16.8869 14.5727 17.0442 13.2652 18.0025 11.9507C18.7383 10.9404 18.9395 10.4181 18.6958 9.83571V9.83689ZM17.1779 9.9371C17.1176 9.95596 17.0087 9.99604 16.8916 9.98072C16.771 9.96539 16.7118 9.88287 16.7118 9.79916C16.7118 9.67419 16.7899 9.607 16.8952 9.58695C17.088 9.55159 17.3116 9.63883 17.4465 9.88405C17.4465 9.88405 17.3282 9.88994 17.1779 9.9371Z" fill="url(#paint2_linear_26821_8526)"/>
<path d="M20.1912 15.4642C20.1912 15.4642 21.1684 18.3279 24.9671 19.1331C27.3036 19.6282 32.5362 21.6607 31.5933 25.4427C31.5933 25.4427 30.8634 24.6045 29.3148 23.7875C27.7662 22.9705 27.429 22.3669 27.4621 21.5829C27.4621 21.5829 28.528 22.8585 29.2249 22.9363C29.2249 22.9363 29.5395 20.9451 25.1729 19.7037C25.1729 19.7037 25.8461 20.2967 25.9585 20.5537C25.9585 20.5537 24.7009 19.6813 23.6125 19.8039C23.6125 19.8039 28.9516 21.3848 28.5777 26.7549C28.5777 26.7549 28.1282 25.5618 27.3805 25.234C27.3805 25.234 27.4326 26.4165 26.505 27.4787C25.5775 28.541 24.4655 28.5634 24.0621 28.5079C24.0621 28.5079 27.4858 26.0699 25.0606 22.3775C25.0606 22.3775 26.298 25.6066 24.5187 26.5615C24.5187 26.5615 24.469 26.011 24.1023 25.2635C23.7356 24.5161 23.5616 24.0221 23.926 23.5246C23.926 23.5246 23.9769 24.4583 24.2738 24.733C24.2738 24.733 25.7479 22.3185 23.1996 21.0512C22.0769 20.4924 17.818 19.8593 17.7304 15.779C17.7304 15.779 17.7056 14.6201 18.4876 13.6758C19.576 14.4456 20.19 15.4654 20.19 15.4654L20.1912 15.4642Z" fill="url(#paint3_linear_26821_8526)"/>
<path d="M28.7268 4.75391C29.1361 10.4458 21.2121 10.1169 18.5586 13.5782C17.7943 14.5756 17.7659 15.349 17.7659 15.349C17.7659 15.349 18.8886 15.7864 20.4467 16.0104C22.5348 16.3098 25.4036 16.2261 27.3923 14.1866C28.3293 13.2257 29.0723 11.831 29.4449 9.83747C29.9702 7.03279 28.7268 4.75508 28.7268 4.75508V4.75391Z" fill="url(#paint4_linear_26821_8526)"/>
<path d="M27.3923 14.1867C26.6564 14.2233 25.891 14.083 25.0203 13.9427C22.2058 13.4876 20.4431 16.0058 20.4431 16.0058C20.4431 16.0058 20.4443 16.0082 20.4455 16.0105C22.5335 16.31 25.4024 16.2263 27.3911 14.1867H27.3923Z" fill="url(#paint5_linear_26821_8526)"/>
<path d="M27.3923 14.1867C25.4024 16.2262 22.5347 16.3111 20.4467 16.0105C20.5058 16.1095 21.6593 17.9699 24.217 18.01C29.6306 18.0949 30.5924 12.4619 30.5924 12.4619C29.4319 13.7281 28.4405 14.1348 27.3923 14.1867Z" fill="url(#paint6_linear_26821_8526)"/>
<path d="M30.2658 17.227C30.4191 17.1074 30.446 16.8865 30.3259 16.7338C30.2058 16.5811 29.9842 16.5543 29.831 16.6739C29.6777 16.7936 29.6508 17.0144 29.7709 17.1672C29.891 17.3199 30.1126 17.3467 30.2658 17.227Z" fill="#E74664"/>
<path d="M32.4202 12.4801C32.4202 12.7147 32.2297 12.9045 31.9943 12.9045C31.7589 12.9045 31.5684 12.7147 31.5684 12.4801C31.5684 12.2455 31.7589 12.0557 31.9943 12.0557C32.2297 12.0557 32.4202 12.2455 32.4202 12.4801Z" fill="#E74664"/>
<path d="M31.6063 15.9345C31.6063 16.1833 31.404 16.3837 31.1556 16.3837C30.9071 16.3837 30.7048 16.1821 30.7048 15.9345C30.7048 15.687 30.9071 15.4854 31.1556 15.4854C31.404 15.4854 31.6063 15.687 31.6063 15.9345Z" fill="#E74664"/>
<path d="M32.4237 14.2458C32.4237 14.5629 32.1658 14.8188 31.8488 14.8188C31.5317 14.8188 31.2738 14.5618 31.2738 14.2458C31.2738 13.9299 31.5317 13.6729 31.8488 13.6729C32.1658 13.6729 32.4237 13.9299 32.4237 14.2458Z" fill="#E74664"/>
</g>
</g>
<defs>
<linearGradient id="paint0_linear_26821_8526" x1="15.0508" y1="7.72279" x2="21.6994" y2="7.72279" gradientUnits="userSpaceOnUse">
<stop stop-color="#E8563F"/>
<stop offset="0.08" stop-color="#E74E49"/>
<stop offset="0.37" stop-color="#E53669"/>
<stop offset="0.53" stop-color="#E22E76"/>
<stop offset="0.63" stop-color="#BA3E86"/>
<stop offset="0.73" stop-color="#9B4A92"/>
<stop offset="0.83" stop-color="#85539B"/>
<stop offset="0.92" stop-color="#7759A1"/>
<stop offset="1" stop-color="#735BA3"/>
</linearGradient>
<linearGradient id="paint1_linear_26821_8526" x1="22.6223" y1="15.4249" x2="18.5179" y2="3.4193" gradientUnits="userSpaceOnUse">
<stop offset="0.37" stop-color="#735BA3"/>
<stop offset="0.46" stop-color="#7576AD"/>
<stop offset="0.64" stop-color="#7ABCC9"/>
<stop offset="0.68" stop-color="#7CC9CF"/>
</linearGradient>
<linearGradient id="paint2_linear_26821_8526" x1="15.6506" y1="8.33257" x2="17.4634" y2="13.9939" gradientUnits="userSpaceOnUse">
<stop stop-color="#E8563F"/>
<stop offset="0.08" stop-color="#E74E49"/>
<stop offset="0.37" stop-color="#E53669"/>
<stop offset="0.53" stop-color="#E22E76"/>
<stop offset="0.63" stop-color="#BA3E86"/>
<stop offset="0.73" stop-color="#9B4A92"/>
<stop offset="0.83" stop-color="#85539B"/>
<stop offset="0.92" stop-color="#7759A1"/>
<stop offset="1" stop-color="#735BA3"/>
</linearGradient>
<linearGradient id="paint3_linear_26821_8526" x1="20.9116" y1="15.6139" x2="29.8113" y2="28.9869" gradientUnits="userSpaceOnUse">
<stop offset="0.26" stop-color="#E52D75"/>
<stop offset="0.43" stop-color="#CF357D"/>
<stop offset="0.77" stop-color="#994B93"/>
<stop offset="1" stop-color="#735BA3"/>
</linearGradient>
<linearGradient id="paint4_linear_26821_8526" x1="22.2556" y1="15.9514" x2="26.8423" y2="5.11733" gradientUnits="userSpaceOnUse">
<stop stop-color="#E52D75"/>
<stop offset="0.11" stop-color="#D0357D"/>
<stop offset="0.34" stop-color="#A8458D"/>
<stop offset="0.56" stop-color="#8A5199"/>
<stop offset="0.75" stop-color="#7958A0"/>
<stop offset="0.88" stop-color="#735BA3"/>
</linearGradient>
<linearGradient id="paint5_linear_26821_8526" x1="20.9021" y1="13.8708" x2="27.6718" y2="16.6448" gradientUnits="userSpaceOnUse">
<stop offset="0.28" stop-color="#E52D75" stop-opacity="0"/>
<stop offset="0.55" stop-color="#E84B6E" stop-opacity="0.36"/>
<stop offset="1" stop-color="#EE8363"/>
</linearGradient>
<linearGradient id="paint6_linear_26821_8526" x1="31.5814" y1="14.0912" x2="20.552" y2="17.6338" gradientUnits="userSpaceOnUse">
<stop stop-color="#F4A300"/>
<stop offset="0.03" stop-color="#F39C06"/>
<stop offset="0.24" stop-color="#EE742E"/>
<stop offset="0.44" stop-color="#EA554D"/>
<stop offset="0.64" stop-color="#E73F63"/>
<stop offset="0.83" stop-color="#E53170"/>
<stop offset="1" stop-color="#E52D75"/>
</linearGradient>
<clipPath id="clip0_26821_8526">
<rect x="9" y="2" width="28" height="28.0015" rx="14" fill="white"/>
</clipPath>
<clipPath id="clip1_26821_8526">
<rect width="28" height="28.0015" fill="white" transform="translate(9 2)"/>
</clipPath>
</defs>
</svg>
