<svg width="113" height="48" viewBox="0 0 113 48" fill="none" xmlns="http://www.w3.org/2000/svg">
<g clip-path="url(#clip0_650_6979)">
<path d="M51.803 16.9899C52.08 16.7416 52.4001 16.6267 52.7653 16.6411H62.4655C62.5968 16.6411 62.7055 16.6924 62.7938 16.795C62.8963 16.9406 62.9394 17.1089 62.9251 17.2976C62.9251 17.4576 62.8881 17.6115 62.8163 17.7572C62.7425 17.8885 62.6276 17.9541 62.4675 17.9541H54.2958V23.3356H61.8561C61.9875 23.3356 62.0962 23.3787 62.1844 23.4669C62.287 23.627 62.3301 23.7952 62.3157 23.9696C62.3301 24.144 62.2931 24.304 62.207 24.4497C62.1331 24.581 62.0182 24.6466 61.8582 24.6466H54.2979V29.4167H62.7322C62.8635 29.4167 62.9722 29.468 63.0605 29.5706C63.1631 29.7163 63.2061 29.8845 63.1918 30.0733C63.1918 30.2333 63.1548 30.3872 63.083 30.5328C63.0092 30.6642 62.8943 30.7298 62.7343 30.7298H52.7714C52.4062 30.7585 52.08 30.6724 51.7887 30.4672C51.6717 30.3503 51.5835 30.2128 51.5261 30.0528C51.483 29.8496 51.4604 29.6383 51.4604 29.4188V17.9562C51.446 17.5931 51.563 17.2709 51.8092 16.994L51.803 16.9899Z" fill="url(#paint0_linear_650_6979)"/>
<path d="M66.027 16.9242C66.2014 16.7498 66.4065 16.6554 66.6384 16.6411H68.0581C68.3638 16.6698 68.6182 16.8011 68.8234 17.035C69.1434 17.3838 69.406 17.7633 69.6092 18.1716L76.4699 27.4923V17.5376C76.4699 17.2894 76.5417 17.0719 76.6894 16.8831C76.8638 16.7231 77.0751 16.6431 77.3234 16.6431H78.4374C78.6693 16.6431 78.8662 16.717 79.0263 16.8606C79.215 17.0493 79.3094 17.275 79.3094 17.5376V29.8517C79.3237 30.1143 79.2437 30.3317 79.0693 30.5061C78.895 30.6662 78.6836 30.738 78.4354 30.7236H77.2988C76.9931 30.7523 76.7161 30.6723 76.4678 30.4836C76.3078 30.3379 76.1683 30.1779 76.0534 30.0035C75.8482 29.7121 75.6533 29.4126 75.4625 29.1069L68.6018 19.5462V29.8291C68.6018 30.0917 68.5074 30.3174 68.3187 30.5061C68.1586 30.6518 67.9617 30.7236 67.7278 30.7236H66.6137C66.3655 30.7236 66.1542 30.6436 65.9798 30.4836C65.8341 30.2948 65.7603 30.0753 65.7603 29.8291V17.5376C65.7746 17.3037 65.8628 17.1006 66.0229 16.9262L66.027 16.9242Z" fill="url(#paint1_linear_650_6979)"/>
<path d="M86.7388 17.9295C86.8557 17.5663 87.0588 17.2607 87.3502 17.0124C87.6702 16.7642 88.0416 16.6411 88.4642 16.6411H89.5557C89.9045 16.6411 90.2327 16.7354 90.5384 16.9242C90.8729 17.1868 91.1211 17.5212 91.2811 17.9295L96.4595 29.6096C96.517 29.784 96.5477 29.9583 96.5477 30.1348C96.5477 30.2517 96.519 30.3666 96.4595 30.4836C96.3282 30.658 96.1456 30.738 95.9138 30.7236H94.6028C94.137 30.7093 93.8088 30.4836 93.62 30.0466L92.3193 27.006H85.7027L84.3999 30.0466C84.2111 30.4836 83.8829 30.7093 83.4171 30.7236H82.1061C81.8722 30.738 81.6917 30.658 81.5604 30.4836C81.5029 30.3666 81.4722 30.2497 81.4722 30.1348C81.4722 29.9604 81.5009 29.786 81.5604 29.6096L86.7388 17.9295ZM91.8412 25.695L89.0346 19.1974L86.1869 25.695H91.8433H91.8412Z" fill="url(#paint2_linear_650_6979)"/>
<path d="M99.0341 18.8692C99.7604 17.9993 100.624 17.4248 101.484 17.0555C102.524 16.6103 103.618 16.4216 104.74 16.4216C105.585 16.4359 106.759 16.5447 107.573 16.7498C108.345 16.9673 109.067 17.3038 109.736 17.7551C110.93 18.6004 111.644 19.7432 111.877 21.1855C111.906 21.3886 111.906 21.5938 111.877 21.7969C111.849 21.9713 111.783 22.1252 111.681 22.2565C111.549 22.3878 111.389 22.4822 111.2 22.5396C111.012 22.5971 110.815 22.634 110.61 22.6483C110.376 22.6771 110.144 22.6853 109.91 22.6709C109.75 22.6709 109.604 22.6278 109.473 22.5396C109.239 22.3509 109.102 22.0964 109.058 21.7743C108.927 21.1342 108.738 20.5064 108.49 19.895C108.301 19.4149 108.024 18.9841 107.659 18.6066C107.294 18.2722 106.873 18.0321 106.391 17.8865C105.969 17.7839 105.341 17.7326 104.89 17.7326C104.19 17.7469 103.546 17.9275 103.041 18.1963C102.323 18.5779 101.734 19.0682 101.295 19.6981C100.499 20.8408 100.222 22.1436 100.222 23.746C100.222 25.3483 100.63 26.6881 101.469 27.8821C101.917 28.5181 102.518 28.9695 103.236 29.2813C103.933 29.5829 104.498 29.6158 105.08 29.6301C106.026 29.6014 106.828 29.2444 107.483 28.5592C107.877 28.1365 108.203 27.6626 108.466 27.1394C108.743 26.5711 108.968 25.9884 109.143 25.3914C109.186 25.217 109.251 25.057 109.34 24.9113C109.428 24.78 109.543 24.6938 109.688 24.6487C109.863 24.62 110.045 24.62 110.234 24.6487C110.452 24.6918 110.663 24.7513 110.868 24.8231C111.086 24.897 111.297 24.9831 111.502 25.0857C111.648 25.1739 111.771 25.2827 111.873 25.414C112.005 25.6622 112.033 25.9248 111.962 26.1998C111.613 27.6277 110.839 28.7705 109.645 29.6301C108.946 30.1102 108.174 30.4611 107.329 30.6785C106.586 30.8386 105.684 30.9268 104.926 30.9411C103.95 30.9411 102.996 30.8016 102.064 30.5267C101.002 30.1923 100.05 29.6383 99.2618 28.8669C98.5048 28.0811 97.3784 26.3393 97.3784 23.6167C97.3784 21.3825 98.2955 19.7494 99.03 18.8692H99.0341Z" fill="url(#paint3_linear_650_6979)"/>
<path d="M48.9204 29.7409L44.8355 25.4017C45.33 25.2704 45.8039 25.0734 46.2553 24.8108C46.6779 24.5626 47.0411 24.2425 47.3468 23.8486C47.6668 23.4403 47.8925 22.9828 48.0238 22.4719C48.1408 22.0349 48.1982 21.5918 48.1982 21.1384C48.1838 20.5126 48.0751 19.9012 47.8699 19.3021C47.6073 18.6476 47.1929 18.1081 46.6246 17.6854C46.0276 17.3059 45.3874 17.0371 44.7022 16.8771C43.9738 16.717 43.2312 16.637 42.4741 16.637H39.7987C39.7987 17.3736 40.3958 17.9706 41.1323 17.9706H41.3395C41.8935 17.9706 42.4454 18.0137 42.9993 18.1019C43.5245 18.2045 44.0046 18.4076 44.4416 18.7133C44.776 19.0046 45.0161 19.3555 45.1618 19.7617C45.2931 20.2274 45.3587 20.7096 45.3587 21.204C45.3587 21.6123 45.3013 22.0124 45.1843 22.4063C45.0387 22.8576 44.7986 23.2434 44.4642 23.5634C44.0846 23.8691 43.6558 24.0804 43.1758 24.1974C42.5787 24.343 41.9673 24.4169 41.3395 24.4169H38.6949V18.3543C38.6949 17.9275 38.1923 16.6391 37.7655 16.6391H37.1213C36.7418 16.6247 36.4217 16.7478 36.1591 17.0104C35.9396 17.3018 35.839 17.63 35.8534 17.9932V29.8476C35.8534 30.0815 35.9252 30.2908 36.0709 30.4816C36.2453 30.6416 36.4566 30.7216 36.7048 30.7216H37.8189C38.0507 30.7216 38.2477 30.6478 38.4098 30.5021C38.5985 30.3134 38.6929 30.0877 38.6929 29.8251V25.7259H42.2976L45.728 30.0425C45.845 30.26 46.005 30.4426 46.2081 30.5883C46.4399 30.6909 46.6882 30.7339 46.9508 30.7196H48.5449C48.7624 30.7052 48.9163 30.6026 49.0045 30.4139C49.0763 30.18 49.0476 29.9543 48.9163 29.7368L48.9204 29.7409Z" fill="url(#paint4_linear_650_6979)"/>
<path d="M9.29571 9.14337C9.29571 9.14337 8.83417 10.7287 7.14486 11.1647C5.45556 11.6007 4.1676 10.9713 3.34302 13.352C3.34302 13.352 3.81916 12.6077 4.63097 12.6114C5.44096 12.615 9.10051 13.7734 9.29754 9.1452L9.29571 9.14337Z" fill="url(#paint5_linear_650_6979)"/>
<path d="M16.5253 4.67023C16.5253 4.67023 18.5247 8.2714 17.5597 13.5199C17.2532 15.1855 15.6861 23.4697 7.52782 24.5113C6.66128 15.8787 17.1291 14.0088 16.5253 4.67023Z" fill="url(#paint6_linear_650_6979)"/>
<path d="M8.96161 14.5196C8.78101 14.0855 8.17899 13.2262 6.35651 13.3594C5.29112 13.4378 4.28775 14.1128 3.32087 14.3518C1.83224 14.7203 0.932861 14.1329 0.932861 14.1329C1.55677 15.3333 3.53431 15.5321 4.47565 16.0247C5.02659 16.3129 6.55718 16.9861 6.25252 18.5751C5.79098 20.9831 6.17225 21.8479 6.17225 21.8479C6.17225 21.8479 6.41489 19.8247 7.89257 17.7906C9.02729 16.2272 9.33742 15.419 8.96161 14.5178V14.5196ZM6.62103 14.6747C6.52799 14.7039 6.36016 14.7659 6.17955 14.7422C5.99347 14.7185 5.90226 14.5908 5.90226 14.4613C5.90226 14.2679 6.02266 14.1639 6.18502 14.1329C6.48239 14.0782 6.82718 14.2132 7.03515 14.5926C7.03515 14.5926 6.85272 14.6017 6.62103 14.6747Z" fill="url(#paint7_linear_650_6979)"/>
<path d="M11.2676 23.227C11.2676 23.227 12.7745 27.6582 18.6323 28.9042C22.2353 29.6704 30.3042 32.8155 28.8502 38.6679C28.8502 38.6679 27.7246 37.3708 25.3366 36.1066C22.9486 34.8423 22.4287 33.9083 22.4797 32.6951C22.4797 32.6951 24.1234 34.669 25.1979 34.7894C25.1979 34.7894 25.6832 31.7082 18.9497 29.7872C18.9497 29.7872 19.9877 30.7048 20.1611 31.1025C20.1611 31.1025 18.2218 29.7525 16.5435 29.9423C16.5435 29.9423 24.7765 32.3886 24.2001 40.6983C24.2001 40.6983 23.5068 38.8521 22.3539 38.345C22.3539 38.345 22.4341 40.1748 21.0039 41.8185C19.5736 43.4621 17.8588 43.4968 17.2367 43.4111C17.2367 43.4111 22.5162 39.6384 18.7764 33.9247C18.7764 33.9247 20.6846 38.9215 17.9409 40.3991C17.9409 40.3991 17.8643 39.5472 17.2987 38.3906C16.7332 37.234 16.465 36.4696 17.0269 35.6997C17.0269 35.6997 17.1053 37.1446 17.5632 37.5697C17.5632 37.5697 19.8363 33.8335 15.9068 31.8724C14.1755 31.0076 7.60804 30.028 7.47304 23.7141C7.47304 23.7141 7.43473 21.9208 8.64059 20.4595C10.3189 21.6508 11.2658 23.2288 11.2658 23.2288L11.2676 23.227Z" fill="url(#paint8_linear_650_6979)"/>
<path d="M24.43 6.65509C25.0612 15.4628 12.842 14.9538 8.75011 20.31C7.57161 21.8533 7.52783 23.0501 7.52783 23.0501C7.52783 23.0501 9.25909 23.7269 11.6617 24.0735C14.8816 24.5369 19.3055 24.4074 22.3722 21.2513C23.817 19.7645 24.9627 17.6064 25.5373 14.5215C26.3473 10.1815 24.43 6.65691 24.43 6.65691V6.65509Z" fill="url(#paint9_linear_650_6979)"/>
<path d="M22.3722 21.2513C21.2375 21.3078 20.0572 21.0907 18.7145 20.8736C14.3745 20.1694 11.6562 24.0662 11.6562 24.0662C11.6562 24.0662 11.6581 24.0698 11.6599 24.0734C14.8798 24.5368 19.3037 24.4073 22.3704 21.2513H22.3722Z" fill="url(#paint10_linear_650_6979)"/>
<path d="M22.3723 21.2513C19.3039 24.4073 14.8818 24.5387 11.6619 24.0735C11.7531 24.2267 13.5318 27.1055 17.4759 27.1675C25.8239 27.2988 27.3071 18.5823 27.3071 18.5823C25.5174 20.5416 23.9887 21.171 22.3723 21.2513Z" fill="url(#paint11_linear_650_6979)"/>
<path d="M26.8034 25.9557C27.0397 25.7706 27.0812 25.4289 26.896 25.1925C26.7108 24.9562 26.3691 24.9147 26.1328 25.0999C25.8964 25.2851 25.855 25.6268 26.0401 25.8631C26.2253 26.0994 26.567 26.1409 26.8034 25.9557Z" fill="#E74664"/>
<path d="M30.1255 18.6097C30.1255 18.9727 29.8318 19.2664 29.4688 19.2664C29.1057 19.2664 28.812 18.9727 28.812 18.6097C28.812 18.2467 29.1057 17.9529 29.4688 17.9529C29.8318 17.9529 30.1255 18.2467 30.1255 18.6097Z" fill="#E74664"/>
<path d="M28.8703 23.9549C28.8703 24.3399 28.5584 24.65 28.1753 24.65C27.7922 24.65 27.4802 24.3381 27.4802 23.9549C27.4802 23.5718 27.7922 23.2599 28.1753 23.2599C28.5584 23.2599 28.8703 23.5718 28.8703 23.9549Z" fill="#E74664"/>
<path d="M30.1311 21.3425C30.1311 21.8332 29.7334 22.2291 29.2445 22.2291C28.7556 22.2291 28.3579 21.8314 28.3579 21.3425C28.3579 20.8536 28.7556 20.4559 29.2445 20.4559C29.7334 20.4559 30.1311 20.8536 30.1311 21.3425Z" fill="#E74664"/>
</g>
<defs>
<linearGradient id="paint0_linear_650_6979" x1="36.0115" y1="23.6834" x2="112.301" y2="23.6834" gradientUnits="userSpaceOnUse">
<stop stop-color="#E52D75"/>
<stop offset="0.11" stop-color="#D0357D"/>
<stop offset="0.34" stop-color="#A8458D"/>
<stop offset="0.56" stop-color="#8A5199"/>
<stop offset="0.75" stop-color="#7958A0"/>
<stop offset="0.88" stop-color="#735BA3"/>
</linearGradient>
<linearGradient id="paint1_linear_650_6979" x1="35.9859" y1="23.6834" x2="112.317" y2="23.6834" gradientUnits="userSpaceOnUse">
<stop stop-color="#E52D75"/>
<stop offset="0.11" stop-color="#D0357D"/>
<stop offset="0.34" stop-color="#A8458D"/>
<stop offset="0.56" stop-color="#8A5199"/>
<stop offset="0.75" stop-color="#7958A0"/>
<stop offset="0.88" stop-color="#735BA3"/>
</linearGradient>
<linearGradient id="paint2_linear_650_6979" x1="36.0177" y1="23.6844" x2="112.299" y2="23.6844" gradientUnits="userSpaceOnUse">
<stop stop-color="#E52D75"/>
<stop offset="0.11" stop-color="#D0357D"/>
<stop offset="0.34" stop-color="#A8458D"/>
<stop offset="0.56" stop-color="#8A5199"/>
<stop offset="0.75" stop-color="#7958A0"/>
<stop offset="0.88" stop-color="#735BA3"/>
</linearGradient>
<linearGradient id="paint3_linear_650_6979" x1="36.7362" y1="23.6803" x2="112.296" y2="23.6803" gradientUnits="userSpaceOnUse">
<stop stop-color="#E52D75"/>
<stop offset="0.11" stop-color="#D0357D"/>
<stop offset="0.34" stop-color="#A8458D"/>
<stop offset="0.56" stop-color="#8A5199"/>
<stop offset="0.75" stop-color="#7958A0"/>
<stop offset="0.88" stop-color="#735BA3"/>
</linearGradient>
<linearGradient id="paint4_linear_650_6979" x1="36.0135" y1="23.6819" x2="112.299" y2="23.6819" gradientUnits="userSpaceOnUse">
<stop stop-color="#E52D75"/>
<stop offset="0.11" stop-color="#D0357D"/>
<stop offset="0.34" stop-color="#A8458D"/>
<stop offset="0.56" stop-color="#8A5199"/>
<stop offset="0.75" stop-color="#7958A0"/>
<stop offset="0.88" stop-color="#735BA3"/>
</linearGradient>
<linearGradient id="paint5_linear_650_6979" x1="3.34119" y1="11.2486" x2="13.5938" y2="11.2486" gradientUnits="userSpaceOnUse">
<stop stop-color="#E8563F"/>
<stop offset="0.08" stop-color="#E74E49"/>
<stop offset="0.37" stop-color="#E53669"/>
<stop offset="0.53" stop-color="#E22E76"/>
<stop offset="0.63" stop-color="#BA3E86"/>
<stop offset="0.73" stop-color="#9B4A92"/>
<stop offset="0.83" stop-color="#85539B"/>
<stop offset="0.92" stop-color="#7759A1"/>
<stop offset="1" stop-color="#735BA3"/>
</linearGradient>
<linearGradient id="paint6_linear_650_6979" x1="15.0166" y1="23.1668" x2="8.64795" y2="4.60273" gradientUnits="userSpaceOnUse">
<stop offset="0.37" stop-color="#735BA3"/>
<stop offset="0.46" stop-color="#7576AD"/>
<stop offset="0.64" stop-color="#7ABCC9"/>
<stop offset="0.68" stop-color="#7CC9CF"/>
</linearGradient>
<linearGradient id="paint7_linear_650_6979" x1="4.26586" y1="12.1918" x2="7.07893" y2="20.9467" gradientUnits="userSpaceOnUse">
<stop stop-color="#E8563F"/>
<stop offset="0.08" stop-color="#E74E49"/>
<stop offset="0.37" stop-color="#E53669"/>
<stop offset="0.53" stop-color="#E22E76"/>
<stop offset="0.63" stop-color="#BA3E86"/>
<stop offset="0.73" stop-color="#9B4A92"/>
<stop offset="0.83" stop-color="#85539B"/>
<stop offset="0.92" stop-color="#7759A1"/>
<stop offset="1" stop-color="#735BA3"/>
</linearGradient>
<linearGradient id="paint8_linear_650_6979" x1="12.3786" y1="23.4587" x2="26.1685" y2="44.108" gradientUnits="userSpaceOnUse">
<stop offset="0.26" stop-color="#E52D75"/>
<stop offset="0.43" stop-color="#CF357D"/>
<stop offset="0.77" stop-color="#994B93"/>
<stop offset="1" stop-color="#735BA3"/>
</linearGradient>
<linearGradient id="paint9_linear_650_6979" x1="14.4511" y1="23.9823" x2="21.5658" y2="7.23522" gradientUnits="userSpaceOnUse">
<stop stop-color="#E52D75"/>
<stop offset="0.11" stop-color="#D0357D"/>
<stop offset="0.34" stop-color="#A8458D"/>
<stop offset="0.56" stop-color="#8A5199"/>
<stop offset="0.75" stop-color="#7958A0"/>
<stop offset="0.88" stop-color="#735BA3"/>
</linearGradient>
<linearGradient id="paint10_linear_650_6979" x1="12.3641" y1="20.7623" x2="22.8137" y2="25.0294" gradientUnits="userSpaceOnUse">
<stop offset="0.28" stop-color="#E52D75" stop-opacity="0"/>
<stop offset="0.55" stop-color="#E84B6E" stop-opacity="0.36"/>
<stop offset="1" stop-color="#EE8363"/>
</linearGradient>
<linearGradient id="paint11_linear_650_6979" x1="28.8322" y1="21.1035" x2="11.8133" y2="26.5509" gradientUnits="userSpaceOnUse">
<stop stop-color="#F4A300"/>
<stop offset="0.03" stop-color="#F39C06"/>
<stop offset="0.24" stop-color="#EE742E"/>
<stop offset="0.44" stop-color="#EA554D"/>
<stop offset="0.64" stop-color="#E73F63"/>
<stop offset="0.83" stop-color="#E53170"/>
<stop offset="1" stop-color="#E52D75"/>
</linearGradient>
<clipPath id="clip0_650_6979">
<rect width="112.734" height="48" fill="white"/>
</clipPath>
</defs>
</svg>
